/* XPM */
static char * mur_xpm[] = {
"50 50 7 1",
" 	c #A39E8E",
".	c #8D8662",
"+	c #9E9989",
"@	c #8B8461",
"#	c #A29D8D",
"$	c #A19C8C",
"%	c #847E5F",
"                                                  ",
"                                                  ",
"    .........+  ..................  ..........    ",
"   ...........  ..................  ...........   ",
"  ............  ..................  ............  ",
"  ...........   ..................  ............  ",
"                                                  ",
"                                                  ",
"  @....   ..............................   .....  ",
"  .....   ..............................   .....  ",
"  .....   ..............................   .....  ",
"  .....   ..............................   .....  ",
"                                                  ",
"                                                  ",
"   #   ###  #    #              #    ...........  ",
"  ............  ..................  ............  ",
"  ...........$  ..................  ............  ",
"  ...........$  ..................  ............  ",
"  ............  ..................  ............  ",
"  ...........#  ..................  ............  ",
"                                                  ",
"                                                  ",
"  .....   ..............................   .....  ",
"  ......  ..............................   .....  ",
"  ......  ..............................   .....  ",
"  ......  ..............................   .....  ",
"                                                  ",
"                                                  ",
"                                                  ",
"  ............  ..................  ............  ",
"  ............  ..................  ............  ",
"  ............  ..................  ............  ",
"  ............  ..................  ............  ",
"  ...........%  ..................  ............  ",
"                                                  ",
"                                                  ",
"  .....   ..............................   .....  ",
"  .....   ..............................   .....  ",
"  .....   ..............................   .....  ",
"  .....   ..............................   .....  ",
"                                                  ",
"                                                  ",
"                                                  ",
"  ............  ..................  ............  ",
"  ............  ..................  ............  ",
"  ............  ..................  ............  ",
"   ...........  ..................  ...........   ",
"    ..........  ..................  ..........    ",
"                                                  ",
"                                                  "};
