/* XPM */
static char * skindos_xpm[] = {
"50 50 647 2",
"  	c #A39E8E",
". 	c #8D8662",
"+ 	c #FFFFD7",
"@ 	c #FFFFD5",
"# 	c #FFFFD8",
"$ 	c #FFFFD9",
"% 	c #FFFFCF",
"& 	c #FCFCCF",
"* 	c #FFFFDD",
"= 	c #FFFFDA",
"- 	c #FFFFDB",
"; 	c #FFFFD1",
"> 	c #FFFFCC",
", 	c #F8F8D2",
"' 	c #FFFFCD",
") 	c #FCFDDF",
"! 	c #FFFFD6",
"~ 	c #E8EBCA",
"{ 	c #FBFCD0",
"] 	c #FEFECC",
"^ 	c #FEFECD",
"/ 	c #FBFDD4",
"( 	c #FAFBD3",
"_ 	c #E0EDF2",
": 	c #F2FAFB",
"< 	c #D7EBEB",
"[ 	c #CFE3DE",
"} 	c #CEE3DF",
"| 	c #CFE7E4",
"1 	c #C8E1E0",
"2 	c #C7DEE3",
"3 	c #E8F1F4",
"4 	c #F0F9FC",
"5 	c #BCD3D9",
"6 	c #C0E1EA",
"7 	c #C8EBF6",
"8 	c #C3E5EF",
"9 	c #BFE1EB",
"0 	c #CCECF7",
"a 	c #C8E9F3",
"b 	c #C9DBE1",
"c 	c #C9DCE2",
"d 	c #95A9A9",
"e 	c #C5E7F1",
"f 	c #D6F0F8",
"g 	c #CDEAF4",
"h 	c #D0E7EF",
"i 	c #D2ECF4",
"j 	c #F3FAFD",
"k 	c #C1DCE4",
"l 	c #B8A289",
"m 	c #9EB5B9",
"n 	c #98ABAB",
"o 	c #B8D6DE",
"p 	c #C5E5EE",
"q 	c #F2FAFD",
"r 	c #E1F4FA",
"s 	c #D1E8F0",
"t 	c #D7F0F8",
"u 	c #CBE6EF",
"v 	c #AB8458",
"w 	c #A0886F",
"x 	c #97ACAD",
"y 	c #92A5A4",
"z 	c #9EB2B3",
"A 	c #BBDAE2",
"B 	c #DCF2F9",
"C 	c #CAECF6",
"D 	c #CBECF6",
"E 	c #C0E2EC",
"F 	c #C2E4EE",
"G 	c #96ABAC",
"H 	c #8EA09F",
"I 	c #95A8A7",
"J 	c #A1B8B9",
"K 	c #C4E6F1",
"L 	c #BEDFEA",
"M 	c #BDDEE8",
"N 	c #C0E1EC",
"O 	c #93A5A4",
"P 	c #91A3A2",
"Q 	c #98ABAA",
"R 	c #9CB0B0",
"S 	c #A2B8B9",
"T 	c #9DB3B6",
"U 	c #B6D6DF",
"V 	c #AECBD2",
"W 	c #809290",
"X 	c #5B8790",
"Y 	c #568692",
"Z 	c #AED0DA",
"` 	c #A9C4C9",
" .	c #BAD8E0",
"..	c #BEDDE7",
"+.	c #D4A55F",
"@.	c #D4A056",
"#.	c #9F9C8D",
"$.	c #90A3A3",
"%.	c #B9D9E2",
"&.	c #C1E3ED",
"*.	c #C3E3ED",
"=.	c #CDD8CE",
"-.	c #B1B0A4",
";.	c #C2C1B4",
">.	c #B0AEA2",
",.	c #98AAA8",
"'.	c #99ACAB",
").	c #ABC7CD",
"!.	c #CFEDF7",
"~.	c #DFF2F8",
"{.	c #EDF7FA",
"].	c #F4FAFD",
"^.	c #C4D4D4",
"/.	c #BCBCAF",
"(.	c #C4C3B5",
"_.	c #C8C7B5",
":.	c #99A8A4",
"<.	c #9AADAD",
"[.	c #C4E6F0",
"}.	c #D5EFF8",
"|.	c #ECF8FC",
"1.	c #E2F4FA",
"2.	c #E5F5FA",
"3.	c #DAF1F8",
"4.	c #C3CBC4",
"5.	c #C0BFB5",
"6.	c #D9D9CC",
"7.	c #D6D6C7",
"8.	c #9CABA8",
"9.	c #9AADAC",
"0.	c #BCDCE4",
"a.	c #C7E3EA",
"b.	c #C7EAF5",
"c.	c #C3D2D0",
"d.	c #E4E4DB",
"e.	c #AFA99E",
"f.	c #A19E91",
"g.	c #9AA7A3",
"h.	c #90A3A2",
"i.	c #80989A",
"j.	c #779397",
"k.	c #7A9497",
"l.	c #8CA09F",
"m.	c #9DB2B2",
"n.	c #9DA7A3",
"o.	c #BDBCB7",
"p.	c #D0DAD9",
"q.	c #A4743C",
"r.	c #B4A89E",
"s.	c #CECDBF",
"t.	c #B8BCB0",
"u.	c #9AB5BB",
"v.	c #7E9CA1",
"w.	c #819B9E",
"x.	c #8AA8AE",
"y.	c #789EA8",
"z.	c #8A9FA0",
"A.	c #97ABAB",
"B.	c #B6CFD5",
"C.	c #ADBFC4",
"D.	c #799D9D",
"E.	c #AAC1C1",
"F.	c #CFD8D8",
"G.	c #C79963",
"H.	c #B18859",
"I.	c #C4D0D1",
"J.	c #BED8DF",
"K.	c #AAC4C8",
"L.	c #C1E2EC",
"M.	c #A7C1C7",
"N.	c #CDE1E6",
"O.	c #8CADB1",
"P.	c #B0C3C2",
"Q.	c #C9D3D3",
"R.	c #C3CCCA",
"S.	c #C79C69",
"T.	c #D2A46F",
"U.	c #B8AC9B",
"V.	c #AD927E",
"W.	c #BCC6C7",
"X.	c #B5D3DA",
"Y.	c #94A7A6",
"Z.	c #B9D7DF",
"`.	c #C4E7F2",
" +	c #B8C7C7",
".+	c #C7E3EB",
"++	c #98B6B8",
"@+	c #C1CBC9",
"#+	c #A2C7D6",
"$+	c #A1C9D9",
"%+	c #BA9161",
"&+	c #D3A56F",
"*+	c #C6955D",
"=+	c #CF9F74",
"-+	c #D3EDF6",
";+	c #BFE0EA",
">+	c #9BB1B2",
",+	c #AFCACF",
"'+	c #BDAB96",
")+	c #CEA576",
"!+	c #89A29F",
"~+	c #C8D1CF",
"{+	c #A0CBDD",
"]+	c #D3F0FE",
"^+	c #A3D9F0",
"/+	c #CA9E6A",
"(+	c #C98942",
"_+	c #A8ADAF",
":+	c #9AAEAF",
"<+	c #9CB1B1",
"[+	c #C5E7F2",
"}+	c #B58D70",
"|+	c #CD9D65",
"1+	c #88A09A",
"2+	c #A6BBBB",
"3+	c #89C3DA",
"4+	c #A0E0FD",
"5+	c #F5FBFF",
"6+	c #ADDDF4",
"7+	c #CD9E68",
"8+	c #B37741",
"9+	c #59A0B6",
"0+	c #7DAEB9",
"a+	c #94A8A8",
"b+	c #9DB4B6",
"c+	c #949C9F",
"d+	c #CE8F4A",
"e+	c #85A09C",
"f+	c #BACCCB",
"g+	c #92C6DD",
"h+	c #BDE8FE",
"i+	c #F4FAFF",
"j+	c #D4F0FE",
"k+	c #68C6E9",
"l+	c #CD904D",
"m+	c #7C7677",
"n+	c #56C0DA",
"o+	c #5FD4E7",
"p+	c #6D9CA5",
"q+	c #96A8A7",
"r+	c #A5BEC3",
"s+	c #9BBFCB",
"t+	c #B9783A",
"u+	c #869C97",
"v+	c #AEC5C8",
"w+	c #93C3DA",
"x+	c #A8E1FE",
"y+	c #E8F5FF",
"z+	c #D9F2FE",
"A+	c #7FD8FB",
"B+	c #CDA06C",
"C+	c #CEA06A",
"D+	c #BF7930",
"E+	c #4895B0",
"F+	c #5FD3E9",
"G+	c #65E1F3",
"H+	c #54B9D8",
"I+	c #84A6AE",
"J+	c #B3D1D9",
"K+	c #98C7D8",
"L+	c #84736F",
"M+	c #91998F",
"N+	c #89B0BA",
"O+	c #55AED1",
"P+	c #89CEEE",
"Q+	c #ADE2FE",
"R+	c #9EE0FD",
"S+	c #69D3FA",
"T+	c #C39866",
"U+	c #C89862",
"V+	c #C4945D",
"W+	c #C9954C",
"X+	c #9D755C",
"Y+	c #54A4C0",
"Z+	c #5BCAE5",
"`+	c #60D5EC",
" @	c #54BADD",
".@	c #5DC0DA",
"+@	c #90AFB0",
"@@	c #92A4A3",
"#@	c #86AFB9",
"$@	c #C6E9F4",
"%@	c #78B9D1",
"&@	c #598798",
"*@	c #776C5F",
"=@	c #80A5B3",
"-@	c #1596BF",
";@	c #5DB5D9",
">@	c #5BC0E6",
",@	c #4BC3EB",
"'@	c #B28755",
")@	c #8C6231",
"!@	c #CF9541",
"~@	c #D28B30",
"{@	c #D38522",
"]@	c #D18730",
"^@	c #98938B",
"/@	c #68A5BB",
"(@	c #59B8D6",
"_@	c #6FC3D1",
":@	c #8C9F9E",
"<@	c #7498A3",
"[@	c #B1B8B5",
"}@	c #D28321",
"|@	c #D2882A",
"1@	c #987958",
"2@	c #8F9F9F",
"3@	c #A8BBBD",
"4@	c #1D9AC1",
"5@	c #26ABD4",
"6@	c #42BEE6",
"7@	c #5CD0F8",
"8@	c #B58A59",
"9@	c #AFA394",
"0@	c #C0BEAE",
"a@	c #A4A190",
"b@	c #A09D8E",
"c@	c #928270",
"d@	c #937157",
"e@	c #947159",
"f@	c #967E6E",
"g@	c #8A9A98",
"h@	c #908C85",
"i@	c #987762",
"j@	c #926E54",
"k@	c #8E7965",
"l@	c #9C9383",
"m@	c #A7A595",
"n@	c #8F9184",
"o@	c #6C8181",
"p@	c #C4CECD",
"q@	c #B0C6CC",
"r@	c #58CBF2",
"s@	c #5DCDF4",
"t@	c #59C3E8",
"u@	c #5BC5DF",
"v@	c #ACECF1",
"w@	c #FFFFFF",
"x@	c #FEFEFE",
"y@	c #92EBF1",
"z@	c #52B5D5",
"A@	c #EAEAE3",
"B@	c #D7D7C8",
"C@	c #CCCBBA",
"D@	c #C0C0B2",
"E@	c #CECDBD",
"F@	c #B5B3A2",
"G@	c #A5A597",
"H@	c #8E8374",
"I@	c #8E8375",
"J@	c #9B6C4B",
"K@	c #74523E",
"L@	c #908D80",
"M@	c #AFAD9C",
"N@	c #C6C5B4",
"O@	c #B9B9AB",
"P@	c #D8D9CA",
"Q@	c #BFBEAD",
"R@	c #5E7676",
"S@	c #C7CECC",
"T@	c #B7C2C1",
"U@	c #8DAAAE",
"V@	c #5397B0",
"W@	c #9BD4E4",
"X@	c #FCFBF6",
"Y@	c #FCFBF7",
"Z@	c #FCFBF8",
"`@	c #FDFCF9",
" #	c #77C8DF",
".#	c #6798AC",
"+#	c #BCAD96",
"@#	c #786B5E",
"##	c #AEB4AA",
"$#	c #C0BFAE",
"%#	c #DCDCCE",
"&#	c #D8D8CA",
"*#	c #BFBFB1",
"=#	c #BDBDB0",
"-#	c #51808B",
";#	c #AFADA0",
">#	c #B6B9AB",
",#	c #728283",
"'#	c #A89682",
")#	c #748480",
"!#	c #A7B1AF",
"~#	c #B5C3C3",
"{#	c #C8D4D4",
"]#	c #A6AEB4",
"^#	c #BEC1C2",
"/#	c #D7D6D0",
"(#	c #DAD9D2",
"_#	c #DCDBD3",
":#	c #DEDCD4",
"<#	c #DCDBD4",
"[#	c #B6BCBE",
"}#	c #A9AEB4",
"|#	c #9C6113",
"1#	c #3D555E",
"2#	c #3A8092",
"3#	c #4C91A1",
"4#	c #97B1B2",
"5#	c #C7CDC2",
"6#	c #BEBEB0",
"7#	c #DADACC",
"8#	c #58ACBF",
"9#	c #709398",
"0#	c #6B9BA5",
"a#	c #3F8D9F",
"b#	c #337082",
"c#	c #654C3E",
"d#	c #A46914",
"e#	c #BCBEC3",
"f#	c #BDBFC4",
"g#	c #BABCC1",
"h#	c #96653E",
"i#	c #3D869D",
"j#	c #469CAF",
"k#	c #4395A5",
"l#	c #408E9F",
"m#	c #4F94A2",
"n#	c #6E9FA7",
"o#	c #57BFD3",
"p#	c #4090A1",
"q#	c #4294A4",
"r#	c #459AAB",
"s#	c #49A1B9",
"t#	c #407080",
"u#	c #B46F18",
"v#	c #D6D5D0",
"w#	c #E0DED5",
"x#	c #E8E6D9",
"y#	c #EDE9DB",
"z#	c #EDEADC",
"A#	c #EBE8DA",
"B#	c #E3E0D6",
"C#	c #D7D5CF",
"D#	c #D08119",
"E#	c #6C7278",
"F#	c #51B4CF",
"G#	c #61D9EE",
"H#	c #5DD0E5",
"I#	c #469CB4",
"J#	c #479EAE",
"K#	c #4499A8",
"L#	c #5ED1E5",
"M#	c #4FB0C4",
"N#	c #52B6CD",
"O#	c #61D8ED",
"P#	c #5CCCE3",
"Q#	c #469CB7",
"R#	c #A27151",
"S#	c #CD8219",
"T#	c #F0ECDB",
"U#	c #F3EFDE",
"V#	c #F2EEDE",
"W#	c #F1EEDE",
"X#	c #C07817",
"Y#	c #B97437",
"Z#	c #4392AC",
"`#	c #5BCAE3",
" $	c #64DEF1",
".$	c #5ED0E7",
"+$	c #52B6D4",
"@$	c #63DCEF",
"#$	c #5FD5E7",
"$$	c #5BCBDC",
"%$	c #63DDF0",
"&$	c #5CCDE4",
"*$	c #54BAD7",
"=$	c #63DCF0",
"-$	c #51B2D1",
";$	c #5D7885",
">$	c #CC7C17",
",$	c #ADBDC3",
"'$	c #BDC6C9",
")$	c #C3CBCD",
"!$	c #C1CACD",
"~$	c #C2CACD",
"{$	c #BBC5C8",
"]$	c #A8BBC3",
"^$	c #CE801C",
"/$	c #7A7072",
"($	c #4DACCC",
"_$	c #62DBEF",
":$	c #66E2F3",
"<$	c #59C6E1",
"[$	c #52B6D7",
"}$	c #65E0F2",
"|$	c #66E3F4",
"1$	c #66E4F4",
"2$	c #5BCAE4",
"3$	c #459AB7",
"4$	c #A86E49",
"5$	c #CB8623",
"6$	c #469CBA",
"7$	c #4DAACB",
"8$	c #84B7C9",
"9$	c #CEE3E5",
"0$	c #D6E8E7",
"a$	c #87B8CA",
"b$	c #48A0BF",
"c$	c #CC9B43",
"d$	c #C77E2B",
"e$	c #488398",
"f$	c #51B4D5",
"g$	c #5DCEE9",
"h$	c #60D7ED",
"i$	c #56BEE0",
"j$	c #68E8F6",
"k$	c #58C4E2",
"l$	c #5DCFE9",
"m$	c #5ED2EB",
"n$	c #4EA8C7",
"o$	c #6D7277",
"p$	c #D99535",
"q$	c #4BA6C7",
"r$	c #4BA5C5",
"s$	c #E0E0D2",
"t$	c #F4F0DF",
"u$	c #DFDFD1",
"v$	c #4AA3C2",
"w$	c #4BA6C6",
"x$	c #D7A34B",
"y$	c #DA9D44",
"z$	c #D89030",
"A$	c #D5871F",
"B$	c #D2914B",
"C$	c #9D9A93",
"D$	c #66A5BD",
"E$	c #57B3D4",
"F$	c #5CCBE7",
"G$	c #68E7F5",
"H$	c #6AEBF8",
"I$	c #55BBDE",
"J$	c #5BAFCD",
"K$	c #6EA2B4",
"L$	c #BA9879",
"M$	c #D48B35",
"N$	c #D78A24",
"O$	c #D89335",
"P$	c #DFA950",
"Q$	c #C98F3A",
"R$	c #6E8892",
"S$	c #B9BAB3",
"T$	c #CAC9C2",
"U$	c #B7B9B3",
"V$	c #718A93",
"W$	c #7D460A",
"X$	c #9C530D",
"Y$	c #70757D",
"Z$	c #6E8C9E",
"`$	c #A29FA0",
" %	c #9C7A66",
".%	c #A07459",
"+%	c #9C765E",
"@%	c #928376",
"#%	c #7F9192",
"$%	c #789DA8",
"%%	c #76A1AE",
"&%	c #7C9AA2",
"*%	c #848A86",
"=%	c #987F6E",
"-%	c #9C7359",
";%	c #A1775E",
">%	c #C1BCBE",
",%	c #7B7877",
"'%	c #67899C",
")%	c #796665",
"!%	c #94500C",
"~%	c #30677B",
"{%	c #193843",
"]%	c #1B3C48",
"^%	c #30687C",
"/%	c #59C5EB",
"(%	c #55B7D8",
"_%	c #9CACAF",
":%	c #8B9590",
"<%	c #8A928D",
"[%	c #907B6D",
"}%	c #9F5719",
"|%	c #A36B48",
"1%	c #A47356",
"2%	c #9E633C",
"3%	c #9E7861",
"4%	c #8E897F",
"5%	c #B2C5CB",
"6%	c #788C8E",
"7%	c #55BDE2",
"8%	c #A06213",
"9%	c #898F97",
"0%	c #61D6FF",
"a%	c #699EB0",
"b%	c #88928D",
"c%	c #747D79",
"d%	c #3F8299",
"e%	c #4D93AD",
"f%	c #2F697C",
"g%	c #828B86",
"h%	c #868F8A",
"i%	c #818A85",
"j%	c #63B1CC",
"k%	c #61D3FB",
"l%	c #9D7A68",
"m%	c #AD6714",
"n%	c #609FBB",
"o%	c #55BADD",
"p%	c #CBA055",
"q%	c #6C716C",
"r%	c #7C8580",
"s%	c #7C8581",
"t%	c #77807C",
"u%	c #57B6D8",
"v%	c #5090A7",
"w%	c #5D6561",
"x%	c #7F8984",
"y%	c #808985",
"z%	c #828B87",
"A%	c #7A827E",
"B%	c #806247",
"C%	c #C5A66B",
"D%	c #58C2E7",
"E%	c #81787C",
"F%	c #B87317",
"G%	c #AA6212",
"H%	c #C17916",
"I%	c #C37D23",
"J%	c #D9AE57",
"K%	c #A06012",
"L%	c #749FB5",
"M%	c #5ECFF6",
"N%	c #B59A76",
"O%	c #A88540",
"P%	c #DAAD55",
"Q%	c #BC7213",
"R%	c #C27916",
"S%	c #A96412",
"T%	c #BD7415",
"U%	c #C17A22",
"V%	c #B36D16",
"W%	c #79400A",
"X%	c #000000",
"Y%	c #B46F1C",
"Z%	c #D7B15A",
"`%	c #BF761C",
" &	c #B97214",
".&	c #B36A13",
"+&	c #CC8117",
"                                                                                                    ",
"  . . . . . . . . . . . . . . . . . . . . . . . . . . . . . . . . . . . . . . . . . . . . . . . .   ",
"  . . . . . . . . . . . . . . . . . . . . . . . . . . . . . . . . . . . . . . . . . . . . . . . .   ",
"  . . . . . . . . . . . . . . . . . . . . . . . . . . + @ @ @ # . . . . . . . . . . . . . . . . .   ",
"  . . . . . . . . . . . . . . . . . . . . . . $ % & * . . . . . = % % - . . . . . . . . . . . . .   ",
"  . . . . . . . . . . . . . . . . . . . . . ; > . . . . . . . . . . , > ; . . . . . . . . . . . .   ",
"  . . . . . . . . . . . . . . . . . . . . . ' > . . . . . . . . . . ) > > . . . . . . . . . . . .   ",
"  . . . . . . . . . . . . . . . . . . . . . - > > ! . . . . . . . ~ ' > ! . . . . . . . . . . . .   ",
"  . . . . . . . . . . . . . . . . . . . . . . . # { ' > ] ^ ^ > > / ( . . . . . . . . . . . . . .   ",
"  . . . . . . . . . . . . . . . . . . . . . . . . _ : < [ } | 1 2 3 . . . . . . . . . . . . . . .   ",
"  . . . . . . . . . . . . . . . . . . . . . . . . 4 5 6 7 8 9 7 0 a b . . . . . . . . . . . . . .   ",
"  . . . . . . . . . . . . . . . . . . . . . . . . c d e 7 f g h i j k . . . . . . . . . . . . . .   ",
"  . . . . . . . . . . . . . . . . . . . . . . . l m n o p q r s 9 t u v . . . . . . . . . . . . .   ",
"  . . . . . . . . . . . . . . . . . . . . . . . w x y z A B C D E 7 F . . . . . . . . . . . . . .   ",
"  . . . . . . . . . . . . . . . . . . . . . . . . G H I J K 7 e L M N . . . . . . . . . . . . . .   ",
"  . . . . . . . . . . . . . . . . . . . . . . . . . O P Q R S T U V . . . . . . . . . . . . . . .   ",
"  . . . . . . . . . . . . . . . . . . . . . . . . . . . W X Y Z `  .... . . . . . . . . . . . . .   ",
"  . . . . . . . . . . . . . . . . . . . . . . . . . +.@.#.$.%.&.*.=.. . . . . . . . . . . . . . .   ",
"  . . . . . . . . . . . . . . . . . . . . . . . -.;.>.,.'.).!.~.{.].^./.. . . . . . . . . . . . .   ",
"  . . . . . . . . . . . . . . . . . . . . . . . (._.:.'.<.[.}.|.1.2.3.4.5.. . . . . . . . . . . .   ",
"  . . . . . . . . . . . . . . . . . . . . . . . 6.7.8.'.9. .0.A A a.b.c.d.. . . . . . . . . . . .   ",
"  . . . . . . . . . . . . . . . . . . . . . . . e.f.g.'.h.i.j.k.l.'.m.n.o.. p.. . . . . . . . . .   ",
"  . . . . . . . . . . . . . . . . . . . . . . q.r.s.t.<.u.v.w.x.y.z.A.B.C.D.E.F.. . . . . . . . .   ",
"  . . . . . . . . . . . . . . . . . . . . . . G.H.I.J.0.K.'.A 7 7 L.M.K N.O.P.Q.R.. . . . . . . .   ",
"  . . . . . . . . . . . . . . . . . . . . . S.T.U.V.W.7 X.Y.Z.7 7 7 `. +.+++@+#+$+. . . . . . . .   ",
"  . . . . . . . . . . . . . . . . . . . . %+&+&+*+=+-+;+>+'.,+7 7 7 L '+)+!+~+{+]+^+. . . . . . .   ",
"  . . . . . . . . . . . . . . . . . . . . /+&+&+(+_+&.:+'.O <+&.7 7 [+}+|+1+2+3+4+5+6+. . . . . .   ",
"  . . . . . . . . . . . . . . . . . . . . &+&+7+8+9+0+a+'.y '.b+K 7 7 c+d+e+f+g+h+i+j+k+. . . . .   ",
"  . . . . . . . . . . . . . . . . . . . . &+&+l+m+n+o+p+'.q+I '.r+7 7 s+t+u+v+w+x+y+z+A+. . . . .   ",
"  . . . . . . . . . . . . . . . . . . . B+&+C+D+E+F+G+H+I+'.P '.Q J+7 K+L+M+N+O+P+Q+R+S+. . . . .   ",
"  . . . . . . . . . . . . . . . . . . T+U+V+W+X+Y+Z+`+ @.@+@@@Q '.#@$@%@&@*@q+=@-@;@>@,@. . . . .   ",
"  . . . . . . . . . . . . . . . . . . . '@)@!@~@{@]@^@/@(@_@O I :@<@[@}@|@1@2@3@4@5@6@7@. . . . .   ",
"  . . . . . . . . . . . . . . . . . . . 8@9@0@a@b@c@d@e@f@g@O h@i@j@k@l@m@n@o@p@q@r@s@t@. . . . .   ",
"  . . . . u@v@w@w@w@w@x@y@z@. . . . . . . A@B@C@D@E@F@G@H@I@J@K@L@M@N@O@P@Q@R@S@T@U@. . . . . . .   ",
"  . . . . V@W@X@Y@Z@`@`@ #.#. . . . . . . . . +#@###$#%#&#*#=#-#;#C@>#,#'#  )#!#~#{#. . . . . . .   ",
"  . . . . ]#^#/#(#_#:#<#[#}#. . . . . . . . . |#1#2#3#4#5#6#7#8#9#0#a#b#c#d#. . . . . . . . . . .   ",
"  . . . . e#f#f#f#f#f#f#f#g#. . . . . . . . . h#i#j#k#l#k#m#n#o#p#q#r#s#t#u#. . . . . . . . . . .   ",
"  . . . . v#w#x#y#z#z#A#B#C#. . . . . . . . D#E#F#G#H#I#J#K#K#L#M#N#O#P#Q#R#S#. . . . . . . . . .   ",
"  . . . . T#U#V#V#W#V#V#U#T#. . . . . . . X#Y#Z#`# $.$+$@$#$$$%$&$*$ $=$-$;$>$. . . . . . . . . .   ",
"  . . . . . ,$'$)$!$~${$]$. . . . . . . . ^$/$($_$:$<$[$}$|$1$|$2$[$@$:$<$3$4$5$. . . . . . . . .   ",
"  . . . . 6$7$8$9$0$9$a$7$b$. . . . . . c$d$e$f$g$h$i$ @@$j$j$j$k$ @l$m$k$n$o$p$. . . . . . . . .   ",
"  . . . . q$r$s$t$t$t$u$v$w$. . . . . . x$y$z$A$B$C$D$E$F$G$H$ $I$J$K$L$M$N$O$P$Q$. . . . . . . .   ",
"  . . . . . . R$S$T$U$V$. . . . . . . W$X$Y$Z$`$ %.%+%@%#%$%%%&%*%=%-%;%>%,%'%)%!%. . . . . . . .   ",
"  . . . . . . ~%{%. ]%^%. . . . . . . . . /%(%_%:%:%<%[%}%|%1%2%3%4%:%:%5%6%t@7%. . . . . . . . .   ",
"  . . . . . . . . . . . . . . . . . . 8%9%0%a%b%:%:%:%c%. d%e%f%g%:%:%:%h%i%j%k%l%. . . . . . . .   ",
"  . . . . . . . . . . . . . . . . . . m%n%o%p%q%r%s%t%. . u%0%v%w%x%y%z%A%B%C%D%E%F%. . . . . . .   ",
"  . . . . . . . . . . . . . . . . . . G%H%I%J%. . . . . K%L%M%N%O%. . . . . P%Q%R%S%. . . . . . .   ",
"  . . . . . . . . . . . . . . . . . . . T%U%. . . . . . V%W%X%Y%Z%. . . . . . `% &. . . . . . . .   ",
"  . . . . . . . . . . . . . . . . . . . . . . . . . . . . .&+&. . . . . . . . . . . . . . . . . .   ",
"                                                                                                    "};
