/* XPM */
static char * skingauche_xpm[] = {
"38 50 256 2",
"  	c #99ACAB",
". 	c #C8EBF7",
"+ 	c #D0DADA",
"@ 	c #FFFFCC",
"# 	c #FFFFFF",
"$ 	c #72765F",
"% 	c #B07D41",
"& 	c #D4EDFA",
"* 	c #D3A56F",
"= 	c #55BCE0",
"- 	c #FFFFFF",
"; 	c #000000",
"> 	c #60D3FB",
", 	c #878A71",
"' 	c #926735",
") 	c #7D582D",
"! 	c #010000",
"~ 	c #FFFFFF",
"{ 	c #BDBFC4",
"] 	c #E8EDEA",
"^ 	c #FFFFFF",
"/ 	c #3E8391",
"( 	c #D4EFF8",
"_ 	c #050000",
": 	c #86FFFF",
"< 	c #010102",
"[ 	c #030201",
"} 	c #81A8A9",
"| 	c #BEB79C",
"1 	c #FBFCEC",
"2 	c #040303",
"3 	c #020001",
"4 	c #F4F1E0",
"5 	c #FFFFFF",
"6 	c #FEFEFE",
"7 	c #FFFFFF",
"8 	c #050404",
"9 	c #FFFFFF",
"0 	c #CEEDF7",
"a 	c #FFFFFF",
"b 	c #020304",
"c 	c #FFFFFF",
"d 	c #FFFFFF",
"e 	c #050505",
"f 	c #FEFEFD",
"g 	c #FAFFFA",
"h 	c #FFFFFF",
"i 	c #070707",
"j 	c #869592",
"k 	c #060706",
"l 	c #020303",
"m 	c #FFFFFF",
"n 	c #FFFFFF",
"o 	c #869F9F",
"p 	c #FFFFFF",
"q 	c #4DABCB",
"r 	c #000000",
"s 	c #FFFFFF",
"t 	c #0494BE",
"u 	c #FFFFFF",
"v 	c #020100",
"w 	c #020201",
"x 	c #597575",
"y 	c #020201",
"z 	c #7A7F86",
"A 	c #FFFFFE",
"B 	c #020201",
"C 	c #387B90",
"D 	c #956B38",
"E 	c #7A8C8B",
"F 	c #41240A",
"G 	c #FFFFFF",
"H 	c #DF8D14",
"I 	c #82878C",
"J 	c #FFFFFF",
"K 	c #FFFFFE",
"L 	c #6F7A7A",
"M 	c #C1CAC9",
"N 	c #346F81",
"O 	c #FFFFFA",
"P 	c #C2E0EA",
"Q 	c #000000",
"R 	c #FFFFFF",
"S 	c #B2B9BA",
"T 	c #545241",
"U 	c #585D4E",
"V 	c #616554",
"W 	c #A9783D",
"X 	c #A1B3B4",
"Y 	c #9ADFFD",
"Z 	c #5CCDF1",
"` 	c #888E93",
" .	c #456769",
"..	c #A3E1FE",
"+.	c #704E28",
"@.	c #A3A7A8",
"#.	c #1D373D",
"$.	c #BCD9E2",
"%.	c #E3E2D4",
"&.	c #CDD4D2",
"*.	c #AEC9D1",
"=.	c #718484",
"-.	c #7BD9FC",
";.	c #FFFFFF",
">.	c #B8D1D8",
",.	c #D19F69",
"'.	c #90DDFD",
").	c #989EA1",
"!.	c #6C6F5E",
"~.	c #6DD6FB",
"{.	c #91A3A4",
"].	c #ACB0B2",
"^.	c #85DBFD",
"/.	c #4BC5ED",
"(.	c #6E6A55",
"_.	c #96A8A8",
":.	c #A5A08A",
"<.	c #315D67",
"[.	c #A5C1C7",
"}.	c #91969B",
"|.	c #88602F",
"1.	c #BB6511",
"2.	c #1AA3CC",
"3.	c #2DAFD8",
"4.	c #FFFFFF",
"5.	c #F2EDD8",
"6.	c #3CBAE3",
"7.	c #F9FDFE",
"8.	c #5C6D6C",
"9.	c #321D0B",
"0.	c #B5C0BF",
"a.	c #1F190F",
"b.	c #E3E8E6",
"c.	c #4BA3BF",
"d.	c #499AB1",
"e.	c #FFFFFF",
"f.	c #71410A",
"g.	c #5BC5E5",
"h.	c #A1B9BF",
"i.	c #53B8D9",
"j.	c #464232",
"k.	c #FFFFFF",
"l.	c #FFFFFF",
"m.	c #46321B",
"n.	c #CF8116",
"o.	c #312E24",
"p.	c #DED9C9",
"q.	c #D8E0DF",
"r.	c #7B7C68",
"s.	c #ACE2FD",
"t.	c #F6F6ED",
"u.	c #316A78",
"v.	c #BF7413",
"w.	c #5C4425",
"x.	c #9E7139",
"y.	c #4393AB",
"z.	c #BA915F",
"A.	c #DEE4E3",
"B.	c #68E3F2",
"C.	c #FFFFFF",
"D.	c #DDF2FA",
"E.	c #CFCFC6",
"F.	c #B4E5FE",
"G.	c #200F05",
"H.	c #26251E",
"I.	c #6FEEF9",
"J.	c #A65A0F",
"K.	c #705D40",
"L.	c #B4AD94",
"M.	c #FBFAF7",
"N.	c #CFE6F2",
"O.	c #1D1811",
"P.	c #C5E7F1",
"Q.	c #EFF9FD",
"R.	c #E79C25",
"S.	c #C69964",
"T.	c #526164",
"U.	c #638C91",
"V.	c #86826B",
"W.	c #989888",
"X.	c #7C837B",
"Y.	c #FBC483",
"Z.	c #769A9D",
"`.	c #938F7C",
" +	c #50595A",
".+	c #395354",
"++	c #E4F6FC",
"@+	c #557C84",
"#+	c #312B21",
"$+	c #CDC7B1",
"%+	c #93A1A5",
"&+	c #44493F",
"*+	c #D2945E",
"=+	c #C0E7FE",
"-+	c #394344",
";+	c #030201",
">+	c #468C9E",
",+	c #677679",
"'+	c #FFFFCF",
")+	c #738185",
"!+	c #92B0B9",
"~+	c #553C1E",
"{+	c #495A5E",
"]+	c #BB8A48",
"^+	c #917754",
"/+	c #808D91",
"(+	c #FDFED8",
"_+	c #FEFDCC",
":+	c #FEFED5",
"<+	c #58B2D1",
"[+	c #95AAB2",
"}+	c #A88358",
"|+	c #FFFFD0",
"1+	c #8C4F10",
"2+	c #535342",
"3+	c #636968",
"4+	c #FCE981",
"5+	c #BABEBB",
"6+	c #CACF3C",
"7+	c #623E19",
"8+	c #75C2D4",
"9+	c #394E54",
"0+	c #81888B",
"a+	c #F4D367",
"b+	c #A96A15",
"c+	c #FEFEDF",
"d+	c #E9B95F",
"e+	c #676657",
"f+	c #7A4B16",
"g+	c #778486",
"h+	c #6B7576",
"i+	c #8B9A9E",
"j+	c #0E7A9A",
"k+	c #F2AB24",
"l+	c #B9C6C8",
"m+	c #9A9998",
"n+	c #B4BDBD",
"o+	c #2C5F70",
"p+	c #D1834F",
"q+	c #3F8CA5",
"r+	c #0D88AE",
"s+	c #73C0B0",
"t+	c #7B8081",
"u+	c #7E7B76",
"v+	c #5BB8C1",
"w+	c #8E5513",
"x+	c #96C77F",
"y+	c #C7C7C7",
"z+	c #D0AF53",
"A+	c #37798E",
"B+	c #A7F1AE",
"C+	c #B1AFAB",
"D+	c #9D784C",
"E+	c #D2EBF1",
"F+	c #A4AE3E",
"G+	c #47704C",
":.:.:.:.:.:.:.:.:.:.:.:.:.:.:.:.:.:.:.:.:.:.:.:.:.:.:.:.:.:.:.:.:.:.:.:.:.:.",
":.V.V.V.V.V.V.V.V.V.V.V.V.V.V.V.V.V.V.V.V.V.V.V.V.V.V.V.V.V.V.V.V.V.V.V.V.:.",
":.V.V.V.V.V.V.V.V.V.V.V.V.V.V.V.V.V.V.V.V.V.V.V.V.V.V.V.V.V.V.V.V.V.V.V.V.:.",
":.V.V.V.V.V.V.V.V.V.V., W.5.5.p.p.5.:.`.V.V.V.V.V.V.V.V.V.V.V.V.V.V.V.V.V.:.",
":.V.V.V.V.V.V.V.V.V.`.p._+$+:.V.V.:.$+$+| `.V.V.V.V.V.V.V.V.V.V.V.V.V.V.V.:.",
":.V.V.V.V.V.V.V.V.V.L.|+_+V.V.V.V.V.V., p.p., V.V.V.V.V.V.V.V.V.V.V.V.V.V.:.",
":.V.V.V.V.V.V.V.V.V.V.$+_+E., , V.V., , $+_+, V.V.V.V.V.V.V.V.V.V.V.V.V.V.:.",
":.V.V.V.V.V.V.V.V.V.V.V.p.|+|+:+L.L.5._+p.:.V.V.V.V.V.V.V.V.V.V.V.V.V.V.V.:.",
":.V.V.V.V.V.V.V.V.V.V.V.V.| ] ] t.t.5.| r.V.V.V.V.V.V.V.V.V.V.V.V.V.V.V.V.:.",
":.V.V.V.V.V.V.V.V.V.V.V., P ( ( ( ( N.[.V.V.V.V.V.V.V.V.V.V.V.V.V.V.V.V.V.:.",
":.V.V.V.V.V.V.V.V.V.V.V.$.Q.Q.Q.++D.( P *.).W.V.V.V.V.V.V.V.V.V.V.V.V.V.V.:.",
":.V.V.V.V.V.V.V.V.V.V.V.N.] ] Q.b.N.N.P.h.*.P ).V.V.V.V.V.V.V.V.V.V.V.V.V.:.",
":.V.V.V.V.V.V.V.V.V.V.V.[.].M 0.&.*.>.P.[.  *.P m+V.V.V.V.V.V.V.V.V.V.V.V.:.",
":.V.V.V.V.V.V.V.V.V.V.V., `.`.m+`.).*.>.h._.X $.).V.V.V.V.V.V.V.V.V.V.V.V.:.",
":.V.V.V.V.V.V.V.V.V.V.V.V.:.W }+}+W.S C+  _.  h.W.V.V.V.V.V.V.V.V.V.V.V.V.:.",
":.V.V.V.V.V.V.V.V.V.V.V.V.S.S.| `.).}+:.    {.{., V.V.V.V.V.V.V.V.V.V.V.V.:.",
":.V.V.V.V.V.V.V.V.V.V.V.V.S.,.,.`.h._.{.{._.{.E [.`.V.V.V.V.V.V.V.V.V.V.V.:.",
":.V.V.V.V.V.V.V.V.V.V.V.V.V.z.z.}+V.V.V.` j i+_.  *.V.V.V.V.V.V.V.V.V.V.V.:.",
":.V.V.V.V.V.V.V.V.V.V.V.V.^+K.x.^+r.V.V.W.        X _.V.V.V.V.V.V.V.V.V.V.:.",
":.V.V.V.V.V.V.V.V.V.V.V., S.D+% ^+z.S.V.j           h.V.V.V.V.V.V.V.V.V.V.:.",
":.V.V.V.V.V.V.V.V.V.V.V.: : ^.| :.S.,.S.j         {.V.V.V.V.V.V.V.V.V.V.V.:.",
":.V.V.V.V.V.V.V.V.V.V.V.B.: : I.i.X.S.,.@.@.  _.{.X ).V.V.V.V.V.V.V.V.V.V.:.",
":.V.V.V.V.V.V.V.V.V.V.V., v+v+<+d.^+}+L.&.&._.Z.U.*.l+V.V.V.V.V.V.V.V.V.V.:.",
":.V.V.V.V.V.V.V.V.V.V.^+^+i.q c.d.v+`.  + &.+ {.o >.>.V.V.V.V.V.V.V.V.V.V.:.",
":.V.V.V.V.V.V.V.V.V.V.^+^+j !+} } !+:.0.+ &.M >.S [.*.V.V.V.V.V.V.V.V.V.V.:.",
":.V.V.V.V.V.V.V.V.V.V.^+, `.S.S.% L.@.q.+ $.Y *.>.$.W.V.V.V.V.V.V.V.V.V.V.:.",
":.V.V.V.V.V.V.V.V.V.V.' @.@.5+L.| ).X 0.[.s.=+..>.l+V.V.V.V.V.V.V.V.V.V.V.:.",
":.V.V.V.V.V.V.V.V.V.V.' @.m+W.$.>.E l++ $...Q.++8+M V.V.V.V.V.V.V.V.V.V.V.:.",
":.V.V.V.V.V.V.V.V.V.V.V.L.5+E.+ l+o &.&.*.=+Q.++^.[.V.V.V.V.V.V.V.V.V.V.V.:.",
":.V.V.V.V.V.V.V.V.V.V.V.L.L.5.t.b.0.&.>.8+F.0 F.~.[.V.V.V.V.V.V.V.V.V.V.V.:.",
":.V.V.V.V.V.V.V.V.V.V.V.:.$+5.5.E.@.h.8+c.'.'.~.Z [.V.V.V.V.V.V.V.V.V.V.V.:.",
":.V.V.V.V.V.V.V.V.V.V.V.V.W.L.:.L.j l+[.t 2.6./.g.n+V.V.V.V.V.V.V.V.V.V.V.:.",
":.V.V.V.V.V.V.V.V.V.V.V.V.$ ) $ L., M M q /.Z g.[.W.V.V.V.V.V.V.V.V.V.V.V.:.",
":.V.V.V.V.V.V.V.V.V.V.V.V.r.) K.X.`.S &.>.8+!+M M , V.V.V.V.V.V.V.V.V.V.V.:.",
":.V.V.V.V.V.V.V.V.V.V.V.V.K.K.(.E * `.&.&.n+M M `.V.V.V.V.V.V.V.V.V.V.V.V.:.",
":.V.V.V.V.V.V.V.V.V.V.V.V.(.U !.Z.L.% W.n+l+n+`.V.V.V.V.V.V.V.V.V.V.V.V.V.:.",
":.V.V.V.V.V.V.V.V.V.V.V.V.$ V $ Z.{.% }+Z.8+v+}+V.V.V.V.@+V.V.V.V.V.V.V.V.:.",
":.V.V.V.V.V.V.V.V.V.V.V.V.(.e+$ V.`.}+S @.}+% ]+}+V.`.5+l+5+`.V., V.V.V.V.:.",
":.V.V.V.V.V.V.V.V.V.W.l+h.U !.$ `.).r.>.n+V.x X.V.`.%.A # t.].} 8+V.V.V.V.:.",
":.V.V.V.V.V.V.V.V.V.@.& $.$ $ !., ` ^+X.`.V.C Z.V.`.+ 4 t.t.S d.Z.V.V.V.V.:.",
":.V.V.V.V.V.V.V.V.V.,   }.$ r.V.V.(.$ X.`.V.^+`.}+@.n+l+l+{ @.g+V.V.V.V.V.:.",
":.V.V.V.V.V.V.V.V.V.V.V.V.V.V.V.V.V.@.h.@.V.D+]+z.@.>.[.[.[.).V.V.V.V.V.V.:.",
":.V.V.V.V.V.V.V.V.V.V.V.V.V.V.V.V.@.{.}.0., V.^+V.W.0.C+M 8+`.V.V.V.V.V.V.:.",
":.V.V.V.V.V.V.V.V.V.V.V.V.V.V.V.V.l+& N.>.`.V.V.V.V.m+[.[._., V.V.V.V.V.V.:.",
":.V.V.V.V.V.V.V.V.V.V.V.V.V.V.V.V.S E+P ].V.V.V.V.V.W.[.!+Z.X.V.V.V.V.V.V.:.",
":.V.V.V.V.V.V.V.V.V.V.V.V.V.V.V.V., m+W., V.V.V.V.V.C+] q.v+Z.V.V.V.V.V.V.:.",
":.V.V.V.V.V.V.V.V.V.V.V.V.V.V.V.V.V.V.V.V.V.V.V.V.V.L.%.S g+Z.X.V.V.V.V.V.:.",
":.V.V.V.V.V.V.V.V.V.V.V.V.V.V.V.V.V.V.V.V.V.V.V.V.V.r.r.{+x V.V.V.V.V.V.V.:.",
":.V.V.V.V.V.V.V.V.V.V.V.V.V.V.V.V.V.V.V.V.V.V.V.V.V.V.V.!.L V.V.V.V.V.V.V.:.",
":.:.:.:.:.:.:.:.:.:.:.:.:.:.:.:.:.:.:.:.:.:.:.:.:.:.:.:.:.:.:.:.:.:.:.:.:.:."};
