/* XPM */
static char * skindroite_xpm[] = {
"50 50 587 2",
"  	c #A39E8E",
". 	c #8D8662",
"+ 	c #FFFFDD",
"@ 	c #FFFFD6",
"# 	c #FFFFD4",
"$ 	c #FFFFD5",
"% 	c #FFFFD8",
"& 	c #FFFFD0",
"* 	c #FFFFD3",
"= 	c #FFFFDC",
"- 	c #FFFFCD",
"; 	c #FFFFCF",
"> 	c #FFFFD7",
", 	c #FFFFCC",
"' 	c #FFFFD1",
") 	c #EEF0CF",
"! 	c #FFFFDE",
"~ 	c #F8F9D1",
"{ 	c #EEF3D9",
"] 	c #FFFFD9",
"^ 	c #FFFFD2",
"/ 	c #FFFFCE",
"( 	c #D7EAE6",
"_ 	c #E2EDD9",
": 	c #E4ECD2",
"< 	c #EEF8DF",
"[ 	c #EFF9E0",
"} 	c #EDF8E1",
"| 	c #EAF7E4",
"1 	c #E3F0E1",
"2 	c #C6E2EA",
"3 	c #C3DEE6",
"4 	c #CCE9F2",
"5 	c #D1EEF7",
"6 	c #D8F0F8",
"7 	c #DBF1F9",
"8 	c #CDEBF5",
"9 	c #B4D0D7",
"0 	c #C3E3EC",
"a 	c #D3EEF7",
"b 	c #E2F4FA",
"c 	c #ECF8FB",
"d 	c #EDF8FC",
"e 	c #EAF7FB",
"f 	c #F2FAFD",
"g 	c #F4FBFD",
"h 	c #EBF7FB",
"i 	c #C7EAF5",
"j 	c #AAC5CA",
"k 	c #94A7A6",
"l 	c #A9C5CC",
"m 	c #C8EBF6",
"n 	c #CCEAF4",
"o 	c #C6DEE5",
"p 	c #BFDCE3",
"q 	c #DDF1F7",
"r 	c #F6FCFD",
"s 	c #EFF1F0",
"t 	c #ECF0F1",
"u 	c #E3ECEE",
"v 	c #E6F1F5",
"w 	c #C6E9F4",
"x 	c #A7C0C5",
"y 	c #99ACAB",
"z 	c #B6D5DE",
"A 	c #C7E9F4",
"B 	c #B7D4DC",
"C 	c #B7CFD4",
"D 	c #C8D8DC",
"E 	c #BECDCF",
"F 	c #A7BBBD",
"G 	c #CBDBDE",
"H 	c #B5A99C",
"I 	c #BBBEBA",
"J 	c #AEC6CC",
"K 	c #AFCBD1",
"L 	c #96A9A8",
"M 	c #ADC8CD",
"N 	c #BDDCE5",
"O 	c #B1CED5",
"P 	c #98ABAA",
"Q 	c #928C7E",
"R 	c #9D9586",
"S 	c #A6A096",
"T 	c #967A5B",
"U 	c #A2988B",
"V 	c #837158",
"W 	c #808E8C",
"X 	c #9BAFAE",
"Y 	c #93A6A5",
"Z 	c #9AADAD",
"` 	c #B1A898",
" .	c #C5BFB3",
"..	c #A5B2B0",
"+.	c #92826F",
"@.	c #96774E",
"#.	c #948369",
"$.	c #836039",
"%.	c #B38045",
"&.	c #A4957F",
"*.	c #778583",
"=.	c #8C8562",
"-.	c #92A9AC",
";.	c #90A3A2",
">.	c #9A8E7C",
",.	c #A3743E",
"'.	c #A8927B",
").	c #99AAAB",
"!.	c #A39076",
"~.	c #D3C7AE",
"{.	c #B79D7E",
"].	c #D3A56F",
"^.	c #CEA071",
"/.	c #B4D1D7",
"(.	c #869E9F",
"_.	c #67878D",
":.	c #92A5A4",
"<.	c #95A7A6",
"[.	c #94A09E",
"}.	c #AFC5CA",
"|.	c #9BABAA",
"1.	c #AF8153",
"2.	c #D2935E",
"3.	c #D29C67",
"4.	c #CC9F6A",
"5.	c #B68D5F",
"6.	c #B8D6DD",
"7.	c #96AAA9",
"8.	c #83999A",
"9.	c #779092",
"0.	c #90A2A1",
"a.	c #9F8262",
"b.	c #BD905D",
"c.	c #BE9565",
"d.	c #B49467",
"e.	c #8D8661",
"f.	c #BCDDE6",
"g.	c #9CB0B1",
"h.	c #A87943",
"i.	c #A8773E",
"j.	c #614E36",
"k.	c #59513C",
"l.	c #91A3A2",
"m.	c #C79B68",
"n.	c #CEA16C",
"o.	c #978060",
"p.	c #7F6D52",
"q.	c #B87E32",
"r.	c #AA783E",
"s.	c #AE7C4A",
"t.	c #BD996A",
"u.	c #889C86",
"v.	c #93A09B",
"w.	c #92A4A3",
"x.	c #A78E6E",
"y.	c #CE9D58",
"z.	c #C79761",
"A.	c #AA8D71",
"B.	c #B4937C",
"C.	c #CC9C67",
"D.	c #88E7E2",
"E.	c #8CF0E4",
"F.	c #87FFFF",
"G.	c #85FAFA",
"H.	c #898F74",
"I.	c #A8BCBB",
"J.	c #A5BEC3",
"K.	c #95A7A7",
"L.	c #A5AEAA",
"M.	c #AAABA0",
"N.	c #BAB7A8",
"O.	c #C79964",
"P.	c #CA9C65",
"Q.	c #957047",
"R.	c #509BB2",
"S.	c #5CC5E4",
"T.	c #84FBFD",
"U.	c #8CFAF4",
"V.	c #7FF4F9",
"W.	c #7AEBF1",
"X.	c #889178",
"Y.	c #BDDDE7",
"Z.	c #9EB9BE",
"`.	c #61848A",
" +	c #7B9395",
".+	c #7F989A",
"++	c #95A7A8",
"@+	c #C2CCCA",
"#+	c #D9DFDD",
"$+	c #CDD6D5",
"%+	c #BBA587",
"&+	c #B98B56",
"*+	c #B78B4A",
"=+	c #6B797A",
"-+	c #4BA5C1",
";+	c #51B1CF",
">+	c #59BAD0",
",+	c #66AEB5",
"'+	c #51A2B9",
")+	c #836D59",
"!+	c #867955",
"~+	c #D0EDF6",
"{+	c #B6D5DD",
"]+	c #8FA3A3",
"^+	c #7E999D",
"/+	c #97AAAC",
"(+	c #DCE2E0",
"_+	c #CBD6D6",
":+	c #CFDADA",
"<+	c #CAD7D6",
"[+	c #86A29E",
"}+	c #8F7356",
"|+	c #7BB2C2",
"1+	c #619BA7",
"2+	c #499EB7",
"3+	c #499FB7",
"4+	c #4DA8C5",
"5+	c #5FBBD6",
"6+	c #57BCDE",
"7+	c #87795D",
"8+	c #8B6538",
"9+	c #C1E3ED",
"0+	c #A5BDC1",
"a+	c #9DAFAE",
"b+	c #C3D2D4",
"c+	c #C4D5DC",
"d+	c #C2CCCB",
"e+	c #C3CFCF",
"f+	c #CDD8D8",
"g+	c #D1D9D8",
"h+	c #B5C5C3",
"i+	c #B19C74",
"j+	c #86BCC5",
"k+	c #80B0AD",
"l+	c #8E9B93",
"m+	c #81A4AA",
"n+	c #74A6B7",
"o+	c #89A5A6",
"p+	c #7D8982",
"q+	c #8F6940",
"r+	c #906634",
"s+	c #89815D",
"t+	c #AECBD3",
"u+	c #BFDEE7",
"v+	c #CBD6D4",
"w+	c #95C6DA",
"x+	c #90D0ED",
"y+	c #95CADF",
"z+	c #9DDDF9",
"A+	c #B5CAD0",
"B+	c #D7DEDC",
"C+	c #CFD7D5",
"D+	c #8DA8A6",
"E+	c #CFC9C3",
"F+	c #AC7D48",
"G+	c #B17E42",
"H+	c #CFA06A",
"I+	c #D2A46E",
"J+	c #C49763",
"K+	c #9C9185",
"L+	c #9D836D",
"M+	c #926735",
"N+	c #867551",
"O+	c #C1D2D4",
"P+	c #CBD6D7",
"Q+	c #81BDD5",
"R+	c #BAE6FA",
"S+	c #C2EAFE",
"T+	c #B6E7FD",
"U+	c #9DC6D4",
"V+	c #B3C1C1",
"W+	c #B7C4C4",
"X+	c #9FB9B8",
"Y+	c #93A3A1",
"Z+	c #ADA296",
"`+	c #BFAEA1",
" @	c #B9A695",
".@	c #C2BAB3",
"+@	c #BAAEA3",
"@@	c #A5A5A4",
"#@	c #A7AEB0",
"$@	c #886A40",
"%@	c #D0D9D8",
"&@	c #7ABAD5",
"*@	c #B4E6FD",
"=@	c #FFFFFF",
"-@	c #EEF9FF",
";@	c #A0E0FD",
">@	c #82D4F6",
",@	c #BECDD0",
"'@	c #C0D0CF",
")@	c #799B9B",
"!@	c #83857A",
"~@	c #C3D8E2",
"{@	c #C7DCE7",
"]@	c #755840",
"^@	c #A3917E",
"/@	c #9A9795",
"(@	c #A7ADAD",
"_@	c #835E33",
":@	c #847450",
"<@	c #ACC7D1",
"[@	c #62D1F9",
"}@	c #BDE9FD",
"|@	c #F3FAFF",
"1@	c #EDF8FF",
"2@	c #D1EDFE",
"3@	c #95DCFB",
"4@	c #9AB9C7",
"5@	c #D1DCDB",
"6@	c #83A9A9",
"7@	c #919990",
"8@	c #C6D8DE",
"9@	c #CADDE5",
"0@	c #CCDADB",
"a@	c #DAD9C3",
"b@	c #BABDB4",
"c@	c #B6AF96",
"d@	c #9EC8D9",
"e@	c #61D3FB",
"f@	c #89DCFC",
"g@	c #D9F2FE",
"h@	c #D2EEFE",
"i@	c #B7E4FE",
"j@	c #9EDFFC",
"k@	c #569FBF",
"l@	c #BCDAE8",
"m@	c #CBD7D8",
"n@	c #99B7B6",
"o@	c #CFD7CA",
"p@	c #F4F4E3",
"q@	c #F8F8E8",
"r@	c #FBFCEC",
"s@	c #D1D0C1",
"t@	c #A19A84",
"u@	c #BFB897",
"v@	c #AAC6D0",
"w@	c #56CCF4",
"x@	c #5ECDF3",
"y@	c #7BD4F7",
"z@	c #94DBFA",
"A@	c #98D8F6",
"B@	c #62B5D8",
"C@	c #1A8FB5",
"D@	c #6DBCDA",
"E@	c #A5BBC1",
"F@	c #9DB3B2",
"G@	c #A0A99D",
"H@	c #DFDDC9",
"I@	c #E7E6D3",
"J@	c #EAE9D7",
"K@	c #F6F6DF",
"L@	c #CAC7B1",
"M@	c #A69F81",
"N@	c #8C8662",
"O@	c #B6C2C2",
"P@	c #5BC0E3",
"Q@	c #59CEF6",
"R@	c #43BEE7",
"S@	c #2BAED7",
"T@	c #17A0C9",
"U@	c #0897C1",
"V@	c #278FB4",
"W@	c #BECCCC",
"X@	c #C8D4D4",
"Y@	c #94A4A3",
"Z@	c #868A7C",
"`@	c #B2AB90",
" #	c #B0A789",
".#	c #B8B098",
"+#	c #A8A188",
"@#	c #A7AA9F",
"##	c #94BFD0",
"$#	c #5FBFE1",
"%#	c #5ECFF7",
"&#	c #54CAF2",
"*#	c #45BFE7",
"=#	c #3DB7E0",
"-#	c #579CB4",
";#	c #C9D5D5",
">#	c #788B8A",
",#	c #9D7D58",
"'#	c #BCB4A2",
")#	c #806D57",
"!#	c #7E582D",
"~#	c #BEC7C5",
"{#	c #C5D2D2",
"]#	c #BACBCE",
"^#	c #7AAFBF",
"/#	c #70B8D1",
"(#	c #B6CED7",
"_#	c #CCD4D2",
":#	c #CCD5D4",
"<#	c #B9C4C4",
"[#	c #747A71",
"}#	c #C49E6F",
"|#	c #5B8185",
"1#	c #695A48",
"2#	c #BEC7C4",
"3#	c #C6D3D3",
"4#	c #AABCBC",
"5#	c #BAC6C5",
"6#	c #D6DCDA",
"7#	c #D2D9D7",
"8#	c #73817E",
"9#	c #DBAF7A",
"0#	c #C2B69A",
"a#	c #64847E",
"b#	c #706B53",
"c#	c #775C39",
"d#	c #77552F",
"e#	c #B69986",
"f#	c #AFC4CB",
"g#	c #C1CFCF",
"h#	c #A2B5B7",
"i#	c #C0CECF",
"j#	c #8D7C68",
"k#	c #A67946",
"l#	c #B7854C",
"m#	c #7EB2B1",
"n#	c #688682",
"o#	c #71755E",
"p#	c #6D705A",
"q#	c #514631",
"r#	c #AE8E53",
"s#	c #92766B",
"t#	c #50B1D2",
"u#	c #5CCDE5",
"v#	c #62B5C8",
"w#	c #7A7F73",
"x#	c #AF7C41",
"y#	c #B07D41",
"z#	c #A97E4F",
"A#	c #67C9DB",
"B#	c #6C8688",
"C#	c #6F735C",
"D#	c #6B6E59",
"E#	c #584E38",
"F#	c #99978E",
"G#	c #C4C4C3",
"H#	c #C5CDD2",
"I#	c #C1C8CA",
"J#	c #A6A291",
"K#	c #8C8561",
"L#	c #D6A44E",
"M#	c #C48230",
"N#	c #C27A24",
"O#	c #C47C1E",
"P#	c #949888",
"Q#	c #B3C3C5",
"R#	c #B8B2AC",
"S#	c #AE804D",
"T#	c #91744D",
"U#	c #9A9E9E",
"V#	c #80694E",
"W#	c #72765F",
"X#	c #6F735D",
"Y#	c #565745",
"Z#	c #525140",
"`#	c #72D7E3",
" $	c #7BA9A6",
".$	c #8D9197",
"+$	c #D8D9DC",
"@$	c #FEFDFD",
"#$	c #DAD8D2",
"$$	c #6C8889",
"%$	c #336D78",
"&$	c #8C958C",
"*$	c #CBE2EE",
"=$	c #BBCFD9",
"-$	c #7F6D5B",
";$	c #8C8F8B",
">$	c #BDD3DE",
",$	c #646853",
"'$	c #6A6E58",
")$	c #666853",
"!$	c #504735",
"~$	c #A5B5BD",
"{$	c #C4D9E2",
"]$	c #ACB9B8",
"^$	c #5D97AA",
"/$	c #4DA7C5",
"($	c #8F969E",
"_$	c #EBECED",
":$	c #F6F5F3",
"<$	c #F7F6EF",
"[$	c #F2F0E7",
"}$	c #E9E7DD",
"|$	c #D1D1CE",
"1$	c #948159",
"2$	c #5197A9",
"3$	c #3F7781",
"4$	c #7E8169",
"5$	c #878B75",
"6$	c #808277",
"7$	c #7F5B32",
"8$	c #85989A",
"9$	c #8897A0",
"0$	c #686C57",
"a$	c #C4DBE4",
"b$	c #D4EDFA",
"c$	c #DBEEF8",
"d$	c #737B85",
"e$	c #8D9198",
"f$	c #B9BCC1",
"g$	c #BDBFC4",
"h$	c #AEBFCA",
"i$	c #ABBFCB",
"j$	c #A7B2B9",
"k$	c #CC9F50",
"l$	c #3E8696",
"m$	c #95673F",
"n$	c #83866D",
"o$	c #878A71",
"p$	c #6F6B57",
"q$	c #6B5B42",
"r$	c #736552",
"s$	c #88530E",
"t$	c #545746",
"u$	c #6C705A",
"v$	c #899389",
"w$	c #A2B2B2",
"x$	c #81897E",
"y$	c #787D85",
"z$	c #82878E",
"A$	c #B6B8BD",
"B$	c #9CC1D4",
"C$	c #ADC5C8",
"D$	c #A8ABA5",
"E$	c #A3C9D5",
"F$	c #CFD9D2",
"G$	c #8A9491",
"H$	c #BE7715",
"I$	c #995B10",
"J$	c #8B9181",
"K$	c #B9CBCF",
"L$	c #B7C9CD",
"M$	c #ADBEBF",
"N$	c #A07D63",
"O$	c #81868D",
"P$	c #A0A3A9",
"Q$	c #85C7E3",
"R$	c #CDD6D0",
"S$	c #D1C3AF",
"T$	c #7B9CA5",
"U$	c #C8CFC8",
"V$	c #C3CBC5",
"W$	c #8E9890",
"X$	c #BACED4",
"Y$	c #6E6F70",
"Z$	c #7D8286",
"`$	c #AEC3CD",
" %	c #818381",
".%	c #8C9097",
"+%	c #A7B1B7",
"@%	c #9DC2D3",
"#%	c #9FC1CF",
"$%	c #B6C7CE",
"%%	c #BAB9B4",
"&%	c #938E76",
"*%	c #A3B2B2",
"=%	c #CCE3EF",
"-%	c #D8EDF7",
";%	c #DAF0FA",
">%	c #5D99B0",
",%	c #6198B0",
"'%	c #6DA8C1",
")%	c #88BFD5",
"!%	c #A7D0DC",
"~%	c #8F8966",
"{%	c #C4D8E0",
"]%	c #D1E8F4",
"^%	c #DBF0FB",
"/%	c #CEE4EF",
"(%	c #54A0BA",
"_%	c #4DAACB",
":%	c #7BB0C7",
"<%	c #DBE7E3",
"[%	c #F4F0DF",
"}%	c #4CA7C8",
"|%	c #479BB9",
"1%	c #747F89",
"2%	c #AEB1B2",
"3%	c #DFDCD1",
"4%	c #E1DFD2",
"5%	c #31697D",
"6%	c #335462",
"                                                                                                    ",
"  . . . . . . . . . . . . . . . . . . . . . . . . . . . . . . . . . . . . . . . . . . . . . . . .   ",
"  . . . . . . . . . . . . . . . . . . . . . . . . . . . . . . . . . . . . . . . . . . . . . . . .   ",
"  . . . . . . . . . . . . . . . . . . . . . . . . + @ # $ $ # # % . . . . . . . . . . . . . . . .   ",
"  . . . . . . . . . . . . . . . . . . . . . . & * . . . . . . . = - ; . . . . . . . . . . . . . .   ",
"  . . . . . . . . . . . . . . . . . . . . > , = . . . . . . . . . $ , ' . . . . . . . . . . . . .   ",
"  . . . . . . . . . . . . . . . . . . . . ; , ) . . . . . . . . ! - - . . . . . . . . . . . . . .   ",
"  . . . . . . . . . . . . . . . . . . . . . ; , ; ~ { ! + ] ^ - / $ . . . . . . . . . . . . . . .   ",
"  . . . . . . . . . . . . . . . . . . . . . . ( _ : < [ } | 1 . . . . . . . . . . . . . . . . . .   ",
"  . . . . . . . . . . . . . . . . . . . . . . 2 3 4 5 5 5 6 7 8 . . . . . . . . . . . . . . . . .   ",
"  . . . . . . . . . . . . . . . . . . . . . . 9 0 a b c d e f g h . . . . . . . . . . . . . . . .   ",
"  . . . . . . . . . . . . . . . . . . . i j k l m n o p q r s t u v . . . . . . . . . . . . . . .   ",
"  . . . . . . . . . . . . . . . . . . w x y y z A B C D E F G H I J . . . . . . . . . . . . . . .   ",
"  . . . . . . . . . . . . . . . . . . K y L y M N O P Q R S T U V W . . . . . . . . . . . . . . .   ",
"  . . . . . . . . . . . . . . . . . M X L Y y Z `  ...+.@.#.$.%.&.*.=.. . . . . . . . . . . . . .   ",
"  . . . . . . . . . . . . . . . . . -.P ;.y y y >.,.'.).!.~.{.].^.. . . . . . . . . . . . . . . .   ",
"  . . . . . . . . . . . . . . . . /.(._.:.y <.:.Y [.}.|.1.2.3.4.5.. . . . . . . . . . . . . . . .   ",
"  . . . . . . . . . . . . . . . 6.y y 7.8.9.;.0.. . . . a.b.c.d.e.. . . . . . . . . . . . . . . .   ",
"  . . . . . . . . . . . . . . f.g.y y y y y y Y . . . . h.i.j.k.. . . . . . . . . . . . . . . . .   ",
"  . . . . . . . . . . . . . . 6.l.y y y y y y 0.. m.n.o.p.q.r.s.t.u.. . . . . . . . . . . . . . .   ",
"  . . . . . . . . . . . . . . v.w.y P y y y <.x.y.].z.A.B.C.D.E.F.G.H.. . . . . . . . . . . . . .   ",
"  . . . . . . . . . . . . . . I.J.K.w.k y L.M.N.O.P.Q.R.S.T.F.U.V.W.X.. . . . . . . . . . . . . .   ",
"  . . . . . . . . . . . . . . Y.Z.`. +.+++@+#+$+%+&+*+=+-+;+>+,+'+)+!+. . . . . . . . . . . . . .   ",
"  . . . . . . . . . . . . . . ~+{+]+^+/+(+_+:+<+[+}+|+1+2+3+4+5+6+7+8+. . . . . . . . . . . . . .   ",
"  . . . . . . . . . . . . . . 9+0+a+b+c+d+e+f+g+h+i+j+k+l+m+n+o+p+q+r+s+. . . . . . . . . . . . .   ",
"  . . . . . . . . . . . . . . t+u+v+w+x+y+z+A+B+C+D+E+F+G+H+I+J+K+L+M+N+. . . . . . . . . . . . .   ",
"  . . . . . . . . . . . . . . . O+P+Q+R+S+T+U+V+W+X+Y+Z+`+ @.@+@@@#@M+$@. . . . . . . . . . . . .   ",
"  . . . . . . . . . . . . . . . %@&@*@=@-@;@>@,@:+'@)@!@~@{@]@^@/@(@_@:@. . . . . . . . . . . . .   ",
"  . . . . . . . . . . . . . . . <@[@}@|@1@2@3@4@:+5@6@7@8@9@0@a@b@c@. . . . . . . . . . . . . . .   ",
"  . . . . . . . . . . . . . . . d@e@f@g@h@i@j@k@l@m@n@o@p@q@r@s@t@u@. . . . . . . . . . . . . . .   ",
"  . . . . . . . . . . . . . . . v@w@x@y@z@A@B@C@D@E@F@G@H@I@J@K@L@M@N@. . . . . . . . . . . . . .   ",
"  . . . . . . . . . . . . . . . O@P@Q@R@S@T@U@V@W@X@Y@Z@`@ #.#+#. . . . . . . . . . . . . . . . .   ",
"  . . . . . . . . . . . . . . . @###$#%#&#*#=#-#;#:+>#,#'#)#!#!#. . . . . . . . . . . . . . . . .   ",
"  . . . . . . . . . . . . . . . . ~#{#]#^#/#(#_#:#<#[#}#|#1#!#!#. . . . . . . . . . . . . . . . .   ",
"  . . . . . . . . . . . . . . . . . 2#:+3#4#5#6#7#8#9#0#a#b#c#d#. . . . . . . . . . . . . . . . .   ",
"  . . . . . . . . . . . . . . . . . . e#f#g#h#i#j#k#l#m#n#o#p#q#. . . . . . . . . . . . . . . . .   ",
"  . . . . . . . . . . . . . . . . . r#s#t#u#v#w#x#y#z#A#B#C#D#E#. . . . . . . . . . . . . . . . .   ",
"  . . . . . . . . . F#G#H#I#J#. . K#L#M#N#O#P#Q#R#S#T#U#V#W#X#Y#Z#. . . . . . . . . . . . . . . .   ",
"  . . . . . . `# $.$+$=@=@=@@$#$. . . $$%$. &$*$=$-$;$>$,$W#'$)$!$~${$]$. . . . . . . . . . . . .   ",
"  . . . . . =.^$/$($_$:$<$[$}$|$. . 1$2$3$. 4$5$6$7$8$9$. 0$o#W#W#a$b$c$. . . . . . . . . . . . .   ",
"  . . . . . . . d$e$f$g$h$i$g$j$. . k$l$m$. n$o$p$q$r$s$. . t$u$C#v$w$x$. . . . . . . . . . . . .   ",
"  . . . . . . . y$z$A$B$C$D$E$F$G$. . H$I$. J$K$L$M$N$. . . . . . . . . . . . . . . . . . . . . .   ",
"  . . . . . . . . O$P$Q$R$S$T$U$V$. . . . . W$X$Y$Z$`$. . . . . . . . . . . . . . . . . . . . . .   ",
"  . . . . . . . .  %.%+%@%#%$%%%&%. . . . . *%b$=%-%;%. . . . . . . . . . . . . . . . . . . . . .   ",
"  . . . . . . . . . >%,%'%)%!%~%. . . . . . . {%]%^%/%. . . . . . . . . . . . . . . . . . . . . .   ",
"  . . . . . . . . (%_%:%<%[%[%. . . . . . . . . . . . . . . . . . . . . . . . . . . . . . . . . .   ",
"  . . . . . . . . }%|%1%2%3%4%. . . . . . . . . . . . . . . . . . . . . . . . . . . . . . . . . .   ",
"  . . . . . . . . . . 5%6%. . . . . . . . . . . . . . . . . . . . . . . . . . . . . . . . . . . .   ",
"  . . . . . . . . . . . . . . . . . . . . . . . . . . . . . . . . . . . . . . . . . . . . . . . .   ",
"                                                                                                    "};
