/* XPM */
static char * skinface_xpm[] = {
"50 50 634 2",
"  	c #A39E8E",
". 	c #8D8662",
"+ 	c #FFFFD6",
"@ 	c #FFFFD3",
"# 	c #FFFFD4",
"$ 	c #FFFFD8",
"% 	c #FFFFCE",
"& 	c #FFFFD2",
"* 	c #FFFFCC",
"= 	c #FFFFD1",
"- 	c #FFFFD5",
"; 	c #FFFFCD",
"> 	c #FFFFDE",
", 	c #FFFFD7",
"' 	c #FFFFDA",
") 	c #EEF4DA",
"! 	c #FEFEDB",
"~ 	c #F4F5D2",
"{ 	c #FAFBD3",
"] 	c #FCFDCE",
"^ 	c #FFFFCF",
"/ 	c #DCE6D2",
"( 	c #EBF6E2",
"_ 	c #ECF8E2",
": 	c #EBF6E1",
"< 	c #E5EFD9",
"[ 	c #CDEAF3",
"} 	c #D0EEF7",
"| 	c #D1EEF7",
"1 	c #D2EEF7",
"2 	c #E3F5FA",
"3 	c #D3EFF7",
"4 	c #CAE6EF",
"5 	c #C5E5F0",
"6 	c #D0EDF7",
"7 	c #DCF2F9",
"8 	c #E4F4FA",
"9 	c #E4F5FA",
"0 	c #EAF7FB",
"a 	c #F7FCFE",
"b 	c #E0F3F9",
"c 	c #C8EBF6",
"d 	c #DFF3F9",
"e 	c #F5FBFD",
"f 	c #FFFFFF",
"g 	c #F9FCFC",
"h 	c #FBFDFE",
"i 	c #F8FCFE",
"j 	c #C4E6F0",
"k 	c #CAEBF6",
"l 	c #D0E5EB",
"m 	c #B9CDD1",
"n 	c #B5D1D8",
"o 	c #DAEFF5",
"p 	c #D8DBDA",
"q 	c #D4D7D6",
"r 	c #C3D3D6",
"s 	c #E2EDF0",
"t 	c #C4E4ED",
"u 	c #C3E4EE",
"v 	c #A7BFC2",
"w 	c #C0D3D6",
"x 	c #C1CFD1",
"y 	c #9E9F98",
"z 	c #B4C5C8",
"A 	c #AA9D8E",
"B 	c #ADA398",
"C 	c #A2B2B4",
"D 	c #B1CED6",
"E 	c #BD915D",
"F 	c #B9D1D6",
"G 	c #938C7E",
"H 	c #896D45",
"I 	c #7B6B51",
"J 	c #99856A",
"K 	c #AA7941",
"L 	c #887965",
"M 	c #8B744D",
"N 	c #8D7C65",
"O 	c #A5BCC0",
"P 	c #B38856",
"Q 	c #A4743C",
"R 	c #B1C3C7",
"S 	c #9BA6A4",
"T 	c #BAAF96",
"U 	c #867768",
"V 	c #A99071",
"W 	c #B9884F",
"X 	c #8E7B66",
"Y 	c #B8AE99",
"Z 	c #959385",
"` 	c #979C98",
" .	c #A0713B",
"..	c #AAC1C7",
"+.	c #ABC5CC",
"@.	c #AD8355",
"#.	c #D6B089",
"$.	c #D2A776",
"%.	c #D4A671",
"&.	c #D3AE82",
"*.	c #CFA57C",
"=.	c #A18E7A",
"-.	c #9D9485",
";.	c #BDC2B9",
">.	c #B1BCBA",
",.	c #8F7B68",
"'.	c #D09763",
").	c #D0A06B",
"!.	c #BF935F",
"~.	c #CFA06B",
"{.	c #C08E64",
"].	c #A4A197",
"^.	c #C3BFB2",
"/.	c #C2C2B5",
"(.	c #CCCBC6",
"_.	c #CACABA",
":.	c #C3C1AF",
"<.	c #D1AE75",
"[.	c #8F6B50",
"}.	c #938774",
"|.	c #BB8E5B",
"1.	c #C59A69",
"2.	c #AE8656",
"3.	c #7A827D",
"4.	c #BD914D",
"5.	c #BBAB91",
"6.	c #C6C4B3",
"7.	c #C6C5B6",
"8.	c #ECECE9",
"9.	c #D2D2C2",
"0.	c #C2B9A6",
"a.	c #B79468",
"b.	c #76593B",
"c.	c #86653E",
"d.	c #A8773E",
"e.	c #AE7B40",
"f.	c #A3753E",
"g.	c #3A4845",
"h.	c #AE7E3D",
"i.	c #B7A288",
"j.	c #CECDBE",
"k.	c #D4D3C4",
"l.	c #B4AB9A",
"m.	c #AF7C41",
"n.	c #AF7C40",
"o.	c #A9712C",
"p.	c #B77D31",
"q.	c #A07747",
"r.	c #A47947",
"s.	c #9F764A",
"t.	c #AB732B",
"u.	c #B87E33",
"v.	c #B07D41",
"w.	c #A98E6F",
"x.	c #A68A71",
"y.	c #997755",
"z.	c #C2A280",
"A.	c #BFBA9B",
"B.	c #7FF1F6",
"C.	c #77D7E2",
"D.	c #91E0DF",
"E.	c #CBAA7D",
"F.	c #B0B7A1",
"G.	c #A38055",
"H.	c #A97A43",
"I.	c #CCD7D7",
"J.	c #AE814C",
"K.	c #BE8D55",
"L.	c #63828E",
"M.	c #60CAE6",
"N.	c #7BEEF7",
"O.	c #7BEFF7",
"P.	c #86EDE9",
"Q.	c #7AEDF6",
"R.	c #77E9F4",
"S.	c #5AC0DD",
"T.	c #999A8D",
"U.	c #C09058",
"V.	c #D1DBDA",
"W.	c #9AB7B6",
"X.	c #CEA16C",
"Y.	c #D0A26D",
"Z.	c #A26733",
"`.	c #4797B0",
" +	c #4DA9C7",
".+	c #4BA5C2",
"++	c #5BA8B9",
"@+	c #4AA3C0",
"#+	c #628B9D",
"$+	c #C18F5A",
"%+	c #D3A56F",
"&+	c #C3B8AB",
"*+	c #CBD3D2",
"=+	c #C8D3D3",
"-+	c #A7BDBC",
";+	c #8E9285",
">+	c #C89760",
",+	c #916649",
"'+	c #507D85",
")+	c #3F8795",
"!+	c #499FB8",
"~+	c #5EB4C8",
"{+	c #4DA9C5",
"]+	c #4AA3BD",
"^+	c #51A5C2",
"/+	c #A5805F",
"(+	c #BE9B76",
"_+	c #D9E1E3",
":+	c #99C3D3",
"<+	c #ABC9D4",
"[+	c #BDC7C6",
"}+	c #9AA091",
"|+	c #BB9968",
"1+	c #DEA446",
"2+	c #7B7C66",
"3+	c #5E9DAB",
"4+	c #5DB6CC",
"5+	c #62BED6",
"6+	c #5FB9D3",
"7+	c #64ADC9",
"8+	c #A19987",
"9+	c #D0A659",
"0+	c #D0A36E",
"a+	c #D1A36E",
"b+	c #BBBEB9",
"c+	c #D8F1FD",
"d+	c #A0CCDE",
"e+	c #CAD3D1",
"f+	c #8C9F97",
"g+	c #D2A46E",
"h+	c #7096A3",
"i+	c #B0AB99",
"j+	c #AD7A3B",
"k+	c #AA7A42",
"l+	c #B98D59",
"m+	c #C79A65",
"n+	c #BD8D55",
"o+	c #AC8B61",
"p+	c #A9B9BF",
"q+	c #AD9579",
"r+	c #C69B69",
"s+	c #E7F6FE",
"t+	c #A6E2FD",
"u+	c #8CC7DE",
"v+	c #AABDBD",
"w+	c #83A29F",
"x+	c #BF9769",
"y+	c #7DA3B2",
"z+	c #B1BDC2",
"A+	c #BCA089",
"B+	c #A97941",
"C+	c #AE7D44",
"D+	c #B28A5C",
"E+	c #C2AB94",
"F+	c #B1967F",
"G+	c #B7ACA2",
"H+	c #A7B7BB",
"I+	c #8D877B",
"J+	c #C7EBFD",
"K+	c #F3FAFF",
"L+	c #C4EAFE",
"M+	c #8DC8E1",
"N+	c #C4D3D2",
"O+	c #7FA3A3",
"P+	c #A68E72",
"Q+	c #7B8B8B",
"R+	c #828A83",
"S+	c #A2A59F",
"T+	c #B6BBB9",
"U+	c #B9BEBF",
"V+	c #C3C2BB",
"W+	c #BECACF",
"X+	c #A4AAA6",
"Y+	c #8B948F",
"Z+	c #8E938C",
"`+	c #7D8580",
" @	c #68CFF5",
".@	c #CAEDFE",
"+@	c #BAE6FE",
"@@	c #89C2DD",
"#@	c #BDCFD3",
"$@	c #7EA3A3",
"%@	c #988874",
"&@	c #8A8E83",
"*@	c #848B84",
"=@	c #888F88",
"-@	c #838982",
";@	c #745841",
">@	c #8D7E68",
",@	c #918D8A",
"'@	c #7D786D",
")@	c #8A938E",
"!@	c #8C938D",
"~@	c #9E9C90",
"{@	c #CA9E6A",
"]@	c #C49967",
"^@	c #63D3FB",
"/@	c #99DFFD",
"(@	c #B9E6FE",
"_@	c #A5DEFA",
":@	c #54ACCF",
"<@	c #8EBCCD",
"[@	c #7EA3A2",
"}@	c #CEA26E",
"|@	c #B3A48A",
"1@	c #B7B7AC",
"2@	c #A8ACA2",
"3@	c #A3A8A0",
"4@	c #B7BDB6",
"5@	c #CECEBF",
"6@	c #CDD1C8",
"7@	c #CBCDBA",
"8@	c #A5A69B",
"9@	c #C0BEB1",
"0@	c #CCA578",
"a@	c #52C9F1",
"b@	c #62C9EE",
"c@	c #74C5E8",
"d@	c #44A4CB",
"e@	c #4D93AF",
"f@	c #A9BCBD",
"g@	c #5B7574",
"h@	c #C09564",
"i@	c #BFAF98",
"j@	c #C8C8BC",
"k@	c #DDDDD0",
"l@	c #FBFCEC",
"m@	c #C6C5B3",
"n@	c #AAA798",
"o@	c #BDBCAF",
"p@	c #C29765",
"q@	c #5ED0F7",
"r@	c #4BC4EC",
"s@	c #2EB0D9",
"t@	c #18A0CA",
"u@	c #709EAE",
"v@	c #B9C5C5",
"w@	c #5B716F",
"x@	c #AB9980",
"y@	c #CECBB6",
"z@	c #C8C8BB",
"A@	c #DCDCCF",
"B@	c #EBECDD",
"C@	c #EEEFE0",
"D@	c #EDEEDF",
"E@	c #F0F0DA",
"F@	c #E7E7D5",
"G@	c #C4C3B2",
"H@	c #917C62",
"I@	c #BD966B",
"J@	c #C49D70",
"K@	c #C7BBAA",
"L@	c #6AE1F3",
"M@	c #6CE4F2",
"N@	c #57C0E4",
"O@	c #5ECFF6",
"P@	c #57CDF5",
"Q@	c #7CC2DE",
"R@	c #BFCAC9",
"S@	c #A6B3B3",
"T@	c #556F70",
"U@	c #93A3A2",
"V@	c #E2DBBE",
"W@	c #ECECDC",
"X@	c #E0DDBD",
"Y@	c #DBDBC9",
"Z@	c #DCDAC0",
"`@	c #DBDAC3",
" #	c #D0CEBD",
".#	c #C0B698",
"+#	c #A4926C",
"@#	c #AD906F",
"##	c #907252",
"$#	c #88725F",
"%#	c #407D93",
"&#	c #BDE2ED",
"*#	c #F4F6F6",
"=#	c #FDFDFD",
"-#	c #FAFAFB",
";#	c #D8EBEF",
">#	c #6E9EB4",
",#	c #95B9C6",
"'#	c #8FA9AE",
")#	c #D0D7D5",
"!#	c #9EAAA8",
"~#	c #456A72",
"{#	c #407E8E",
"]#	c #C99C67",
"^#	c #AA8660",
"/#	c #A4A79B",
"(#	c #D6D7C9",
"_#	c #79A8AC",
":#	c #B7864C",
"<#	c #C79861",
"[#	c #D1A36D",
"}#	c #B1926F",
"|#	c #3A5A66",
"1#	c #C07719",
"2#	c #DCDDDA",
"3#	c #FDFCFA",
"4#	c #FDFDFB",
"5#	c #FEFDFB",
"6#	c #FEFDFC",
"7#	c #FEFEFD",
"8#	c #F2F2F2",
"9#	c #BBC9C9",
"0#	c #C1CBC9",
"a#	c #677C7C",
"b#	c #4895AF",
"c#	c #5ABCCD",
"d#	c #E5B377",
"e#	c #F9C584",
"f#	c #C79760",
"g#	c #7F8478",
"h#	c #479DA9",
"i#	c #4F9CA6",
"j#	c #5AC9D8",
"k#	c #9B7A56",
"l#	c #D8A76E",
"m#	c #FDC987",
"n#	c #C09F79",
"o#	c #4496B2",
"p#	c #906B5A",
"q#	c #CCCBC8",
"r#	c #DCDBD4",
"s#	c #E2E0D7",
"t#	c #E5E3D9",
"u#	c #E7E5DA",
"v#	c #E8E6DB",
"w#	c #E8E5DC",
"x#	c #E4E2DA",
"y#	c #D6D6D4",
"z#	c #9BA09C",
"A#	c #477C8C",
"B#	c #52B7D9",
"C#	c #79AFB8",
"D#	c #C49156",
"E#	c #CD9B61",
"F#	c #AC7C46",
"G#	c #54ADB8",
"H#	c #4BA8B2",
"I#	c #49A2AC",
"J#	c #61D8E9",
"K#	c #6F96A6",
"L#	c #B6844A",
"M#	c #CC9A5F",
"N#	c #B0804A",
"O#	c #54ACCB",
"P#	c #4B8196",
"Q#	c #CA8029",
"R#	c #B7BABE",
"S#	c #9CC2D6",
"T#	c #8BC3DD",
"U#	c #A7C1D0",
"V#	c #BDBFC4",
"W#	c #B3BFC8",
"X#	c #8CC3DC",
"Y#	c #8EC3DB",
"Z#	c #B4BFC8",
"`#	c #CD9543",
" $	c #D59238",
".$	c #CE8734",
"+$	c #B08554",
"@$	c #9C7445",
"#$	c #9C764E",
"$$	c #5DCADF",
"%$	c #66E3F3",
"&$	c #62DBEB",
"*$	c #5CCAE4",
"=$	c #60A1B9",
"-$	c #AD7631",
";$	c #CC8428",
">$	c #D49238",
",$	c #D09742",
"'$	c #ABC1CB",
")$	c #94C7D9",
"!$	c #D6CCB5",
"~$	c #95ADB2",
"{$	c #DEDED4",
"]$	c #A5BCC3",
"^$	c #CBBBA2",
"/$	c #BFCBC7",
"($	c #91CAE2",
"_$	c #4B98B3",
":$	c #689FB5",
"<$	c #AABCC3",
"[$	c #9D7445",
"}$	c #AC8B6D",
"|$	c #AAAAA7",
"1$	c #92A0A3",
"2$	c #7E8F90",
"3$	c #7D8E8F",
"4$	c #8E8176",
"5$	c #8F999B",
"6$	c #A47A4F",
"7$	c #8A6C46",
"8$	c #8E9FA4",
"9$	c #EAE8D9",
"0$	c #A7CDD7",
"a$	c #BFBEB5",
"b$	c #96876C",
"c$	c #E4E3D4",
"d$	c #ADAC9D",
"e$	c #BBB09B",
"f$	c #AACAD2",
"g$	c #DEE7DF",
"h$	c #5FD1FA",
"i$	c #8FC4DB",
"j$	c #C9E1ED",
"k$	c #96734B",
"l$	c #A5A8A8",
"m$	c #CBE3EF",
"n$	c #CCE4EF",
"o$	c #C2D8E2",
"p$	c #8B7775",
"q$	c #8B7573",
"r$	c #B8CCD4",
"s$	c #CAE1EC",
"t$	c #BDCAD0",
"u$	c #AC947F",
"v$	c #9F9387",
"w$	c #D0E9F5",
"x$	c #7FC7E5",
"y$	c #CFD1CB",
"z$	c #C0CBCD",
"A$	c #C7D0D0",
"B$	c #AEAEAC",
"C$	c #CBCDC9",
"D$	c #C1CCCE",
"E$	c #C5CBC9",
"F$	c #AF6A15",
"G$	c #7997AA",
"H$	c #5BC9EF",
"I$	c #B59B6E",
"J$	c #727972",
"K$	c #54391F",
"L$	c #5B5248",
"M$	c #9BA8A7",
"N$	c #A9B9BA",
"O$	c #58C0E4",
"P$	c #57BCDF",
"Q$	c #C7DEEA",
"R$	c #99A8AB",
"S$	c #776960",
"T$	c #685B4B",
"U$	c #BCB39E",
"V$	c #4CA7C8",
"W$	c #7CC4DE",
"X$	c #B1D9E6",
"Y$	c #BADBE4",
"Z$	c #B7DAE5",
"`$	c #A0D7EB",
" %	c #55ADCD",
".%	c #4AA3C3",
"+%	c #A66012",
"@%	c #BD7615",
"#%	c #C47F25",
"$%	c #D6AD56",
"%%	c #6D6E59",
"&%	c #806B4C",
"*%	c #7B6E53",
"=%	c #878A71",
"-%	c #82856D",
";%	c #AA6614",
">%	c #D5A952",
",%	c #868970",
"'%	c #84876F",
")%	c #7A5E3B",
"!%	c #736C54",
"~%	c #B4995A",
"{%	c #4AA5C5",
"]%	c #4CA8C9",
"^%	c #DDDFD4",
"/%	c #F4F0DF",
"(%	c #8CB5C4",
"_%	c #4DAACB",
":%	c #AF6B12",
"<%	c #AE6C1B",
"[%	c #A2B4BB",
"}%	c #B4C7D2",
"|%	c #AABBBF",
"1%	c #899081",
"2%	c #81846C",
"3%	c #9A5A0F",
"4%	c #AB6812",
"5%	c #B37013",
"6%	c #C38A38",
"7%	c #8A9291",
"8%	c #919CA2",
"9%	c #889597",
"0%	c #86979A",
"a%	c #D5D5CA",
"b%	c #E1DFD4",
"c%	c #DFDDD2",
"d%	c #B8BEB8",
"e%	c #646052",
"f%	c #73756C",
"g%	c #A4B2B1",
"h%	c #949F98",
"i%	c #828672",
"j%	c #A6B6B8",
"k%	c #B6CAD3",
"l%	c #7C8388",
"m%	c #8D999A",
"n%	c #326A7F",
"o%	c #234B5A",
"p%	c #30677B",
"q%	c #C5DCE8",
"r%	c #C1D7E2",
"s%	c #BCD0DB",
"t%	c #D4EDFA",
"u%	c #CBE2EC",
"v%	c #D1EAF6",
"w%	c #CDE5F2",
"x%	c #C9E0EB",
"y%	c #C8DFEA",
"z%	c #CEE6F3",
"A%	c #D3E8F2",
"B%	c #E7F4FC",
"C%	c #DEF1FB",
"D%	c #C0D5DC",
"E%	c #D1E9F5",
"F%	c #D6EEFA",
"G%	c #E5F4FC",
"H%	c #E2F2FB",
"I%	c #9BA59A",
"J%	c #AFBFBF",
"K%	c #C0D5DB",
"L%	c #B7C9CC",
"M%	c #9CA8A2",
"N%	c #BED2D7",
"O%	c #BCCFD3",
"P%	c #AAB8B6",
"Q%	c #959D8F",
"                                                                                                    ",
"  . . . . . . . . . . . . . . . . . . . . . . . . . . . . . . . . . . . . . . . . . . . . . . . .   ",
"  . . . . . . . . . . . . . . . . . . . . . . . . . . . . . . . . . . . . . . . . . . . . . . . .   ",
"  . . . . . . . . . . . . . . . . . . . . . . . . + @ @ # # # # $ . . . . . . . . . . . . . . . .   ",
"  . . . . . . . . . . . . . . . . . . . . . . % @ . . . . . . . . & % $ . . . . . . . . . . . . .   ",
"  . . . . . . . . . . . . . . . . . . . . . * = . . . . . . . . . . = * - . . . . . . . . . . . .   ",
"  . . . . . . . . . . . . . . . . . . . . . * ; > . . . . . . . . . ; * , . . . . . . . . . . . .   ",
"  . . . . . . . . . . . . . . . . . . . . . . & ; ; @ ' ) ! ~ { ] * ^ . . . . . . . . . . . . . .   ",
"  . . . . . . . . . . . . . . . . . . . . . . . . . / ( _ _ : < . . . . . . . . . . . . . . . . .   ",
"  . . . . . . . . . . . . . . . . . . . . . . . . [ } | 1 2 3 3 4 . . . . . . . . . . . . . . . .   ",
"  . . . . . . . . . . . . . . . . . . . . . . . 5 6 7 8 9 0 a b 7 . . . . . . . . . . . . . . . .   ",
"  . . . . . . . . . . . . . . . . . . . . . . . c [ d e f f g h i j . . . . . . . . . . . . . . .   ",
"  . . . . . . . . . . . . . . . . . . . . . . . k l m n o p q r s t . . . . . . . . . . . . . . .   ",
"  . . . . . . . . . . . . . . . . . . . . . . . u v w x y z A B C D . . . . . . . . . . . . . . .   ",
"  . . . . . . . . . . . . . . . . . . . . . . E F G H I J K L M N O P . . . . . . . . . . . . . .   ",
"  . . . . . . . . . . . . . . . . . . . . . . Q R S T U V W X Y Z `  .. . . . . . . . . . . . . .   ",
"  . . . . . . . . . . . . . . . . . . . . . . . ..+.@.#.$.%.&.*.=.-.. . . . . . . . . . . . . . .   ",
"  . . . . . . . . . . . . . . . . . . . . . . . ;.>.,.'.).!.~.{.].^./.. . . . . . . . . . . . . .   ",
"  . . . . . . . . . . . . . . . . . . . . . (._.:.<.[.}.|.1.2.3.4.5.6.7.. . . . . . . . . . . . .   ",
"  . . . . . . . . . . . . . . . . . . . . . 8.9.0.a.b.c.d.e.f.g.h.i.j.k.. . . . . . . . . . . . .   ",
"  . . . . . . . . . . . . . . . . . . . . . . l.m.n.o.p.q.r.s.t.u.v.w.. . . . . . . . . . . . . .   ",
"  . . . . . . . . . . . . . . . . . . . . . . x.v.y.z.A.B.C.D.E.F.G.H.. . . . . . . . . . . . . .   ",
"  . . . . . . . . . . . . . . . . . . . . I.. J.K.L.M.N.O.P.Q.R.S.T.U.. . . . . . . . . . . . . .   ",
"  . . . . . . . . . . . . . . . . . . . V.W.. X.Y.Z.`. +.+++@+.+#+$+%+&+. . . . . . . . . . . . .   ",
"  . . . . . . . . . . . . . . . . . . *+=+-+;+%+>+,+'+)+!+~+{+]+^+/+%+(+_+. . . . . . . . . . . .   ",
"  . . . . . . . . . . . . . . . . . . :+<+[+}+%+|+1+2+3+4+5+6+7+8+9+0+a+b+. . . . . . . . . . . .   ",
"  . . . . . . . . . . . . . . . . . . c+d+e+f+g+h+i+j+v.k+l+m+n+o+p+q+%+r+. . . . . . . . . . . .   ",
"  . . . . . . . . . . . . . . . . . s+t+u+v+w+x+y+z+A+B+C+D+E+F+G+H+I+%+%+. . . . . . . . . . . .   ",
"  . . . . . . . . . . . . . . . . J+K+L+M+N+O+P+Q+R+S+T+U+V+W+X+Y+Z+`+a+%+. . . . . . . . . . . .   ",
"  . . . . . . . . . . . . . . .  @.@K++@@@#@$@%@&@*@=@-@;@>@,@'@)@!@~@{@%+]@. . . . . . . . . . .   ",
"  . . . . . . . . . . . . . . . ^@/@(@_@:@<@[@}@|@1@2@3@4@5@6@7@8@9@0@%+%+%+. . . . . . . . . . .   ",
"  . . . . . . . . . . . . . . . a@b@c@d@e@f@g@h@i@j@k@l@l@l@l@m@n@o@p@g+%+%+. . . . . . . . . . .   ",
"  . . . . . . . . . . . . . . . q@r@s@t@u@v@w@x@y@z@j@A@B@C@D@E@F@G@H@I@J@K@. . . . . . . . . . .   ",
"  . . . . . . L@. . . . . M@. . N@O@P@Q@R@S@T@U@V@W@X@Y@Z@`@ #.#+#@###$#. . . . . . . . . . . . .   ",
"  . . . . . %#&#*#=#=#=#-#;#>#. . . ,#'#)#!#~#{#a+]#x+^#/#(#_#:#<#[#}#|#1#. . . . . . . . . . . .   ",
"  . . . . . 2#3#4#5#6#7#7#7#8#. . . . 9#0#a#b#c#d#e#f#g#h#i#j#k#l#m#n#o#p#. . . . . . . . . . . .   ",
"  . . . . . q#r#s#t#u#v#w#x#y#. . . . =+z#A#B#C#D#E#F#G#H#I#J#K#L#M#N#O#P#Q#. . . . . . . . . . .   ",
"  . . . . . R#S#T#U#V#W#X#Y#Z#. . . . `# $.$+$@$v.v.#$$$%$&$*$=$v.v.v.-$;$>$,$. . . . . . . . . .   ",
"  . . . . . '$)$!$~${$]$^$/$($. . . . . _$:$<$[$m.}$|$1$2$3$4$5$6$v.v.7$8$. . . . . . . . . . . .   ",
"  . . . . . 9$0$a$b$c$d$e$f$g$. . . . . h$i$j$k$l$m$n$o$p$q$. r$s$t$u$v$w$x$. . . . . . . . . . .   ",
"  . . . . . . y$z$A$B$C$D$E$. . . . F$G$H$I$J$K$L$M$N$  O$P$. . Q$R$S$T$U$. . . . . . . . . . . .   ",
"  . . . . . . V$W$X$Y$Z$`$ %.%. . . +%@%#%$%%%&%*%=%-%;%    >%. ,%'%)%!%~%. . . . . . . . . . . .   ",
"  . . . . . {%]%^%/%/%/%/%(%_%. . . . :%<%  [%}%|%1%2%3%4%5%6%. ,%-%7%8%9%. . . . . . . . . . . .   ",
"  . . . . . . . 0%a%b%c%d%. . . . . . . . . e%f%g%h%. . . . . . i%j%k%l%m%. . . . . . . . . . . .   ",
"  . . . . . . . n%o%. . p%. . . . . . . . q%r%s%t%u%. . . . . . . v%w%x%y%z%. . . . . . . . . . .   ",
"  . . . . . . . . . . . . . . . . . . . A%B%C%t%t%D%. . . . . . . E%t%F%G%H%. . . . . . . . . . .   ",
"  . . . . . . . . . . . . . . . . . . . . I%J%K%L%. . . . . . . . M%N%O%P%Q%. . . . . . . . . . .   ",
"  . . . . . . . . . . . . . . . . . . . . . . . . . . . . . . . . . . . . . . . . . . . . . . . .   ",
"  . . . . . . . . . . . . . . . . . . . . . . . . . . . . . . . . . . . . . . . . . . . . . . . .   ",
"                                                                                                    "};
