/* XPM */
static char * 1_xpm[] = {
"10 10 2 1",
" 	c #FFFFFF",
".	c #000000",
"          ",
"     .    ",
"    ..    ",
"   . .    ",
"     .    ",
"     .    ",
"     .    ",
"     .    ",
"     .    ",
"          "};
