/* XPM */
static char * 4_xpm[] = {
"10 10 2 1",
" 	c #FFFFFF",
".	c #000000",
"          ",
"      .   ",
"     ..   ",
"    . .   ",
"   .  .   ",
"  ......  ",
"      .   ",
"      .   ",
"      .   ",
"          "};
