/* XPM */
static char * bouftou_xpm[] = {
"50 50 589 2",
"  	c #A39E8E",
". 	c #8D8662",
"+ 	c #E7E1C7",
"@ 	c #F0E5CA",
"# 	c #E6DEBA",
"$ 	c #E1DAB6",
"% 	c #EAE2BE",
"& 	c #EAE2BF",
"* 	c #D6D1BD",
"= 	c #DAD4B1",
"- 	c #F1EDC5",
"; 	c #F2EEC8",
"> 	c #F1ECC9",
", 	c #F2EDC9",
"' 	c #EEE7C1",
") 	c #DED8C9",
"! 	c #CCC5A9",
"~ 	c #D1C9AB",
"{ 	c #D2CAAC",
"] 	c #CEC7A9",
"^ 	c #D2D2C3",
"/ 	c #B7AE63",
"( 	c #ECE3B3",
"_ 	c #F2ECCD",
": 	c #EFEDCC",
"< 	c #F1EDC8",
"[ 	c #F1EDC7",
"} 	c #F0ECC6",
"| 	c #E8DFBC",
"1 	c #BEB593",
"2 	c #CEC5A4",
"3 	c #DCD4B2",
"4 	c #D9D4B6",
"5 	c #CEC9AB",
"6 	c #CBC7AA",
"7 	c #DEDABB",
"8 	c #ECE2C1",
"9 	c #CEC6B0",
"0 	c #57798D",
"a 	c #BAB45D",
"b 	c #D4CC8C",
"c 	c #F3EDBF",
"d 	c #F2EDC6",
"e 	c #E5E1BC",
"f 	c #CAC29F",
"g 	c #EDE5C1",
"h 	c #F4ECC8",
"i 	c #F2EAC6",
"j 	c #F1EDCA",
"k 	c #EFEBC8",
"l 	c #F0ECC9",
"m 	c #F5EDC5",
"n 	c #EBE4C3",
"o 	c #CEC9B4",
"p 	c #667583",
"q 	c #4A7385",
"r 	c #597587",
"s 	c #B7B15F",
"t 	c #BBB560",
"u 	c #C6C079",
"v 	c #DDD59F",
"w 	c #F3EEC7",
"x 	c #C7C39D",
"y 	c #ECE7C3",
"z 	c #F0EBC7",
"A 	c #F2EDC8",
"B 	c #F2EDC5",
"C 	c #E0DCBA",
"D 	c #D7D3B5",
"E 	c #D7D3B3",
"F 	c #D5D0B0",
"G 	c #D6D1B2",
"H 	c #CDC9AE",
"I 	c #B0B6B7",
"J 	c #62778A",
"K 	c #476B83",
"L 	c #4B7485",
"M 	c #48758A",
"N 	c #6A8192",
"O 	c #B2AC67",
"P 	c #BBB558",
"Q 	c #BAB454",
"R 	c #BFB66A",
"S 	c #EDE9C0",
"T 	c #F3EEC8",
"U 	c #E2DEB8",
"V 	c #D2CEA9",
"W 	c #F0ECC7",
"X 	c #F2EEC9",
"Y 	c #F0EDCA",
"Z 	c #F3EDC9",
"` 	c #F3ECC9",
" .	c #F4ECC9",
"..	c #F3EBC8",
"+.	c #EDE6C5",
"@.	c #8F9A88",
"#.	c #4C717E",
"$.	c #46758F",
"%.	c #4A7285",
"&.	c #477587",
"*.	c #4E7186",
"=.	c #9DA7AF",
"-.	c #B7AB72",
";.	c #BFB161",
">.	c #BFB35B",
",.	c #B6B05D",
"'.	c #BFB887",
").	c #CFC79C",
"!.	c #C6BD98",
"~.	c #E8DEBE",
"{.	c #D7D9B6",
"].	c #5A7373",
"^.	c #4A748B",
"/.	c #4B7489",
"(.	c #4E7185",
"_.	c #4F6F82",
":.	c #748189",
"<.	c #B4AA66",
"[.	c #B6AD5C",
"}.	c #B1AA71",
"|.	c #E3DDB0",
"1.	c #EEE6BD",
"2.	c #F2EAC5",
"3.	c #F4ECCB",
"4.	c #EEEBC5",
"5.	c #829085",
"6.	c #4E7288",
"7.	c #4A7293",
"8.	c #49718A",
"9.	c #44647A",
"0.	c #899198",
"a.	c #B9AF8D",
"b.	c #E8DFC2",
"c.	c #F2EDC7",
"d.	c #F2ECC8",
"e.	c #B4B69E",
"f.	c #6A7876",
"g.	c #4E6676",
"h.	c #395A69",
"i.	c #2F4252",
"j.	c #F1EDC9",
"k.	c #F2EBCD",
"l.	c #F2ECC6",
"m.	c #E2DEBA",
"n.	c #B0AF96",
"o.	c #4E5650",
"p.	c #D2CDA9",
"q.	c #F1EEC9",
"r.	c #F1EDC6",
"s.	c #F2ECC9",
"t.	c #F3ECCB",
"u.	c #F2ECCB",
"v.	c #F1ECC8",
"w.	c #CCC6AC",
"x.	c #C4BC96",
"y.	c #F3EDC5",
"z.	c #F1ECCB",
"A.	c #F0EEC8",
"B.	c #F0EEC7",
"C.	c #EAE5C4",
"D.	c #B4A87D",
"E.	c #E4DAA3",
"F.	c #F1EDC3",
"G.	c #F1EDCD",
"H.	c #F0EBCB",
"I.	c #F2EEC6",
"J.	c #F1ECCC",
"K.	c #F2EDCA",
"L.	c #F0ECC3",
"M.	c #B5A878",
"N.	c #C0B667",
"O.	c #D9D69F",
"P.	c #F1EBC4",
"Q.	c #F3EDC7",
"R.	c #E5E3AF",
"S.	c #DCD5A2",
"T.	c #D9D19D",
"U.	c #D3CC90",
"V.	c #C8C280",
"W.	c #F1EDC4",
"X.	c #F2EEC4",
"Y.	c #A89F83",
"Z.	c #B8A97E",
"`.	c #B9B35E",
" +	c #A7A862",
".+	c #BDB477",
"++	c #D1C898",
"@+	c #A0A177",
"#+	c #626F5E",
"$+	c #45525D",
"%+	c #54584A",
"&+	c #9C9C61",
"*+	c #E7E6B6",
"=+	c #F0EBD1",
"-+	c #F4EDC9",
";+	c #EAE0B0",
">+	c #E5DFAF",
",+	c #F1ECC1",
"'+	c #F0EDCB",
")+	c #EFEDCD",
"!+	c #F2EBCE",
"~+	c #F3EBC5",
"{+	c #A0947E",
"]+	c #AFA467",
"^+	c #918E63",
"/+	c #4C6C74",
"(+	c #627F76",
"_+	c #58756C",
":+	c #487182",
"<+	c #4A758B",
"[+	c #4C768C",
"}+	c #3B5B6B",
"|+	c #314345",
"1+	c #BFC0A3",
"2+	c #F1E8BD",
"3+	c #AFA671",
"4+	c #958853",
"5+	c #AA9E6B",
"6+	c #C8BE90",
"7+	c #ECE3B7",
"8+	c #F3EDC1",
"9+	c #F1ECCE",
"0+	c #F3EDC8",
"a+	c #C9BFA3",
"b+	c #AAA35C",
"c+	c #4B4F4A",
"d+	c #496D80",
"e+	c #507494",
"f+	c #476D8D",
"g+	c #497686",
"h+	c #517989",
"i+	c #405F6D",
"j+	c #2D3C52",
"k+	c #787D68",
"l+	c #EBE8B1",
"m+	c #C5B88B",
"n+	c #867C44",
"o+	c #A28E5A",
"p+	c #C0B072",
"q+	c #C2B376",
"r+	c #9F9261",
"s+	c #D5CC96",
"t+	c #E5DDAD",
"u+	c #EBE7BB",
"v+	c #EFEDC2",
"w+	c #F0EDC9",
"x+	c #D4CBB3",
"y+	c #ACA661",
"z+	c #36434A",
"A+	c #45667D",
"B+	c #4D7486",
"C+	c #4B748A",
"D+	c #49718E",
"E+	c #477489",
"F+	c #48738B",
"G+	c #496A80",
"H+	c #2B3F4D",
"I+	c #535D46",
"J+	c #B6B36A",
"K+	c #857346",
"L+	c #8F8251",
"M+	c #9E8C5D",
"N+	c #A59659",
"O+	c #A99D5D",
"P+	c #968B56",
"Q+	c #8E8147",
"R+	c #B9B363",
"S+	c #C3C27D",
"T+	c #EFEEC4",
"U+	c #EEEECB",
"V+	c #F2EDC4",
"W+	c #EBE3C2",
"X+	c #DBD5CA",
"Y+	c #A4A565",
"Z+	c #58604B",
"`+	c #365060",
" @	c #4D7085",
".@	c #4B728B",
"+@	c #4C7289",
"@@	c #4C7387",
"#@	c #466981",
"$@	c #375469",
"%@	c #294148",
"&@	c #727552",
"*@	c #A89F5C",
"=@	c #695231",
"-@	c #8A7F4A",
";@	c #9D8C5B",
">@	c #9F905D",
",@	c #9D905A",
"'@	c #9C905A",
")@	c #7F703F",
"!@	c #AEA65E",
"~@	c #E3DDAC",
"{@	c #F1ECCA",
"]@	c #F1EEC3",
"^@	c #D1CBB6",
"/@	c #B6AE88",
"(@	c #949263",
"_@	c #2D4140",
":@	c #2C4B54",
"<@	c #365967",
"[@	c #385867",
"}@	c #2F4E5E",
"|@	c #29404E",
"1@	c #313F45",
"2@	c #797E72",
"3@	c #D4D4B1",
"4@	c #BEB77D",
"5@	c #A2946F",
"6@	c #665D31",
"7@	c #988855",
"8@	c #9F8D58",
"9@	c #A18F57",
"0@	c #A18F56",
"a@	c #817044",
"b@	c #9C9451",
"c@	c #EBE4B6",
"d@	c #F2EDCB",
"e@	c #F1EEC6",
"f@	c #EDE9C7",
"g@	c #D4CEBE",
"h@	c #A7A173",
"i@	c #8B8E61",
"j@	c #4E5740",
"k@	c #303E41",
"l@	c #303A49",
"m@	c #394041",
"n@	c #636750",
"o@	c #B1B289",
"p@	c #EAE9BD",
"q@	c #EFEDC7",
"r@	c #D3D1A1",
"s@	c #CBC69A",
"t@	c #B7B393",
"u@	c #867D5A",
"v@	c #796A3F",
"w@	c #907D50",
"x@	c #988254",
"y@	c #7D6B46",
"z@	c #908749",
"A@	c #E2DAAF",
"B@	c #F0EBCC",
"C@	c #DAD4B9",
"D@	c #84763D",
"E@	c #989059",
"F@	c #A7A363",
"G@	c #A7A359",
"H@	c #B2AC63",
"I@	c #BEB973",
"J@	c #F0EAB4",
"K@	c #F2EBCA",
"L@	c #F2EFCA",
"M@	c #E0E0B8",
"N@	c #BCBF92",
"O@	c #ECEBD2",
"P@	c #DEDBC3",
"Q@	c #A09B83",
"R@	c #4A3C21",
"S@	c #554228",
"T@	c #68573B",
"U@	c #938B53",
"V@	c #ECE4B8",
"W@	c #F2EDCE",
"X@	c #DFDBBA",
"Y@	c #D4CEBB",
"Z@	c #6B6044",
"`@	c #685F2F",
" #	c #ADA357",
".#	c #BEB456",
"+#	c #BAB558",
"@#	c #BBB55F",
"##	c #D3CB8A",
"$#	c #F0E5B7",
"%#	c #F0EEC5",
"&#	c #E3E1B9",
"*#	c #B7B590",
"=#	c #EDECCC",
"-#	c #FBFBED",
";#	c #EFEFDE",
">#	c #656459",
",#	c #3F3B30",
"'#	c #B8B393",
")#	c #C9C797",
"!#	c #D0CAAE",
"~#	c #CBC9BB",
"{#	c #6D664C",
"]#	c #6C6245",
"^#	c #695F35",
"/#	c #A79B57",
"(#	c #BCB15A",
"_#	c #BAB45C",
":#	c #BAB462",
"<#	c #BCB56B",
"[#	c #C9C37E",
"}#	c #D0CA87",
"|#	c #CEC887",
"1#	c #BAB473",
"2#	c #CECE9F",
"3#	c #F1EFD7",
"4#	c #F4F1E4",
"5#	c #EDECD7",
"6#	c #E7E4C4",
"7#	c #D1CFA0",
"8#	c #EDE6C2",
"9#	c #C0BAA6",
"0#	c #6A6347",
"a#	c #6A6142",
"b#	c #6B5F3C",
"c#	c #91844B",
"d#	c #BEB260",
"e#	c #BAB45E",
"f#	c #BCB458",
"g#	c #BDB45A",
"h#	c #BDB35B",
"i#	c #BCB35D",
"j#	c #B8B45E",
"k#	c #CEC896",
"l#	c #D9D4B9",
"m#	c #E3E1C5",
"n#	c #CAC6A6",
"o#	c #DEDCAC",
"p#	c #F5EBC3",
"q#	c #CCC199",
"r#	c #BEB9AE",
"s#	c #686146",
"t#	c #6C6342",
"u#	c #6D6043",
"v#	c #736435",
"w#	c #B2A659",
"x#	c #BBB45B",
"y#	c #BAB361",
"z#	c #BAB55B",
"A#	c #BBB45E",
"B#	c #BBB360",
"C#	c #BEB55C",
"D#	c #BFB86C",
"E#	c #E9E4AF",
"F#	c #DBD7B7",
"G#	c #DEDAB8",
"H#	c #F0EEBF",
"I#	c #F0EECA",
"J#	c #E8E2BC",
"K#	c #CABE93",
"L#	c #AB9C71",
"M#	c #575547",
"N#	c #6C6240",
"O#	c #6D6144",
"P#	c #6A603C",
"Q#	c #7C753E",
"R#	c #B6A65B",
"S#	c #BFB25E",
"T#	c #BBB25D",
"U#	c #BAB263",
"V#	c #BAB360",
"W#	c #B9B259",
"X#	c #BBB459",
"Y#	c #C3BA73",
"Z#	c #EEE1B6",
"`#	c #F0EAC5",
" $	c #F2EDCC",
".$	c #F1ECC6",
"+$	c #F4EECC",
"@$	c #EFEBC0",
"#$	c #DEDAA1",
"$$	c #ABA064",
"%$	c #BAB16E",
"&$	c #A8A383",
"*$	c #364448",
"=$	c #595A4C",
"-$	c #666445",
";$	c #6A653D",
">$	c #6B603D",
",$	c #68622F",
"'$	c #88803F",
")$	c #A29449",
"!$	c #A89748",
"~$	c #A49C46",
"{$	c #B7B055",
"]$	c #BBB45A",
"^$	c #BBB45D",
"/$	c #BCB55E",
"($	c #BFB66E",
"_$	c #DCD69E",
":$	c #F1E9BA",
"<$	c #F4ECC2",
"[$	c #EFE7BC",
"}$	c #E7E0AC",
"|$	c #DFD9A0",
"1$	c #D2CE8E",
"2$	c #BEBA72",
"3$	c #B2A55A",
"4$	c #A4994F",
"5$	c #A39E64",
"6$	c #495D68",
"7$	c #2C3B4A",
"8$	c #374141",
"9$	c #464943",
"0$	c #444345",
"a$	c #262C32",
"b$	c #3B3A29",
"c$	c #938955",
"d$	c #B4A658",
"e$	c #ABA158",
"f$	c #A59D4A",
"g$	c #BCB45E",
"h$	c #BBB45C",
"i$	c #BBB458",
"j$	c #BBB658",
"k$	c #BCB563",
"l$	c #BEB66A",
"m$	c #BCB567",
"n$	c #BAB365",
"o$	c #BAB362",
"p$	c #BBB55E",
"q$	c #B9B35A",
"r$	c #998F4A",
"s$	c #564D40",
"t$	c #2E4547",
"u$	c #273F4B",
"v$	c #263E4C",
"w$	c #274146",
"x$	c #1F3337",
"y$	c #263037",
"z$	c #7A797D",
"A$	c #817A70",
"B$	c #706338",
"C$	c #8C813F",
"D$	c #B2AA56",
"E$	c #BCB45A",
"F$	c #BCB25C",
"G$	c #B7AC5C",
"H$	c #BEB361",
"I$	c #BDB35A",
"J$	c #BDB359",
"K$	c #BBB15F",
"L$	c #B0A65B",
"M$	c #555334",
"N$	c #707880",
"O$	c #435159",
"P$	c #3F5157",
"Q$	c #60646A",
"R$	c #85878E",
"S$	c #504C40",
"T$	c #7C703C",
"U$	c #9F9041",
"V$	c #AEA252",
"W$	c #B8B15F",
"X$	c #B4A754",
"Y$	c #968A47",
"Z$	c #8D7F3E",
"`$	c #A6964D",
" %	c #B5A651",
".%	c #B5A559",
"+%	c #AA9F52",
"@%	c #978F53",
"#%	c #837C68",
"$%	c #303E44",
"%%	c #575B41",
"&%	c #867D41",
"*%	c #A69653",
"=%	c #A59743",
"-%	c #A19541",
";%	c #998F47",
">%	c #857B44",
",%	c #8B8772",
"'%	c #98927F",
")%	c #918971",
"!%	c #89815D",
"~%	c #89845C",
"{%	c #939072",
"]%	c #49596F",
"^%	c #314150",
"/%	c #3C423E",
"(%	c #55513B",
"_%	c #6E663E",
":%	c #6F6942",
"<%	c #565237",
"[%	c #676567",
"}%	c #2B404D",
"|%	c #23404F",
"1%	c #253F47",
"2%	c #2C3D49",
"3%	c #213036",
"4%	c #222D32",
"5%	c #616D77",
"6%	c #324452",
"7%	c #344452",
"8%	c #576069",
"                                                                                                    ",
"  . . . . . . . . . . . . . . . . . . . . . . . . . . . . . . . . . . . . . . . . . . . . . . . .   ",
"  . . . . . . . . . . . . . . . . . . . . . . . . . . . . . . . . . . . . . . . . . . . . . . . .   ",
"  . . . . . . . . . . . . . . . . . . . . . . . . . . . . . . . . . . . . . . . . . . . . . . . .   ",
"  . . . . . . . . . . . . . . . . . . . . . . . . . . . . . . . . . . . . . . . . . . . . . . . .   ",
"  . . . . . . . . . . . . . . . . . . . . . . . . . . . . . . . . . . . . . . . . . . . . . . . .   ",
"  . . . . . . . . . + @ # $ % & * . . . . . . . . . . . . . . . . . . . . . . . . . . . . . . . .   ",
"  . . . . . . . . = - ; > > , , ' ) . . . . . . ! ~ { ] ^ . . . . . . . . . . . . . . . . . . . .   ",
"  . . . . . . . / ( _ : < [ < } | 1 2 3 4 5 6 7 < < < < 8 9 . . . . . . . . . 0 . . . . . . . . .   ",
"  . . . . . . . a b c d [ [ } e f g h i j j k l < < < < m n o . . . . . . . p q r . . . . . . . .   ",
"  . . . . . . . s t u v w } [ x y z A A [ < < [ < < < < B < C D E F G H I J K L M N . . . . . . .   ",
"  . . . . . . . O P Q R S T U V W X < < [ [ [ [ < < < < Y Y > Z `  ...+.@.#.$.%.&.*.=.. . . . . .   ",
"  . . . . . . . -.;.>.,.'.).!.~.< < < < < < < < < < < < < < < < < < < < {.].^./.(._.:.. . . . . .   ",
"  . . . . . . . . <.[.}.|.1.2.3.< < < < < < < < < < < < < < < < < < < < 4.5.6.7.8.9.0.. . . . . .   ",
"  . . . . . . . . . a.b.c.c.d.A < < < < < < < < < < < < < < < < < < < < Z e.f.g.h.i.. . . . . . .   ",
"  . . . . . . . . . 9 - j j < < < j.j.j.< < < < < < < < < < < < < < < j.k.l.m.n.o.. . . . . . . .   ",
"  . . . . . . . . . p.q.< r.r.< s.` t.u.< < < < < < < < < < < < < < < < < < < v.w.. . . . . . . .   ",
"  . . . . . . . . . x.y.j.z.z.j.A.B.B.B.< < < < < < < < < < < < < < < < < < < < C.. . . . . . . .   ",
"  . . . . . . . . . D.E.F.G.H.I.J.K.I.L.< < < < < < < < < < < < < < < < < < < < } . . . . . . . .   ",
"  . . . . . . . . . M.N.O.P.Q.R.S.T.U.V.W.j.< [ [ < < j.j.< < j.< < < < < < < < X.Y.. . . . . . .   ",
"  . . . . . . . . . Z.`. +.+++@+#+$+%+&+*+=+-+;+>+,+q.'+)+B.< !+j.< < < < < < < ~+{+. . . . . . .   ",
"  . . . . . . . . . ]+^+/+(+_+:+<+[+}+|+1+K.2+3+4+5+6+7+8+u.9+< < < < < < < < < 0+a+. . . . . . .   ",
"  . . . . . . . . . b+c+d+e+f+g+^.h+i+j+k+l+m+n+o+p+q+r+s+t+u+v+< < < < < < < < w+..x+. . . . . .   ",
"  . . . . . . . . . y+z+A+B+C+D+E+F+G+H+I+J+K+L+M+N+O+P+Q+R+S+T+< < < < < < < j.U+V+W+X+. . . . .   ",
"  . . . . . . . . . Y+Z+`+ @.@+@@@#@$@%@&@*@=@-@;@>@,@'@)@!@~@{@< < < < < < < j.z.]@[ ^@. . . . .   ",
"  . . . . . . . . . /@(@_@:@<@[@}@|@1@2@3@4@5@6@7@8@9@0@a@b@c@d@< < < < < < < j.z.e@f@g@. . . . .   ",
"  . . . . . . . . . . h@i@j@k@l@m@n@o@p@q@r@s@t@u@v@w@x@y@z@A@, < < < < < < < j.B@< C@. . . . . .   ",
"  . . . . . . . . . . . D@E@F@G@H@I@J@K@L@M@N@O@P@Q@R@S@T@U@V@X [ < < < < < < j.W@X@Y@. . . . . .   ",
"  . . . . . . . . . . . Z@`@ #.#+#@###$#%#&#*#=#-#;#>#,#'#)#j.< < < < < d.< Y '+!#~#. . . . . . .   ",
"  . . . . . . . . . . {#]#^#/#(#_#_#:#<#[#}#|#1#2#3#4#5#6#7#j.< < < < < < < c.8#9#. . . . . . . .   ",
"  . . . . . . . . . . 0#a#b#c#d#_#e#_#+#f#g#h#i#j#k#l#m#n#o#j.< < < < < Y A p#q#r#. . . . . . . .   ",
"  . . . . . . . . . . s#t#u#v#w#x#y#y#z#x#_#A#B#C#D#E#F#G#H#j.[ < j.< < I#J#K#L#. . . . . . . . .   ",
"  . . . . . . . . . . M#N#O#P#Q#R#S#T#U#V#W#x#B#x#X#Y#Z#`# $J..$+$v.I.@$#$$$%$&$. . . . . . . . .   ",
"  . . . . . . . . . . *$=$-$;$>$,$'$)$!$~${$]$B#^$P /$($_$:$<$[$}$|$1$2$3$4$5$. . . . . . . . . .   ",
"  . . . . . . . . . . 6$7$8$9$0$a$b$c$d$e$f$]$g$h$X#P i$j$k$l$m$n$o$p$q$r$s$. . . . . . . . . . .   ",
"  . . . . . . . . . . . t$u$v$w$x$y$z$A$B$C$D$]$]$h$x#E$F$G$H$I$J$h#K$L$M$. . . . . . . . . . . .   ",
"  . . . . . . . . . . . . N$O$P$Q$. . R$S$T$U$V$W$x#J$X$Y$Z$`$ %.%+%@%#%. . . . . . . . . . . . .   ",
"  . . . . . . . . . . . . . . . . . . . $%%%&%*%=%-%;%>%,%'%)%!%~%{%. . . . . . . . . . . . . . .   ",
"  . . . . . . . . . . . . . . . . . . . ]%^%/%(%_%:%<%[%. . . . . . . . . . . . . . . . . . . . .   ",
"  . . . . . . . . . . . . . . . . . . . . }%|%1%2%3%4%. . . . . . . . . . . . . . . . . . . . . .   ",
"  . . . . . . . . . . . . . . . . . . . . . 5%6%7%8%. . . . . . . . . . . . . . . . . . . . . . .   ",
"  . . . . . . . . . . . . . . . . . . . . . . . . . . . . . . . . . . . . . . . . . . . . . . . .   ",
"  . . . . . . . . . . . . . . . . . . . . . . . . . . . . . . . . . . . . . . . . . . . . . . . .   ",
"  . . . . . . . . . . . . . . . . . . . . . . . . . . . . . . . . . . . . . . . . . . . . . . . .   ",
"  . . . . . . . . . . . . . . . . . . . . . . . . . . . . . . . . . . . . . . . . . . . . . . . .   ",
"  . . . . . . . . . . . . . . . . . . . . . . . . . . . . . . . . . . . . . . . . . . . . . . . .   ",
"  . . . . . . . . . . . . . . . . . . . . . . . . . . . . . . . . . . . . . . . . . . . . . . . .   ",
"  . . . . . . . . . . . . . . . . . . . . . . . . . . . . . . . . . . . . . . . . . . . . . . . .   ",
"  . . . . . . . . . . . . . . . . . . . . . . . . . . . . . . . . . . . . . . . . . . . . . . . .   ",
"                                                                                                    "};
