/* XPM */
static char *star_00[] = {
/* columns rows colors chars-per-pixel */
"30 30 2 1 ",
". c #8D8662",
"W c #A39E8E",
/* pixels */
"WWWWWWWWWWWWWWWWWWWWWWWWWWWWWW",
"W............................W",
"W............................W",
"W............................W",
"W............................W",
"W............................W",
"W............................W",
"W............................W",
"W............................W",
"W............................W",
"W............................W",
"W............................W",
"W............................W",
"W............................W",
"W............................W",
"W............................W",
"W............................W",
"W............................W",
"W............................W",
"W............................W",
"W............................W",
"W............................W",
"W............................W",
"W............................W",
"W............................W",
"W............................W",
"W............................W",
"W............................W",
"W............................W",
"WWWWWWWWWWWWWWWWWWWWWWWWWWWWWW"
};
