/* XPM */
static char *result[] = {
/* columns rows colors chars-per-pixel */
"30 30 150 2 ",
"*/ c #A39E8E",
"*- c #8D8662",
"   c #1A0206",
".  c #1A020F",
"X  c #140212",
"o  c #1F0112",
"O  c #220002",
"+  c #2B0103",
"@  c #24010C",
"#  c #2B010D",
"$  c #340105",
"%  c #3D0104",
"&  c #32020A",
"*  c #3A010A",
"=  c #420106",
"-  c #4B0203",
";  c #4D0D00",
":  c #43020C",
">  c #4D020D",
",  c #460B0A",
"<  c #4D0E0B",
"1  c #530203",
"2  c #5D0202",
"3  c #52020D",
"4  c #5C070D",
"5  c #4D1000",
"6  c #511000",
"7  c #5D1301",
"8  c #440B16",
"9  c #4A0812",
"0  c #4F061E",
"q  c #560312",
"w  c #50061A",
"e  c #630303",
"r  c #6E0501",
"t  c #6B0C05",
"y  c #670D0F",
"u  c #6E090D",
"i  c #730402",
"p  c #7A0701",
"a  c #7F0901",
"s  c #7B020D",
"d  c #740B0C",
"f  c #631301",
"g  c #6B1501",
"h  c #65100D",
"j  c #711601",
"k  c #77150C",
"l  c #7C1A09",
"z  c #620412",
"x  c #690414",
"c  c #660419",
"v  c #750D13",
"b  c #74041A",
"n  c #721312",
"m  c #7C1611",
"M  c #8F0700",
"N  c #830B00",
"B  c #8B0C01",
"V  c #88030F",
"C  c #810D0A",
"Z  c #8B0D0B",
"A  c #960301",
"S  c #9C0301",
"D  c #960A03",
"F  c #9B0D00",
"G  c #92020F",
"H  c #9A0D0D",
"J  c #841604",
"K  c #8E1505",
"L  c #8E1F07",
"P  c #931405",
"I  c #9C1201",
"U  c #921B0F",
"Y  c #810311",
"T  c #800A10",
"R  c #930613",
"E  c #A40300",
"W  c #A20C00",
"Q  c #AB0C02",
"!  c #B50400",
"~  c #BD0300",
"^  c #B40E01",
"/  c #B90C05",
"(  c #A41101",
")  c #A81100",
"_  c #A71F01",
"`  c #AE1E02",
"'  c #A21508",
"]  c #AF1609",
"[  c #BB1302",
"{  c #BE1D03",
"}  c #B4150B",
"|  c #8A2405",
" . c #872013",
".. c #A52402",
"X. c #AE2706",
"o. c #A32F01",
"O. c #AB2C04",
"+. c #B22601",
"@. c #B0210B",
"#. c #AD3705",
"$. c #A53A04",
"%. c #B03A05",
"&. c #B93B05",
"*. c #C40500",
"=. c #CB0500",
"-. c #CB0B01",
";. c #D40F07",
":. c #DB0B02",
">. c #C71004",
",. c #C41801",
"<. c #CA1A02",
"1. c #C41309",
"2. c #CA140C",
"3. c #D1130A",
"4. c #E10C01",
"5. c #C52602",
"6. c #CE2209",
"7. c #CE290E",
"8. c #DA270E",
"9. c #C03304",
"0. c #C53D05",
"q. c #D43004",
"w. c #F32100",
"e. c #FD2A00",
"r. c #E13D07",
"t. c #BB4205",
"y. c #C34204",
"u. c #CB4005",
"i. c #D44100",
"p. c #D84D05",
"a. c #C35405",
"s. c #CE5B04",
"d. c #D75F03",
"f. c #DB5803",
"g. c #E04300",
"h. c #EB4D06",
"j. c #E75604",
"k. c #D66308",
"l. c #D87B0B",
"z. c #E66803",
"x. c #E27501",
"c. c #F07403",
"v. c #EE8304",
"b. c #F08600",
"n. c #F29B0D",
"m. c #F9AE18",
"M. c #FBC522",
"N. c #FDC925",
/* pixels */
"*/*/*/*/*/*/*/*/*/*/*/*/*/*/*/*/*/*/*/*/*/*/*/*/*/*/*/*/*/*/",
"*/*-*-*-*-*-*-*-*-*-*-*-*-*-*-*-*-*-*-*-*-*-*-*-*-*-*-*-*-*/",
"*/*-*-*-*-*-*-*-*-*-*-*-*-*-*-*-*-*-*-*-*-*-*-*-*-*-*-*-*-*/",
"*/*-*-*-*-*-*-*-*-*-*-*-` q.9...j 7 *-*-*-*-*-*-*-*-*-*-*-*/",
"*/*-*-*-*-*-*-*-*-*-*-5.k.l.a.#.P r g *-*-*-*-*-*-*-*-*-*-*/",
"*/*-*-*-*-*-*-*-*-*-` j.N.M.z.u.,.S W g *-*-*-*-*-*-*-*-*-*/",
"*/*-*-*-*-*-*-*-*-7 r.c.M.n.f.&.<.*.=.^ 6 *-*-*-*-*-*-*-*-*/",
"*/*-*-*-*-*-*-*-*-+.h.m.b.x.a.O.[ :.:.:.J *-*-*-*-*-*-*-*-*/",
"*/*-*-*-*-*-*-*-5 7.j.v.x.d.#.K S -.=.4.1.5 *-*-*-*-*-*-*-*/",
"*/*-*-*-*-*-*-*-J 8.p.k.s.&...B M Q Q -.;.J *-*-*-*-*-*-*-*/",
"*/*-*-*-*-*-*-*-} 6.0.y.&.O.P D D +...) ^ ] *-*-*-*-*-*-*-*/",
"*/*-*-*-*-*-*-f 3.{ +.+._ I F F I i.o.| ' 2.f *-*-*-*-*-*-*/",
"*/*-*-*-*-*-*-P 2.^ ) ) W ( F W W g.$.| K } P *-*-*-*-*-*-*/",
"*/*-*-*-*-*-*-] ;.*.! W W E E E E ,.L l d H ] *-*-*-*-*-*-*/",
"*/*-*-*-*-*-5 2.:.w.! F A E E E ~ Q d u d Z 1.; 1 *-*-*-*-*/",
"*/*-*-*-*-*-f ;.:.e.=.S A E E S / @.y x x s ;.f - *-*-*-*-*/",
"*/*-*-*-*-*-g >.~ =.S S E S E ! H U n z x V :.t + *-O *-*-*/",
"*/*-*-*-+ 1 f [ ) Q Z d D S E S Y v 4 q x R R 9 @ - - *-*-*/",
"*/*-*-*-*-+ < J D ( K u m ' E s x > B 3 c b b * - - + *-*-*/",
"*/*-*-= - % , h u u Z u k  .{ c 3 a a > 0 0 q y 1 % *-*-*-*/",
"*/*-*-*-% - = < 3 q z 4 r t m 9 e e r : : e i e = *-*-*-*-*/",
"*/*-*-*-*-r B a p e = : - 3 & & = 1 e $ 3 - e * *-*-*-*-*-*/",
"*/*-*-*-*-*-2 p e e e $ & # # @ # = 1 2 * 1 = - - - *-*-*-*/",
"*/*-*-*-*-*-- - e 2 2 $ & # . . o * > 2 # & 2 1 $ *-*-*-*-*/",
"*/*-*-*-*-*-*-1 t e % $ # @ @ X X o # : > : *-*-*-*-*-*-*-*/",
"*/*-*-*-*-*-e N p i 2 2 - 1 # @ & : & @ * * $ *-*-*-*-*-*-*/",
"*/*-*-*-*-*-*-*-O + $ 2 r 1   $ e 1 *-*-*-*-*-*-*-*-*-*-*-*/",
"*/*-*-*-*-*-*-*-*-*-*-$ *-*-*-*-*-*-*-*-*-*-*-*-*-*-*-*-*-*/",
"*/*-*-*-*-*-*-*-*-*-*-*-*-*-*-*-*-*-*-*-*-*-*-*-*-*-*-*-*-*/",
"*/*/*/*/*/*/*/*/*/*/*/*/*/*/*/*/*/*/*/*/*/*/*/*/*/*/*/*/*/*/"
};
