/* XPM */
static char *result[] = {
/* columns rows colors chars-per-pixel */
"30 30 62 1 ",
"/ c #A39E8E",
"! c #8D8662",
"  c #78911F",
". c #8A832D",
"X c #989E36",
"o c #999738",
"O c #99A537",
"+ c #9EAA39",
"@ c #B9A72C",
"# c #ACA634",
"$ c #A6A932",
"% c #A7A837",
"& c #ACA933",
"* c #A7A73D",
"= c #A9A73B",
"- c #AAA73A",
"; c #AFA53C",
": c #A3A938",
"> c #A7A93A",
", c #A8A83B",
"< c #ABAC3B",
"1 c #B1A531",
"2 c #B2AB30",
"3 c #B3A93C",
"4 c #B3AD3F",
"5 c #B5AC3F",
"6 c #CBA824",
"7 c #C8AD27",
"8 c #C5AD2D",
"9 c #D1AD25",
"0 c #D9AF2D",
"q c #C1B12C",
"w c #CFB02D",
"e c #CCB32F",
"r c #D9B72B",
"t c #DEBC32",
"y c #E7BC2E",
"u c #EEBD31",
"i c #FAC916",
"p c #FBC71C",
"a c #F0CC1D",
"s c #F0CE2D",
"d c #F8C82A",
"f c #E6C137",
"g c #EACD3D",
"h c #EDCF3C",
"j c #F6C831",
"k c #A3B748",
"l c #B3B444",
"z c #BAB145",
"x c #B8B147",
"c c #B2B54A",
"v c #C9A845",
"b c #D2BF4C",
"n c #C5BA58",
"m c #B6C454",
"M c #D5C04B",
"N c #CFC050",
"B c #D1C755",
"V c #D9C95B",
"C c #E8CA46",
"Z c #E8CE56",
/* pixels */
"//////////////////////////////",
"/!!!!!!!!!!!!!!!!!!!!!!!!!!!!/",
"/!!!!!!!!!!!!!!!!!!!!!!!!!!!!/",
"/!!!!!!!!!!!!!!!!!!!!!!!!!!!!/",
"/!!!!!!!!!!!!!!!!!!!!!!!!!!!!/",
"/!!!!!!!!!!!!!!!!!!!!!!!!!!!!/",
"/!!!!!!!!!!!!!!!!!!!!!!!!!!!!/",
"/!!!!!!!!!!!!!!!!!!!!!!!!!!!!/",
"/!!!!!!!!!!!!!!!!!!!!!!!!!!!!/",
"/!!!!!!!!!!!!!!!!!!!!!!!!!!!!/",
"/!!!!!!!!!!!!!!!!!!!!!!!!!!!!/",
"/!!!!!!!!!!!!!!!!!!!!!!!!!!!!/",
"/!!!!!!!!!!!!!!!!!!!!!!!!!!!!/",
"/!!!!!!!!!!!!!!!!!!!!!!!!!!!!/",
"/!!!!!!!!!!!!!!!!!!!!!!!!!!!!/",
"/!!!!!!!!!!!!!!!!!!!!!!!!!!!!/",
"/!!!!!!!!!!!!!!a7!!!!!!!!!!!!/",
"/!!!!!!!!!!!!!!shZ!!!!!!!!!!!/",
"/!!!!!!!!!!!!!VMbNB!!!mk!!!!!/",
"/!!!!!!!!!!!o<-###&3z!!X!!!!!/",
"/!!!!!!!!!x>$28weq@#%*!!!!!!!/",
"/!!!!!!!!;-$qttewrfe#>=!!!!!!/",
"/!!!!!!!!->&ru92@9uw1:<!!!!!!/",
"/!!!!d!!!,::8yytty0@>+l!!!!!!/",
"/!!!!!!!!!X:$2222&&-,!!!!!!!!/",
"/!!!!!!!!!!!.;5444cn!!!!!!!!!/",
"/!!!!!!!!!!!!!!CggV!!!O !!!!!/",
"/!!!!!!!!!!!!!!!ipv!!!!!!!!!!/",
"/!!!!!!!!!!!!!!!6j!!!!!!!!!!!/",
"//////////////////////////////"
};
