/* XPM */
static char *block[] = {
/* columns rows colors chars-per-pixel */
"32 32 2 1 ",
"  c #59533D",
". c #A39E8E",
/* pixels */
"................................",
"..       .            .       ..",
".        .            .        .",
".        .            .        .",
"................................",
".    .                    .    .",
".    .                    .    .",
".    .                    .    .",
"................................",
".        .            .        .",
".        .            .        .",
".        .            .        .",
".        .            .        .",
"................................",
".    .                    .    .",
".    .                    .    .",
".    .                    .    .",
"................................",
".        .            .        .",
".        .            .        .",
".        .            .        .",
".        .            .        .",
"................................",
".    .                    .    .",
".    .                    .    .",
".    .                    .    .",
"................................",
".        .            .        .",
".        .            .        .",
".        .            .        .",
"..       .            .       ..",
"................................"
};
