/* XPM */
static char *b602c71808bc4683db8276ea20286d14R9Nfa8KiTlKqaA2o[] = {
/* columns rows colors chars-per-pixel */
"30 30 172 2 ",
"*/ c #A39E8E",
"*- c #8D8662",
".  c #383124",
"X  c #373D3B",
"o  c #5A390E",
"O  c #4C361A",
"+  c #683F11",
"@  c #6F440E",
"#  c #654317",
"$  c #7D5116",
"%  c #4E4325",
"&  c #4C4635",
"*  c #745320",
"=  c #72593D",
"-  c #6A5438",
";  c #386D79",
":  c #4C504F",
">  c #535A46",
",  c #545652",
"<  c #454A49",
"1  c #635945",
"2  c #5B6052",
"3  c #676E5C",
"4  c #777559",
"5  c #5E7678",
"6  c #486667",
"7  c #716D60",
"8  c #7A7F64",
"9  c #767676",
"0  c #9C6F28",
"q  c #886D37",
"w  c #876B4B",
"e  c #857346",
"r  c #8B7A5F",
"t  c #807651",
"y  c #9B7E57",
"u  c #8F7C60",
"i  c #71857A",
"p  c #BE903D",
"a  c #C78E3E",
"s  c #9F835F",
"d  c #B38443",
"f  c #B48A58",
"g  c #BA9654",
"h  c #8F8E66",
"j  c #88836C",
"k  c #948064",
"l  c #81897D",
"z  c #8D8A78",
"x  c #988E75",
"c  c #93977C",
"v  c #A58B62",
"b  c #B09167",
"n  c #AC9779",
"m  c #BB9B71",
"M  c #C69457",
"N  c #C89D66",
"B  c #CCA06B",
"V  c #D3A56F",
"C  c #567A82",
"Z  c #3E8A9B",
"A  c #3C8DAA",
"S  c #538C98",
"D  c #53929D",
"F  c #6F8489",
"G  c #7A9B9C",
"H  c #768A88",
"J  c #408DA9",
"K  c #4896A8",
"L  c #4698B6",
"P  c #7C9FA2",
"I  c #49A3B6",
"U  c #66A1AA",
"Y  c #7BA2A9",
"T  c #7EB9AD",
"R  c #67ACBE",
"E  c #169EC6",
"W  c #4FABC5",
"Q  c #52A7C5",
"!  c #4FB0C1",
"~  c #5BB2C8",
"^  c #55BCDD",
"/  c #57B9D5",
"(  c #68AEC0",
")  c #66B7CB",
"_  c #74BBCB",
"`  c #44BCE3",
"'  c #59C5DC",
"]  c #5AC4E5",
"[  c #5CCDE4",
"{  c #5FD4EA",
"}  c #61D8ED",
"|  c #67E5F4",
" . c #8A8D8A",
".. c #8A8E85",
"X. c #899884",
"o. c #969687",
"O. c #8B9591",
"+. c #889997",
"@. c #959793",
"#. c #A59F8A",
"$. c #9CA397",
"%. c #92A091",
"&. c #88B19B",
"*. c #BCA98B",
"=. c #ADA898",
"-. c #87A3A4",
";. c #89A9AA",
":. c #94A6A5",
">. c #95A9A9",
",. c #9AACAC",
"<. c #82B7A6",
"1. c #87ACB2",
"2. c #96AEB0",
"3. c #9DB1B2",
"4. c #9EB8BE",
"5. c #ABAEA3",
"6. c #BBBDAD",
"7. c #A8B8BA",
"8. c #B8BDB0",
"9. c #C3BA9F",
"0. c #C0BBAE",
"q. c #BCC3BB",
"w. c #C3C4B5",
"e. c #8CBFC3",
"r. c #A5BFC3",
"t. c #B4BCC0",
"y. c #99C4CB",
"u. c #9ECBD8",
"i. c #ADC8CE",
"p. c #AEC6CA",
"a. c #A0C6D0",
"s. c #B3CCD2",
"d. c #B5D1D7",
"f. c #B8C7C5",
"g. c #9DDBF7",
"h. c #89D5E5",
"j. c #BDDDE5",
"k. c #BEDFE8",
"l. c #B3D6E0",
"z. c #AEE6FD",
"x. c #BDE5F5",
"c. c #CECECC",
"v. c #D0D0CD",
"b. c #C6D8D6",
"n. c #D3D6D2",
"m. c #DDDCD4",
"M. c #E1DFD6",
"N. c #DDEBDA",
"B. c #FAFBCE",
"V. c #E5E2D7",
"C. c #E0EED8",
"Z. c #E9F2DE",
"A. c #FFFFD4",
"S. c #FFFFDB",
"D. c #C4DDE4",
"F. c #CCDDE1",
"G. c #C3E3ED",
"H. c #CDE7EF",
"J. c #D8EAEA",
"K. c #C8EBF6",
"L. c #C8E9F5",
"P. c #D1EDF6",
"I. c #DDF3F9",
"U. c #E2EEE8",
"Y. c #E9EEE3",
"T. c #EDF3E7",
"R. c #FDFDE3",
"E. c #FFFFE9",
"W. c #EBF4F8",
"Q. c #FEFDFB",
"!. c #F7F8F6",
/* pixels */
"*/*/*/*/*/*/*/*/*/*/*/*/*/*/*/*/*/*/*/*/*/*/*/*/*/*/*/*/*/*/",
"*/*-*-*-*-*-*-*-*-*-*-*-*-*-*-*-*-*-*-*-*-*-*-*-*-*-*-*-*-*/",
"*/*-*-*-*-*-*-*-*-*-*-*-*-*-*-R.E.R.E.E.R.*-*-*-*-*-*-*-*-*/",
"*/*-*-*-*-*-*-*-*-*-*-*-*-S.R.*-*-*-W.*-Y.A.*-*-*-*-*-*-*-*/",
"*/*-*-*-*-*-*-*-*-*-*-*-*-E.A.R.Y.U.U.Z.B.A.*-*-*-*-*-*-*-*/",
"*/*-*-*-*-*-*-*-*-*-*-*-*-*-*-T.Z.C.C.N.T.*-*-*-*-*-*-*-*-*/",
"*/*-*-*-*-*-*-*-*-*-*-*-*-*-*-F.j.K.G.P.D.*-*-*-*-*-*-*-*-*/",
"*/*-*-*-*-*-*-*-*-*-*-*-*-*-*-3.s.I.P.H.H.*-*-*-*-*-*-*-*-*/",
"*/*-*-*-*-*-*-*-*-*-*-*-*-*-*-:.>.D.L.G.k.*-*-*-*-*-*-*-*-*/",
"*/*-*-*-*-*-*-*-*-*-*-*-*-*-*-*-+.-.-.i.4.*-*-*-*-*-*-*-*-*/",
"*/*-*-*-*-*-*-*-*-*-*-*-*-*-*-1 g G l.G.o.*-*-*-*-*-*-*-*-*/",
"*/*-*-*-*-*-*-*-*-*-*-*-*-*-..5.,.i.I.W.J.$.*-*-*-*-*-*-*-*/",
"*/*-*-*-*-*-*-*-*-*-*-*-*-*-0.5.>.7.r.p.d.q.*-*-*-*-*-*-*-*/",
"*/*-*-*-*-*-*-*-*-*-*-*-*-*-y w.7.Y Y Y ,.3.5 f.*-*-*-*-*-*/",
"*/*-*-*-*-*-*-*-*-*-*-*-*-- m #.k.3.k.K.G.b.2.s.F *-*-*-*-*/",
"*/*-*-*-*-*-*-*-*-*-*-*-*-B M 9.s.>.d.K.G.N $.a.x.*-*-*-*-*/",
"*/*-*-*-*-*-*-*-*-*-*-*-= V d ( -.:.,.j.K.v %.u.K.x.*-*-*-*/",
"*/*-*-*-*-*-*-*-*-*-*-*-f N 8 { ) >.:.3.L.P c ) g.z.J *-*-*/",
"*/*-*-*-*-*-*-*-*-*-*-*-f a h <./ _ :.>.y.c 4 1.E ` A *-*-*/",
"*/*-*-*-*- .9 *-*-*-*-*-w *.n s r ..c r k n z ,._ W *-*-*-*/",
"*/*-*-~ !.Q.Q.h.*-*-*-*-*-o.x 8.w.=.l o.6...z +.7.*-*-*-*-*/",
"*/*-*-7.c.c.v.t.*-*-*-*-*-*-> Z U ;.e.D K ; o *-*-*-*-*-*-*/",
"*/*-*-n.M.V.V.m.*-*-*-*-*-$ L [ I I ! W ' / e *-*-*-*-*-*-*/",
"*/*-*- .v.n.n.7.*-*-*-*-*-t ' } ^ | | [ [ } S @ *-*-*-*-*-*/",
"*/*-*-L y.J.b.Q *-*-*-*-0 h &.) ^ | | ] / T X.p *-*-*-*-*-*/",
"*/*-*-*-C @.+.*-*-*-*-*-O i v y j G Y l u b j 2 *-*-*-*-*-*/",
"*/*-*-*-*-*-*-*-*-*-*-*-C R O.O., & 3 7 O.O.H ] *-*-*-*-*-*/",
"*/*-*-*-*-*-*-*-*-*-*-*-*-q*- X*- 6 ~ . : < % > # *-*-*-*-*/",
"*/*-*-*-*-*-*-*-*-*-*-*-*-*-*-*-*-+ *-* *-*-*-*-*-*-*-*-*-*/",
"*/*/*/*/*/*/*/*/*/*/*/*/*/*/*/*/*/*/*/*/*/*/*/*/*/*/*/*/*/*/"
};
