/* XPM */
static char *result[] = {
/* columns rows colors chars-per-pixel */
"30 30 242 2 ",
"*/ c #A39E8E",
"*- c #8D8662",
"   c #33220B",
".  c #1A3236",
"X  c #262621",
"o  c #3A3224",
"O  c #39362A",
"+  c #393C34",
"@  c #432E12",
"#  c #443F2D",
"$  c #4B3D2A",
"%  c #49462D",
"&  c #444539",
"*  c #68552A",
"=  c #7B582D",
"-  c #6A5735",
";  c #685539",
":  c #795930",
">  c #70573C",
",  c #7A623B",
"<  c #234043",
"1  c #39545B",
"2  c #306777",
"3  c #424949",
"4  c #434F4F",
"5  c #524D40",
"6  c #515243",
"7  c #5B5743",
"8  c #515449",
"9  c #505B5E",
"0  c #7B674B",
"q  c #686852",
"w  c #646A58",
"e  c #756F57",
"r  c #6F7059",
"t  c #6F725C",
"y  c #79755F",
"u  c #666C64",
"i  c #676E6A",
"p  c #696B6D",
"a  c #6D7460",
"s  c #727462",
"d  c #787362",
"f  c #797D6C",
"g  c #677677",
"h  c #687274",
"j  c #767E75",
"k  c #797F76",
"l  c #72777C",
"z  c #8A6234",
"x  c #916B3E",
"c  c #936C3F",
"v  c #9C7432",
"b  c #A3783B",
"n  c #826D4F",
"m  c #8B794B",
"M  c #807157",
"N  c #8F7551",
"B  c #AC7D44",
"V  c #A47B49",
"C  c #A17C53",
"Z  c #887C60",
"A  c #5F837B",
"S  c #9E855F",
"D  c #AE864F",
"F  c #AE8351",
"G  c #AC8851",
"H  c #BB8E58",
"J  c #8D836B",
"K  c #918164",
"L  c #968A6F",
"P  c #988A72",
"I  c #83927B",
"U  c #86917D",
"Y  c #8C927F",
"T  c #AE8B60",
"R  c #BB9B75",
"E  c #C89961",
"W  c #C3996A",
"Q  c #C09C70",
"!  c #438795",
"~  c #7F868C",
"^  c #70978F",
"/  c #6C8E93",
"(  c #668B99",
")  c #709397",
"_  c #7C9096",
"`  c #72919A",
"'  c #7F9399",
"]  c #7A9799",
"[  c #79A69E",
"{  c #5499B0",
"}  c #5CA8B3",
"|  c #6BA3A5",
" . c #6AA8AC",
".. c #67ABB7",
"X. c #7FAFBE",
"o. c #28A6CD",
"O. c #3CB2D7",
"+. c #51ADC5",
"@. c #58AAC2",
"#. c #5EBBC9",
"$. c #7CC4DA",
"%. c #4BC2EA",
"&. c #5EC4E6",
"*. c #5DCAF0",
"=. c #64C5E7",
"-. c #69C5E3",
";. c #7CC7E2",
":. c #64D0F5",
">. c #8B8E8C",
",. c #8A9084",
"<. c #85928C",
"1. c #8E938B",
"2. c #8E938E",
"3. c #899A89",
"4. c #9F9885",
"5. c #92988D",
"6. c #96998D",
"7. c #828E91",
"8. c #829B9C",
"9. c #83999E",
"0. c #929E93",
"q. c #969D93",
"w. c #989E93",
"e. c #A79C87",
"r. c #A4A189",
"t. c #AAA38B",
"y. c #A8A68A",
"u. c #A3B786",
"i. c #A1A79D",
"p. c #B1AD98",
"a. c #8DA1A0",
"s. c #90A6A6",
"d. c #94A6A6",
"f. c #94A7A6",
"g. c #9BA6A0",
"h. c #97AAA9",
"j. c #98ABAA",
"k. c #99ACAB",
"l. c #9AACAB",
"z. c #9DAFAE",
"x. c #9AAEB7",
"c. c #8AB7BE",
"v. c #9CB2B0",
"b. c #9DB2B2",
"n. c #ACACA0",
"m. c #B6B2A3",
"M. c #A5B6B6",
"N. c #ADB9B3",
"B. c #A0B6B9",
"V. c #A2B9BB",
"C. c #A2BABD",
"Z. c #A3BDBD",
"A. c #A6BCBD",
"S. c #ACBABA",
"D. c #B2BAB1",
"F. c #B5BCB3",
"G. c #B0BFB7",
"H. c #BBBCB2",
"J. c #D4D0B6",
"K. c #85B9C8",
"L. c #9DBCC2",
"P. c #A3BBC2",
"I. c #A6BFC6",
"U. c #B8BCC1",
"Y. c #9BC0CA",
"T. c #9BC0CB",
"R. c #8BC5D3",
"E. c #9DC6D1",
"W. c #A8C1C5",
"Q. c #AAC3C7",
"!. c #B1C4C3",
"~. c #B5C4C3",
"^. c #B3C5C7",
"/. c #B9C7C7",
"(. c #B3C6C9",
"). c #B7CBCB",
"_. c #A3CBD7",
"`. c #A8CFD1",
"'. c #B7D0D6",
"]. c #81CAE5",
"[. c #84D2F1",
"{. c #A5DCEF",
"}. c #B9D7E0",
"|. c #BCDBE4",
" X c #86EEE4",
".X c #89FEF9",
"XX c #C2CBCA",
"oX c #C5CCC8",
"OX c #C5CFCF",
"+X c #DCD9C1",
"@X c #C7D1D1",
"#X c #C6D4D2",
"$X c #C7D4D4",
"%X c #CAD6D6",
"&X c #CFD6D4",
"*X c #CDD7D8",
"=X c #FFFFCD",
"-X c #FFFFCF",
";X c #E5E7D7",
":X c #E1E7DC",
">X c #FCFCD5",
",X c #F3F6DB",
"<X c #F3F0DF",
"1X c #FEFEDB",
"2X c #FFFFDB",
"3X c #C2DCE6",
"4X c #C9DDE5",
"5X c #C0DFE9",
"6X c #C2E3EE",
"7X c #C8E1E8",
"8X c #CCE3EE",
"9X c #D2E9EA",
"0X c #C4E6F1",
"qX c #CEE6F0",
"wX c #CFEAF3",
"eX c #C2EDFD",
"rX c #CEEFFE",
"tX c #D5EBF1",
"yX c #D1EFFE",
"uX c #DBEFF9",
"iX c #D9F1F1",
"pX c #D9F1F4",
"aX c #DEF2F9",
"sX c #DBF4FE",
"dX c #ECEDED",
"fX c #FFFFE2",
"gX c #FFFFE3",
"hX c #FEFEE4",
"jX c #FFFFE5",
"kX c #F3F2EB",
"lX c #FFFFE8",
"zX c #FFFFEB",
"xX c #FFFFED",
"cX c #FFFFEE",
"vX c #EBF6FA",
"bX c #EFF9FD",
"nX c ivory",
"mX c #FAF9F5",
"MX c #F3F9FB",
"NX c None",
/* pixels */
"*/*/*/*/*/*/*/*/*/*/*/*/*/*/*/*/*/*/*/*/*/*/*/*/*/*/*/*/*/*/",
"*/*-*-*-*-*-*-*-*-*-*-*-*-*-*-*-*-*-*-*-*-*-*-*-*-*-*-*-*-*/",
"*/*-*-*-*-*-*-*-*-gXjXxXnXcXxXlX*-*-*-*-*-*-*-*-*-*-*-*-*-*/",
"*/*-*-*-*-*-*-*-zX=X*-*-*-*-*-*--X*-*-*-*-*-*-*-*-*-*-*-*-*/",
"*/*-*-*-*-*-*-*-*-*-2X2XfXhX,X>X1X*-*-*-*-*-*-*-*-*-*-*-*-*/",
"*/*-*-*-*-*-*-*-*-*-*-tXpXiX9X7X*-*-*-*-*-*-*-*-*-*-*-*-*-*/",
"*/*-*-*-*-*-*-*-*-*-vXMXbXaXwX5XB.3X*-*-*-*-*-*-*-*-*-*-*-*/",
"*/*-*-*-*-*-*-*-*-*-n.H.~.(.'.0Xj.V.6X*-*-*-*-*-*-*-*-*-*-*/",
"*/*-*-*-*-*-*-*-*-*-M x n K D.N.k.f.Q.*-*-*-*-*-*-*-*-*-*-*/",
"*/*-*-*-*-*-*-*-*-*-C W R 6.S q.k.d.] _ *-*-*-*-*-*-*-*-*-*/",
"*/*-*-*-*-*-*-*-*-*-*-N F 5 *-*-a.8.s.b.9.*-*-*-*-*-*-*-*-*/",
"*/*-*-*-*-*-*-*-*-*-* , b e > *-k.k.k.j.W.*-*-*-*-*-*-*-*-*/",
"*/*-*-*-*-*-*-*-*-*-.X Xu.U E G g.l.h.h.g *-*-*-*-*-*-*-*-*/",
"*/*-*-*-*-*-*-*-*-$ } #.+.A D p.oXM.) / }.*-*-*-*-*-*-*-*-*/",
"*/*-*-*-*-*-*-*-*-z ^ ..|  .I !.*XOX^.z.|.*-*-*-*-*-*-*-*-*/",
"*/*-*-*-*-*-*-*-*-c e.Q H T v.XX_.{.;.$X' *-*-*-*-*-*-*-*-*/",
"*/*-*-*-*-*-*-*-*-0 4.P 4X<.Z.%X].rXsX$.*-*-*-*-*-*-*-*-*-*/",
"*/*-*-*-*-*-*-*-*-y t.;X:XG.).E.[.yXeX:.h *-*-*-*-*-*-*-*-*/",
"*/*-*-*-*-*-*-*-*-*-r.+XJ.0.A.@.o.=.*.&.*-*-*-*-*-*-*-*-*-*/",
"*/*-*-*-*-*-*-*-*-*-*-= J Z S.L.O.%.-.K.*-*-*-*-*-*-*-*-*-*/",
"*/*-*-*-*-*-*-*-*-*-# : w y.,.&X/.C.@X*-*-*-*-*-*-*-*-*-*-*/",
"*/*-*-*-*-*-*-*-*-*-O 7 a [ B L c.R.- *-*-*-*-*-*-*-*-*-*-*/",
"*/*-*-*-*-*-*-*-*-*-o q r j V m.Y m v *-*-*-P.p *-*-*-*-*-*/",
"*/*-*-*-*-*-*-*-7.8Xs t 6 9 ; 5.8 < *-*->.kXmXdX` ! *-*-*-*/",
"*/*-*-*-*-*-*-*-+ u & X *-  d w.f @ % *-i.I.T.U.~ *-*-*-*-*/",
"*/*-*-*-*-*-*-*-*-*-*-*-*-*-2.1.k *-*-*-F.3.`.x.l *-*-*-*-*/",
"*/*-*-*-*-*-*-*-*-*-*-*-*-3 uXqXi *-*-*-*-Y.X.( *-*-*-*-*-*/",
"*/*-*-*-*-*-*-*-*-*-*-*-*-*-*-*-*-*-*-*-*-<X#X{ 2 *-*-*-*-*/",
"*/*-*-*-*-*-*-*-*-*-*-*-*-*-*-*-*-*-*-*-*-4 1 . *-*-*-*-*-*/",
"*/*/*/*/*/*/*/*/*/*/*/*/*/*/*/*/*/*/*/*/*/*/*/*/*/*/*/*/*/*/"
};
