/* XPM */
static char *result[] = {
/* columns rows colors chars-per-pixel */
"30 30 238 2 ",
"*/ c #A39E8E",
"*- c #8D8662",
"   c #332009",
".  c #24261F",
"X  c #162F38",
"o  c #312E22",
"O  c #373022",
"+  c #373930",
"@  c #412D0F",
"#  c #493B26",
"$  c #433A2A",
"%  c #49462D",
"&  c #434537",
"*  c #685326",
"=  c #7C572D",
"-  c #6D5735",
";  c #695438",
":  c #6F583D",
">  c #7A5930",
",  c #7A6138",
"<  c #1F3E43",
"1  c #3E4649",
"2  c #35535F",
"3  c #2E687C",
"4  c #544D40",
"5  c #505242",
"6  c #5B5743",
"7  c #515649",
"8  c #404D52",
"9  c #4D595E",
"0  c #7C674A",
"q  c #676852",
"w  c #646A57",
"e  c #726E5A",
"r  c #6F7058",
"t  c #6E725C",
"y  c #747056",
"u  c #76725F",
"i  c #646B62",
"p  c #646C68",
"a  c #6B6D6F",
"s  c #6C7460",
"d  c #727460",
"f  c #787D6B",
"g  c #677577",
"h  c #6A7474",
"j  c #777F74",
"k  c #787E75",
"l  c #74777E",
"z  c #8B6233",
"x  c #906B3F",
"c  c #936C3F",
"v  c #9C7332",
"b  c #A37839",
"n  c #826D4F",
"m  c #867648",
"M  c #8E734F",
"N  c #817158",
"B  c #AC7D44",
"V  c #A47B49",
"C  c #A67C53",
"Z  c #887C60",
"A  c #608379",
"S  c #AE864F",
"D  c #AE8351",
"F  c #B08952",
"G  c #BC8E59",
"H  c #8C836C",
"J  c #918164",
"K  c #9F8560",
"L  c #968A6F",
"P  c #998A6F",
"I  c #83927A",
"U  c #86917D",
"Y  c #8B917E",
"T  c #AF8B60",
"R  c #BD9B75",
"E  c #C89961",
"W  c #C4996B",
"Q  c #C19C71",
"!  c #3E8798",
"~  c #7F868E",
"^  c #70978F",
"/  c #6D8E93",
"(  c #668B9B",
")  c #719397",
"_  c #7C9096",
"`  c #7D9197",
"'  c #73919D",
"]  c #7A9699",
"[  c #78A79C",
"{  c #5499B2",
"}  c #5CA8B3",
"|  c #6BA3A4",
" . c #68A9A9",
".. c #67ABB6",
"X. c #28A5CC",
"o. c #3BB3D8",
"O. c #56AAC2",
"+. c #51ADC4",
"@. c #5EBBC7",
"#. c #7FAFC0",
"$. c #7BC4DB",
"%. c #4AC3EB",
"&. c #5DC5E7",
"*. c #5CCAF0",
"=. c #69C5E4",
"-. c #63C5E8",
";. c #7CC7E3",
":. c #64D0F6",
">. c #888988",
",. c #899085",
"<. c #899B84",
"1. c #87928D",
"2. c #8F928B",
"3. c #8E928D",
"4. c #9F9884",
"5. c #92978D",
"6. c #96998D",
"7. c #828E92",
"8. c #829B9C",
"9. c #82999E",
"0. c #929E93",
"q. c #969D93",
"w. c #989E93",
"e. c #A89C88",
"r. c #A7A787",
"t. c #A4A189",
"y. c #AAA38A",
"u. c #A4B783",
"i. c #A1A89C",
"p. c #B1AD98",
"a. c #8DA1A0",
"s. c #90A6A6",
"d. c #94A7A6",
"f. c #9BA5A0",
"g. c #97AAA9",
"h. c #98ABAA",
"j. c #99ACAB",
"k. c #9AACAB",
"l. c #9DAFAE",
"z. c #9CB2AF",
"x. c #9BAEB8",
"c. c #89B7BE",
"v. c #9DB2B2",
"b. c #ACACA0",
"n. c #B6B3A3",
"m. c #A5B6B6",
"M. c #ADB9B3",
"N. c #A0B6B9",
"B. c #A2B9BB",
"V. c #A1BABC",
"C. c #A2BDBD",
"Z. c #A4BCBE",
"A. c #ABBABA",
"S. c #B1BAB1",
"D. c #B3BCB3",
"F. c #B0BFB6",
"G. c #BBBCB2",
"H. c #D4D0B6",
"J. c #85B9C8",
"K. c #96BCC7",
"L. c #9CBCC1",
"P. c #9CBFCA",
"I. c #A3BBC4",
"U. c #A7BFC5",
"Y. c #B9BCC1",
"T. c #8AC5D4",
"R. c #9CC5D2",
"E. c #A8C1C5",
"W. c #ABC4C7",
"Q. c #B0C4C2",
"!. c #B5C4C3",
"~. c #B8C7C7",
"^. c #B2C5C8",
"/. c #B3C6C9",
"(. c #B6CBCB",
"). c #A4CBD7",
"_. c #A9CED1",
"`. c #B6D0D5",
"'. c #81CAE6",
"]. c #84D1F1",
"[. c #B9D7E0",
"{. c #BCDBE3",
"}. c #BFDFE9",
"|. c #A5DBF0",
" X c #87EEE3",
".X c #89FEF9",
"XX c #C1CCCA",
"oX c #C5CCC9",
"OX c #C4CFCF",
"+X c #DCD9C1",
"@X c #C6D1D1",
"#X c #C7D4D2",
"$X c #C6D4D4",
"%X c #C9D6D6",
"&X c #CED6D4",
"*X c #CCD8D8",
"=X c #FFFFCD",
"-X c #E5E7D7",
";X c #E1E7DD",
":X c #F3EFDF",
">X c #FAFCD5",
",X c #F1F5DA",
"<X c #FFFFD9",
"1X c #FEFEDB",
"2X c #FFFFDB",
"3X c #C3DFE7",
"4X c #CADDE5",
"5X c #C1E3ED",
"6X c #C9E2E8",
"7X c #CCE3EE",
"8X c #D2E9E9",
"9X c #C4E6F1",
"0X c #CFE6F0",
"qX c #CFEAF2",
"wX c #C2EDFE",
"eX c #CEEFFE",
"rX c #D5EBF1",
"tX c #D2EEFE",
"yX c #DAEFF9",
"uX c #D9F1F1",
"iX c #D9F1F3",
"pX c #DEF2F8",
"aX c #DBF4FE",
"sX c #ECEDED",
"dX c #FFFFE1",
"fX c #FFFFE3",
"gX c #FEFEE5",
"hX c #F3F2EC",
"jX c #FFFFE8",
"kX c #FFFFEB",
"lX c #FFFFED",
"zX c #FFFFEE",
"xX c #EBF6FA",
"cX c #EFF9FC",
"vX c #FAF9F5",
"bX c #F4F9FB",
/* pixels */
"*/*/*/*/*/*/*/*/*/*/*/*/*/*/*/*/*/*/*/*/*/*/*/*/*/*/*/*/*/*/",
"*/*-*-*-*-*-*-*-*-*-*-*-*-*-*-*-*-*-*-*-*-*-*-*-*-*-*-*-*-*/",
"*/*-*-*-*-*-*-*-*-*-*-*-*-*-jXkXzXzXlXfXdX*-*-*-*-*-*-*-*-*/",
"*/*-*-*-*-*-*-*-*-*-*-*-*-=X*-*-*-*-*-*-=XkX*-*-*-*-*-*-*-*/",
"*/*-*-*-*-*-*-*-*-*-*-*-*-1X>X,XgXfX2X<X*-*-*-*-*-*-*-*-*-*/",
"*/*-*-*-*-*-*-*-*-*-*-*-*-*-6X8XuXiXrX*-*-*-*-*-*-*-*-*-*-*/",
"*/*-*-*-*-*-*-*-*-*-*-*-3XN.}.qXpXcXbXxX*-*-*-*-*-*-*-*-*-*/",
"*/*-*-*-*-*-*-*-*-*-*-5XB.h.9X`./.!.G.b.*-*-*-*-*-*-*-*-*-*/",
"*/*-*-*-*-*-*-*-*-*-*-W.d.j.M.S.J n x N *-*-*-*-*-*-*-*-*-*/",
"*/*-*-*-*-*-*-*-*-*-_ ] d.j.q.K 6.R W C *-*-*-*-*-*-*-*-*-*/",
"*/*-*-*-*-*-*-*-*-9.v.s.8.a.*-*-4 D M *-*-*-*-*-*-*-*-*-*-*/",
"*/*-*-*-*-*-*-*-*-E.h.j.j.j.*-: y b , * *-*-*-*-*-*-*-*-*-*/",
"*/*-*-*-*-*-*-*-*-g g.g.k.f.F E U u. X.X*-*-*-*-*-*-*-*-*-*/",
"*/*-*-*-*-*-*-*-*-[./ ) m.oXp.S A +.@.} # *-*-*-*-*-*-*-*-*/",
"*/*-*-*-*-*-*-*-*-{.l.^.OX*XQ.I  .| ..^ z *-*-*-*-*-*-*-*-*/",
"*/*-*-*-*-*-*-*-*-` $X;.|.).XXz.T G Q e.c *-*-*-*-*-*-*-*-*/",
"*/*-*-*-*-*-*-*-*-*-$.aXeX'.%XC.1.4XP 4.0 *-*-*-*-*-*-*-*-*/",
"*/*-*-*-*-*-*-*-*-h :.wXtX].R.(.F.;X-Xy.e *-*-*-*-*-*-*-*-*/",
"*/*-*-*-*-*-*-*-*-*-&.*.-.X.O.Z.0.H.+Xt.*-*-*-*-*-*-*-*-*-*/",
"*/*-*-*-*-*-*-*-*-*-J.=.%.o.L.A.Z H = *-*-*-*-*-*-*-*-*-*-*/",
"*/*-*-*-*-*-*-*-*-*-*-@XV.~.&X,.r.w > $ *-*-*-*-*-*-*-*-*-*/",
"*/*-*-*-*-*-*-*-*-*-*-- T.c.L B [ s 6 o *-*-*-*-*-*-*-*-*-*/",
"*/*-*-*-*-*-a I.*-*-*-v m Y n.V k r q O *-*-*-*-*-*-*-*-*-*/",
"*/*-*-*-! ' sXvXhX>.*-*-< 7 5.; 9 5 t d 7X7.*-*-*-*-*-*-*-*/",
"*/*-*-*-*-~ Y.P.U.i.*-% @ f w.u   *-. & i + *-*-*-*-*-*-*-*/",
"*/*-*-*-*-l x._.<.D.*-*-*-j 2.3.*-*-*-*-*-*-*-*-*-*-*-*-*-*/",
"*/*-*-*-*-*-( #.K.*-*-*-*-p 0XyX1 *-*-*-*-*-*-*-*-*-*-*-*-*/",
"*/*-*-*-*-3 { #X:X*-*-*-*-*-*-*-*-*-*-*-*-*-*-*-*-*-*-*-*-*/",
"*/*-*-*-*-*-X 2 8 *-*-*-*-*-*-*-*-*-*-*-*-*-*-*-*-*-*-*-*-*/",
"*/*/*/*/*/*/*/*/*/*/*/*/*/*/*/*/*/*/*/*/*/*/*/*/*/*/*/*/*/*/"
};
