/* XPM */
static char *f9640644c9974f97a675c8779291988f5JmR24DdYSEjmFCy[] = {
/* columns rows colors chars-per-pixel */
"30 30 173 2 ",
"*/ c #A39E8E",
"*- c #8D8662",
"   c None",
".  c #3B3D36",
"X  c #4A2C09",
"o  c #583C16",
"O  c #654114",
"+  c #7D4F15",
"@  c #474A3C",
"#  c #584C34",
"$  c #664A24",
"%  c #654E30",
"&  c #6B5B38",
"*  c #4E5144",
"=  c #5B5E5E",
"-  c #6E5F48",
";  c #5F635F",
":  c #596858",
">  c #69634C",
",  c #7A6C4E",
"<  c #456C74",
"1  c #4F747F",
"2  c #686C69",
"3  c #6C7A63",
"4  c #7B7968",
"5  c #697674",
"6  c #717770",
"7  c #AB7A35",
"8  c #816A49",
"9  c #9D7941",
"0  c #927B4C",
"q  c #867555",
"w  c #AC7C43",
"e  c #A57C4A",
"r  c #A07946",
"t  c #B07D41",
"y  c #6D8C7C",
"u  c #7D8676",
"i  c #AE893B",
"p  c #B28031",
"a  c #9D894D",
"s  c #A9874A",
"d  c #A6865D",
"f  c #B98E58",
"g  c #888767",
"h  c #9E8463",
"j  c #918367",
"k  c #8D8774",
"l  c #8C8D7D",
"z  c #81877E",
"x  c #9F8F72",
"c  c #95917E",
"v  c #9A9579",
"b  c #A58B68",
"n  c #B48E61",
"m  c #AE9068",
"M  c #A19665",
"N  c #BB976B",
"B  c #A49472",
"V  c #B19C72",
"C  c #CB9A5F",
"Z  c #C19362",
"A  c #CB9C65",
"S  c #C69C6A",
"D  c #C69B68",
"F  c #CEA16C",
"G  c #D3A56F",
"H  c #DAA86B",
"J  c #C5A479",
"K  c #357A93",
"L  c #4A7381",
"P  c #597580",
"I  c #5C8B8D",
"U  c #4A8C9E",
"Y  c #5B8F94",
"T  c #6A848C",
"R  c #7A8381",
"E  c #7CA398",
"W  c #428FA1",
"Q  c #4491AC",
"!  c #499EA9",
"~  c #4B9EB6",
"^  c #499EBB",
"/  c #629BAC",
"(  c #789AA3",
")  c #51A3B1",
"_  c #62ACB3",
"`  c #20A6CF",
"'  c #4FA6C1",
"]  c #50A4C2",
"[  c #62B8CA",
"{  c #60C5D2",
"}  c #48C3EC",
"|  c #74DFEA",
" . c #77E3ED",
".. c #838C85",
"X. c #8B8B83",
"o. c #8E8F8A",
"O. c #8D958F",
"+. c #889786",
"@. c #9C9B86",
"#. c #959689",
"$. c #889998",
"%. c #949795",
"&. c #A29A88",
"*. c #83A59C",
"=. c #97A59B",
"-. c #A6A589",
";. c #B6A487",
":. c #A7A394",
">. c #8FADB8",
",. c #93AEB6",
"<. c #89B4BD",
"1. c #AFAFA8",
"2. c #A4B2AF",
"3. c #B2B5AB",
"4. c #BFB8A2",
"5. c #A4B2B4",
"6. c #AEBABA",
"7. c #B0BDBD",
"8. c #BDBCB8",
"9. c #C3AD8A",
"0. c #C5B598",
"q. c #D5BA90",
"w. c #C1BBA6",
"e. c #C6C8B9",
"r. c #D6D5BE",
"t. c #80B9C9",
"y. c #9DBEC9",
"u. c #A0BFCC",
"i. c #B6BFC0",
"p. c #9CC2CD",
"a. c #84C5D4",
"s. c #9DC8D5",
"d. c #99CAD9",
"f. c #ACC0C6",
"g. c #BFC8C7",
"h. c #BDC8C6",
"j. c #B5CDD3",
"k. c #A8D2D7",
"l. c #BCD2D6",
"z. c #83D0EF",
"x. c #83D9F9",
"c. c #BBEAFB",
"v. c #CACDC3",
"b. c #C0C3C7",
"n. c #D0CFC5",
"m. c #CCD5C9",
"M. c #DADBCD",
"N. c #C3D1D0",
"B. c #D9DBD5",
"V. c #FFFFCE",
"C. c #E7E7D8",
"Z. c #EDEDDA",
"A. c #FDFDD9",
"S. c #F6F5DA",
"D. c #C3DCE2",
"F. c #CDE4ED",
"G. c #D1E3E9",
"H. c #D8E4E6",
"J. c #C0EBFE",
"K. c #D4ECF2",
"L. c #D2EBF7",
"P. c #DAF2F6",
"I. c #E7E7E4",
"U. c #FFFFE2",
"Y. c #F5F4ED",
"T. c #FFFFEB",
"R. c #F5F8E0",
"E. c #E6F6FB",
"W. c #FCFCF1",
"Q. c #F2FAFD",
"!. c #F6F6F3",
/* pixels */
"*/*/*/*/*/*/*/*/*/*/*/*/*/*/*/*/*/*/*/*/*/*/*/*/*/*/*/*/*/*/",
"*/*-*-*-*-*-*-*-*-*-*-*-*-*-*-*-*-*-*-*-*-*-*-*-*-*-*-*-*-*/",
"*/*-*-*-*-*-*-*-*-*-*-*-*-*-U.T.T.W.T.T.U.*-*-*-*-*-*-*-*-*/",
"*/*-*-*-*-*-*-*-*-*-*-*-*-V.T.*-*-!.*-*-U.V.*-*-*-*-*-*-*-*/",
"*/*-*-*-*-*-*-*-*-*-*-*-*-*-A.A.U.R.S.S.A.*-*-*-*-*-*-*-*-*/",
"*/*-*-*-*-*-*-*-*-*-*-*-*-*-*-G.K.P.K.H.*-*-*-*-*-*-*-*-*-*/",
"*/*-*-*-*-*-*-*-*-*-*-*-*-*-f.P.Q.Q.Q.E.*-*-*-*-*-*-*-*-*-*/",
"*/*-*-*-*-*-*-*-*-*-*-*-*-*-,.D.l.H.v.G.T *-*-*-*-*-*-*-*-*/",
"*/*-*-*-*-*-*-*-*-*-*-*-*-*-=.c k h q l 4 *-*-*-*-*-*-*-*-*/",
"*/*-*-*-*-*-*-*-*-*-*-*-*-*-c #.b Z h v # *-*-*-*-*-*-*-*-*/",
"*/*-*-*-*-*-*-*-*-*-*-*-*-X.3.@.Z S D B e.%.*-*-*-*-*-*-*-*/",
"*/*-*-*-*-*-*-*-*-*-*-*-*-1.w.s , w 8 9 4.n.*-*-*-*-*-*-*-*/",
"*/*-*-*-*-*-*-*-*-*-*-*-*-*-e 7 i +.a p e 2 *-*-*-*-*-*-*-*/",
"*/*-*-*-*-*-*-*-*-*-*-*-R /*f Y |*-. .[ f = *-*-*-*-*-*-*-*/",
"*/*-*-*-*-*-*-*-*-*-*-*-g.u A , W ) ~ I A ;.*-*-*-*-*-*-*-*/",
"*/*-*-*-*-*-*-*-*-*-*->.j.-.B s u E *.M V J *-*-*-*-*-*-*-*/",
"*/*-*-*-*-*-*-*-*-*-P J.s.=.+.:.n N ;.&.O.G *-*-*-*-*-*-*-*/",
"*/*-*-*-*-*-*-*-*-*-c.L.d.=.u z l j k O...F 8 *-*-*-*-*-*-*/",
"*/*-*-*-*-*-*-*-*-K x.z.' O.J 8.e.M.v.#.9.G D *-*-*-*-*-*-*/",
"*/*-*-*-*-*-*-*-*-*-} ` <.6 0.e.M.C.Z.r.x N 0.*-*-*-*-*-*-*/",
"*/*-*-*-a.8.B.i./ /*/*t.g.< @.q.9.e.v f b & *-*-*-*-*-*-*-*/",
"*/*-*-*-Y.Y.!.!.I.*-*-6.$.~ -.H y ! _ C S U + *-*-*-*-*-*-*/",
"*/*-*-*-y.p.b.p.u.*-*-*-9 g w w _ { [ r t 0 7 *-*-*-*-*-*-*/",
"*/*-*-*-k.v m.;.k.*-*-*-] 5.d h.5.4 4 3.m &./ *-*-*-*-*-*-*/",
"*/*-*-*-( d.y.s.T /**-$ 3 # % #.> ^ & 2.- q : O *-*-*-*-*-*/",
"*/*-*-*-Q Z.S.B.Q /**-*-*-6 O.l o X o 4 l X. *-*-*-*-*-*- */",
"*/*-*-*-*-1 ; L /**-*-*-5 o.7...*-*-*-; j.%.$.*-*-*-*-*-*-*/",
"*/*-*-*-*-*-*-*-*-*-*-*-7.G.L.2 *-*-*-. F.K.N.*-*-*-*-*-*-*/",
"*/*-*-*-*-*-*-*-*-*-*-*-*-@ * /**-*-*-*-@ * . /**-*-*-*-*-*/",
"*/*/*/*/*/*/*/*/*/*/*/*/*/*/*/*/*/*/*/*/*/*/*/*/*/*/*/*/*/*/"
};
