/* XPM */
static char * skingauche_xpm[] = {
"50 50 149 2",
"  	c #A5A08A",
". 	c #8D8662",
"+ 	c #FEFED5",
"@ 	c #FDFED8",
"# 	c #FFFFD0",
"$ 	c #FFFFCC",
"% 	c #FEFEDF",
"& 	c #F2EDD8",
"* 	c #FFFFCF",
"= 	c #E3E8E6",
"- 	c #E8EDEA",
"; 	c #F4F1E0",
"> 	c #E3E2D4",
", 	c #DEE4E3",
"' 	c #CFE6F2",
") 	c #CEEDF7",
"! 	c #DDF2FA",
"~ 	c #D4EFF8",
"{ 	c #C2E0EA",
"] 	c #EFF9FD",
"^ 	c #E4F6FC",
"/ 	c #B8D1D8",
"( 	c #AEC9D1",
"_ 	c #BCD9E2",
": 	c #F6F6ED",
"< 	c #F9FDFE",
"[ 	c #C8EBF7",
"} 	c #A5C1C7",
"| 	c #96A8A8",
"1 	c #C5E7F1",
"2 	c #BABEBB",
"3 	c #B4AD94",
"4 	c #D0DADA",
"5 	c #A1B9BF",
"6 	c #C1CAC9",
"7 	c #99ACAB",
"8 	c #808D91",
"9 	c #917754",
"0 	c #989888",
"a 	c #938F7C",
"b 	c #778486",
"c 	c #B07D41",
"d 	c #88602F",
"e 	c #86826B",
"f 	c #A1B3B4",
"g 	c #CDC7B1",
"h 	c #91A3A4",
"i 	c #D3A56F",
"j 	c #A9783D",
"k 	c #95AAB2",
"l 	c #BA915F",
"m 	c #D19F69",
"n 	c #D2945E",
"o 	c #A88358",
"p 	c #989EA1",
"q 	c #638C91",
"r 	c #869F9F",
"s 	c #C69964",
"t 	c #7A8C8B",
"u 	c #464232",
"v 	c #545241",
"w 	c #6E6A55",
"x 	c #86FFFF",
"y 	c #90DDFD",
"z 	c #85DBFD",
"A 	c #6FEEF9",
"B 	c #5BC5E5",
"C 	c #499AB1",
"D 	c #9D784C",
"E 	c #B1AFAB",
"F 	c #A3A7A8",
"G 	c #4BA3BF",
"H 	c #5BB8C1",
"I 	c #58B2D1",
"J 	c #6F7A7A",
"K 	c #BB8A48",
"L 	c #CDD4D2",
"M 	c #D8E0DF",
"N 	c #769A9D",
"O 	c #55BCE0",
"P 	c #53B8D9",
"Q 	c #4DABCB",
"R 	c #92B0B9",
"S 	c #926735",
"T 	c #956B38",
"U 	c #81A8A9",
"V 	c #91969B",
"W 	c #B9C6C8",
"X 	c #CFCFC6",
"Y 	c #9ADFFD",
"Z 	c #ACB0B2",
"` 	c #BEB79C",
" .	c #B5C0BF",
"..	c #B4E5FE",
"+.	c #C0E7FE",
"@.	c #75C2D4",
"#.	c #7D582D",
"$.	c #9A9998",
"%.	c #705D40",
"&.	c #7C837B",
"*.	c #A3E1FE",
"=.	c #FFFFFF",
"-.	c #DED9C9",
";.	c #D4EDFA",
">.	c #60D3FB",
",.	c #FBFCEC",
"'.	c #0D88AE",
").	c #7BD9FC",
"!.	c #5CCDF1",
"~.	c #878A71",
"{.	c #93A1A5",
"].	c #3F8CA5",
"^.	c #0494BE",
"/.	c #1AA3CC",
"(.	c #2DAFD8",
"_.	c #3CBAE3",
":.	c #72765F",
"<.	c #557C84",
"[.	c #7B7C68",
"}.	c #718484",
"|.	c #7B8081",
"1.	c #B2B9BA",
"2.	c #585D4E",
"3.	c #6C6F5E",
"4.	c #7E7B76",
"5.	c #37798E",
"6.	c #535342",
"7.	c #CF8116",
"8.	c #BF7413",
"9.	c #D0AF53",
"0.	c #676657",
"a.	c #888E93",
"b.	c #316A78",
"c.	c #FEFEFD",
"d.	c #68E3F2",
"e.	c #8B9A9E",
"f.	c #346F81",
"g.	c #869592",
"h.	c #3E8391",
"i.	c #BDBFC4",
"j.	c #738185",
"k.	c #B4BDBD",
"l.	c #A65A0F",
"m.	c #82878C",
"n.	c #7A7F86",
"o.	c #6B7576",
"p.	c #C7C7C7",
"q.	c #456769",
"r.	c #395354",
"                                                                                                    ",
"  . . . . . . . . . . . . . . . . . . . . . . . . . . . . . . . . . . . . . . . . . . . . . . . .   ",
"  . . . . . . . . . . . . . . . . . . . . . . . . . . . . . . . . . . . . . . . . . . . . . . . .   ",
"  . . . . . . . . . . . . . . . . . + + @ @ + + . . . . . . . . . . . . . . . . . . . . . . . . .   ",
"  . . . . . . . . . . . . . . # $ % . . . . . . % + # . . . . . . . . . . . . . . . . . . . . . .   ",
"  . . . . . . . . . . . . . . $ + . . . . . . . . . % $ . . . . . . . . . . . . . . . . . . . . .   ",
"  . . . . . . . . . . . . . . $ $ % . . . . . . . . & $ # . . . . . . . . . . . . . . . . . . . .   ",
"  . . . . . . . . . . . . . . . + * $ # @ % % & + * $ # . . . . . . . . . . . . . . . . . . . . .   ",
"  . . . . . . . . . . . . . . . . . . = - ; ; ; > > , . . . . . . . . . . . . . . . . . . . . . .   ",
"  . . . . . . . . . . . . . . . . ' ) ! ~ ) ~ ~ ' { { . . . . . . . . . . . . . . . . . . . . . .   ",
"  . . . . . . . . . . . . . . . { ] ] ] ] ] ] ^ ~ { / ( { _ . . . . . . . . . . . . . . . . . . .   ",
"  . . . . . . . . . . . . . . . ^ - - : < ! _ { ) [ } | } [ 1 . . . . . . . . . . . . . . . . . .   ",
"  . . . . . . . . . . . . . . . ( 2 3 4 5 6 4 / / [ / 7 7 } 1 1 . . . . . . . . . . . . . . . . .   ",
"  . . . . . . . . . . . . . . . 8 9   9   0 a 7 ( _ ( 7 | 7 ( [ . . . . . . . . . . . . . . . . .   ",
"  . . . . . . . . . . . . . . . b 0 c d e 9 e f g 3 7 7 h | 7 ( . . . . . . . . . . . . . . . . .   ",
"  . . . . . . . . . . . . . . . . i i   g a 7   j a 7 7 7 h 7 k . . . . . . . . . . . . . . . . .   ",
"  . . . . . . . . . . . . . . . . l m m n o 7 ( p h h | 7 h q r / { . . . . . . . . . . . . . . .   ",
"  . . . . . . . . . . . . . . . . . s s l o . . . . . h t r | 7 7 _ . . . . . . . . . . . . . . .   ",
"  . . . . . . . . . . . . . . . . . u v j j . . . . . 7 7 7 7 7 7 f { . . . . . . . . . . . . . .   ",
"  . . . . . . . . . . . . . . . . s o j c w 9 m . . . 7 7 7 7 7 7 h _ . . . . . . . . . . . . . .   ",
"  . . . . . . . . . . . . . . . x x y z m   l s i n . | 7 7 7 7 7 h . . . . . . . . . . . . . . .   ",
"  . . . . . . . . . . . . . . . A x x x x B C D s s E F F 7 | h | } . . . . . . . . . . . . . . .   ",
"  . . . . . . . . . . . . . . . 9 G H I I G J K l 3 L M 6 | N 8 q 5 { _ . . . . . . . . . . . . .   ",
"  . . . . . . . . . . . . . . d 9 O P Q C C N R 9 r L 4 L , 7 N h / ) . . . . . . . . . . . . . .   ",
"  . . . . . . . . . . . . . . S T b U U U V U R   W 4 4 6 6 _ L 7 5 { . . . . . . . . . . . . . .   ",
"  . . . . . . . . . . . . . . S a 0 s i m c c X h L M ( Y ( y } L { / . . . . . . . . . . . . . .   ",
"  . . . . . . . . . . . . . d S Z F E 2 3 ` 3 h 5 W  .} ..+...@.4 / . . . . . . . . . . . . . . .   ",
"  . . . . . . . . . . . . . . #.F $.0 %.{ _ &.N 6 4 6 z *.] =...@.4 . . . . . . . . . . . . . . .   ",
"  . . . . . . . . . . . . . . . 3 2 -.4 { _ V U 4 4 5 y ;.] ] +.>.( . . . . . . . . . . . . . . .   ",
"  . . . . . . . . . . . . . . . `   X ,.: ; L f 4 _ G *...;.! z >.( . . . . . . . . . . . . . . .   ",
"  . . . . . . . . . . . . . . .   g ; & > -.F f 5 @.'.I Y y ).!.!.( . . . . . . . . . . . . . . .   ",
"  . . . . . . . . . . . . . . . . .   3 3 3 ~.{.L 6 ].^./.(._.!.B W . . . . . . . . . . . . . . .   ",
"  . . . . . . . . . . . . . . . . . #.#.:.` o t 4 L C _._.!.!.B } . . . . . . . . . . . . . . . .   ",
"  . . . . . . . . . . . . . . . . . #.#.%.<.s [.W L L / @.R 6 L 6 . . . . . . . . . . . . . . . .   ",
"  . . . . . . . . . . . . . . . . w #.%.w }.` i |.4 M W 1.L 4 6 . . . . . . . . . . . . . . . . .   ",
"  . . . . . . . . . . . . . . . . 2.u 3.:.}.U K j e 6 f 6 (   . . . . . . . . . . . . . . . . . .   ",
"  . . . . . . . . . . . . . . . . . v 3.:.}.B o c c 4.H B I . . . . . . . 5.. . . . . . . . . . .   ",
"  . . . . . . . . . . . . . . . . v 6.:.:.w p 9 c E W 0 7.8.K 9.. . . . 6 6 L . . . . . . . . . .   ",
"  . . . . . . . . . . . . . _ ' 5 u 0.3.:.. _ a.:./ ' . . b.. . . . . c.=.=.=.M a.@.d.. . . . . .   ",
"  . . . . . . . . . . . . . ! ;.{ :.:.:.0.. . e.#.&.. . . f.C . . . L > ; : : - V G C . . . . . .   ",
"  . . . . . . . . . . . . . &.f g.:.. . . . . w %.w . . . T h.9.. . f i.} } i.2 a.j.. . . . . . .   ",
"  . . . . . . . . . . . . . . . . . . . . . . o k.W W a . l.8.K . g.L ( F } } 1.m.n.. . . . . . .   ",
"  . . . . . . . . . . . . . . . . . . . . . . ( n.o./ g.. . . . . p.X r g L @.F m.. . . . . . . .   ",
"  . . . . . . . . . . . . . . . . . . . . . . ! ~ ' ;.f . . . . . . i.W } } Z a.. . . . . . . . .   ",
"  . . . . . . . . . . . . . . . . . . . . . . ' ! ' _ . . . . . . . . / @.H C C . . . . . . . . .   ",
"  . . . . . . . . . . . . . . . . . . . . . . . . . . . . . . . . . . ; ; , @.Q G . . . . . . . .   ",
"  . . . . . . . . . . . . . . . . . . . . . . . . . . . . . . . . . . > > Z j.C Q . . . . . . . .   ",
"  . . . . . . . . . . . . . . . . . . . . . . . . . . . . . . . . . . q.. r.b.. . . . . . . . . .   ",
"  . . . . . . . . . . . . . . . . . . . . . . . . . . . . . . . . . . . . . . . . . . . . . . . .   ",
"                                                                                                    "};
