/* XPM */
static char * sortie_xpm[] = {
"50 50 334 2",
"  	c #A39E8E",
". 	c #8D8662",
"+ 	c #998E5E",
"@ 	c #B4A053",
"# 	c #B6A14F",
"$ 	c #A79652",
"% 	c #A89859",
"& 	c #D9BB3B",
"* 	c #DFBF29",
"= 	c #C7AD37",
"- 	c #AC9B52",
"; 	c #A99959",
"> 	c #E0C139",
", 	c #EDCB27",
"' 	c #E0C337",
") 	c #D4BC4E",
"! 	c #BFAD5C",
"~ 	c #9C9161",
"{ 	c #8F8862",
"] 	c #B5A559",
"^ 	c #DEC242",
"/ 	c #EACC38",
"( 	c #E7CB41",
"_ 	c #E5CC4D",
": 	c #D6C157",
"< 	c #B1A45D",
"[ 	c #96955F",
"} 	c #95955E",
"| 	c #B5A95F",
"1 	c #CEBE58",
"2 	c #D8C24B",
"3 	c #DAC346",
"4 	c #D8C349",
"5 	c #D7C34E",
"6 	c #D2C252",
"7 	c #C8BC57",
"8 	c #B1A85C",
"9 	c #9B9D5E",
"0 	c #AAB458",
"a 	c #A6B352",
"b 	c #9BA653",
"c 	c #949054",
"d 	c #9E9A55",
"e 	c #B8AF52",
"f 	c #C7BB4D",
"g 	c #C6B846",
"h 	c #C4B543",
"i 	c #C3B544",
"j 	c #C2B545",
"k 	c #C2B847",
"l 	c #C3BB49",
"m 	c #B6AE4E",
"n 	c #A29955",
"o 	c #9F9757",
"p 	c #9D955A",
"q 	c #989860",
"r 	c #A5AD59",
"s 	c #A4B04B",
"t 	c #9CA749",
"u 	c #979546",
"v 	c #A09F3C",
"w 	c #A9A83E",
"x 	c #AEAA3E",
"y 	c #B1AA3B",
"z 	c #B3AA37",
"A 	c #B3A936",
"B 	c #B2A936",
"C 	c #B1AA36",
"D 	c #B1AB36",
"E 	c #B0A93A",
"F 	c #B0A740",
"G 	c #B4AB44",
"H 	c #AEA64D",
"I 	c #99925B",
"J 	c #96984D",
"K 	c #969947",
"L 	c #99925D",
"M 	c #A69F54",
"N 	c #A29F50",
"O 	c #9E9E48",
"P 	c #A0A13A",
"Q 	c #A6A633",
"R 	c #AFAB33",
"S 	c #B5AB32",
"T 	c #BBAA31",
"U 	c #C0AB30",
"V 	c #C1AC30",
"W 	c #BFAD30",
"X 	c #BBAD2F",
"Y 	c #B7AB2E",
"Z 	c #B3A82E",
"` 	c #B1A731",
" .	c #AFA836",
"..	c #B0AB3A",
"+.	c #ACA940",
"@.	c #A19F4B",
"#.	c #969258",
"$.	c #8F8861",
"%.	c #A39C53",
"&.	c #B1AC46",
"*.	c #ADAC3E",
"=.	c #A8A937",
"-.	c #ABAA33",
";.	c #B3AC31",
">.	c #BCAF30",
",.	c #C5B02F",
"'.	c #CBB02E",
").	c #CEB12E",
"!.	c #CCB22E",
"~.	c #C9B22D",
"{.	c #C6B12D",
"].	c #C4AE2E",
"^.	c #BEAB31",
"/.	c #B4A933",
"(.	c #ADA835",
"_.	c #A8A838",
":.	c #A7A73C",
"<.	c #A09E4B",
"[.	c #A39A4D",
"}.	c #ABA442",
"|.	c #ACA93D",
"1.	c #A9A937",
"2.	c #ABAB32",
"3.	c #B8AE2F",
"4.	c #C7B32F",
"5.	c #D4B831",
"6.	c #D8B931",
"7.	c #D6B730",
"8.	c #CFB42F",
"9.	c #CDB12E",
"0.	c #CFB12D",
"a.	c #D2B42C",
"b.	c #D6B72D",
"c.	c #DBBA33",
"d.	c #D5B733",
"e.	c #C6B031",
"f.	c #B6AA33",
"g.	c #AAA736",
"h.	c #A8A839",
"i.	c #A6A63E",
"j.	c #A29F48",
"k.	c #A7A045",
"l.	c #ACA739",
"m.	c #A9A839",
"n.	c #A8A835",
"o.	c #B1AB31",
"p.	c #C5B22D",
"q.	c #D7B82E",
"r.	c #E2BB31",
"s.	c #DFB92F",
"t.	c #D4B52E",
"u.	c #C7B12F",
"v.	c #C2AE2E",
"w.	c #C7AD2C",
"x.	c #CFB02A",
"y.	c #DBB62C",
"z.	c #E6BD32",
"A.	c #E0BB32",
"B.	c #CEB22F",
"C.	c #ADA634",
"D.	c #A7A838",
"E.	c #A8AA38",
"F.	c #A8A73E",
"G.	c #9A9555",
"H.	c #A4A045",
"I.	c #A8A939",
"J.	c #A8A936",
"K.	c #B5AC32",
"L.	c #CDB32D",
"M.	c #E0B92E",
"N.	c #E8BB30",
"O.	c #DFB52B",
"P.	c #CFAF29",
"Q.	c #BFAE2E",
"R.	c #BAAC2F",
"S.	c #C0AA2C",
"T.	c #CBAD29",
"U.	c #D9B229",
"V.	c #E7B92F",
"W.	c #E1B830",
"X.	c #CEB02E",
"Y.	c #BCA930",
"Z.	c #ADA633",
"`.	c #A6A837",
" +	c #A7AB39",
".+	c #A9A940",
"++	c #9A9755",
"@+	c #BFA352",
"#+	c #C9AA4D",
"$+	c #A2925D",
"%+	c #A3A245",
"&+	c #A8A938",
"*+	c #A5A939",
"=+	c #A5A937",
"-+	c #B0AB34",
";+	c #C7B02E",
">+	c #DBB62D",
",+	c #E8BB2F",
"'+	c #E5B92C",
")+	c #DCB62C",
"!+	c #D2B630",
"~+	c #CFB531",
"{+	c #D2B42F",
"]+	c #DAB52D",
"^+	c #E0B62B",
"/+	c #E2B52E",
"(+	c #D7B12D",
"_+	c #C4AB2D",
":+	c #B4A833",
"<+	c #A9A837",
"[+	c #A3AA37",
"}+	c #A7AE3A",
"|+	c #ADAE43",
"1+	c #9D9A56",
"2+	c #D5B147",
"3+	c #A6945B",
"4+	c #9E9C4D",
"5+	c #A2A440",
"6+	c #A1A739",
"7+	c #A2A837",
"8+	c #AAAA36",
"9+	c #BAAC30",
"0+	c #CCB12E",
"a+	c #DBB82E",
"b+	c #DDB92E",
"c+	c #DBB82F",
"d+	c #D7B831",
"e+	c #D5B832",
"f+	c #D6B831",
"g+	c #D9B830",
"h+	c #D9B62F",
"i+	c #D3B02E",
"j+	c #C6AB2E",
"k+	c #B7A830",
"l+	c #ADA836",
"m+	c #A5A83C",
"n+	c #9EA442",
"o+	c #A2A747",
"p+	c #A8A84D",
"q+	c #9B975A",
"r+	c #96964F",
"s+	c #9BA03B",
"t+	c #9FA637",
"u+	c #ABA933",
"v+	c #B5AC30",
"w+	c #BEAE30",
"x+	c #C0AF30",
"y+	c #BFAF30",
"z+	c #BEAF30",
"A+	c #BDAF31",
"B+	c #BCAE32",
"C+	c #BAAD32",
"D+	c #B8AB32",
"E+	c #B3A934",
"F+	c #AEA738",
"G+	c #AAA839",
"H+	c #A3A344",
"I+	c #969555",
"J+	c #94944E",
"K+	c #989A4C",
"L+	c #9A9C47",
"M+	c #9B9C37",
"N+	c #A4A130",
"O+	c #AFA834",
"P+	c #B2AB35",
"Q+	c #B2AB36",
"R+	c #B0AB36",
"S+	c #B0AB37",
"T+	c #AEAA38",
"U+	c #ACAA39",
"V+	c #ADAD3C",
"W+	c #B1AF42",
"X+	c #B4AE47",
"Y+	c #A9A44B",
"Z+	c #9B9753",
"`+	c #8E8841",
" @	c #9B9338",
".@	c #ABA23F",
"+@	c #B0A741",
"@@	c #B3AB41",
"#@	c #B7AE3F",
"$@	c #B8B03E",
"%@	c #B7B141",
"&@	c #B6B448",
"*@	c #BAB64F",
"=@	c #BBB257",
"-@	c #A59D5C",
";@	c #8C8456",
">@	c #928A53",
",@	c #9B9255",
"'@	c #9D9556",
")@	c #ADA152",
"!@	c #CCB848",
"~@	c #D7C141",
"{@	c #D6C13F",
"]@	c #D6C13E",
"^@	c #D4C244",
"/@	c #CDC251",
"(@	c #BEB559",
"_@	c #A8A05E",
":@	c #92974D",
"<@	c #899345",
"[@	c #848C4B",
"}@	c #A1955E",
"|@	c #CBB452",
"1@	c #E2C445",
"2@	c #ECCB39",
"3@	c #EECC36",
"4@	c #E9CA40",
"5@	c #DAC451",
"6@	c #BDAD5C",
"7@	c #949B46",
"8@	c #88963B",
"9@	c #818D43",
"0@	c #A3955E",
"a@	c #CCAF4C",
"b@	c #F1C62B",
"c@	c #F9CA22",
"d@	c #EFC430",
"e@	c #D6B545",
"f@	c #B5A056",
"g@	c #B89E4D",
"h@	c #E5BA23",
"i@	c #F6C515",
"j@	c #EDBF2F",
"k@	c #C6A649",
"l@	c #A39158",
"m@	c #AA9657",
"n@	c #CCAA3D",
"o@	c #E5BC39",
"p@	c #E1BA49",
"q@	c #AF9B5E",
"r@	c #A39E8D",
"s@	c #A49E8D",
"                                                                                                    ",
"  . . . . . . . . . . . . . . . . . . . . . . . . . . . . . . . . . . . . . . . . . . . . . . . .   ",
"  . . . . . . . . . . . . . . . . . . . . . . . . . . . . . . . . . . . . . . . . . . . . . . . .   ",
"  . . . . . . . . . . . . . . . . . . . . . . . . . . . . . . . . . . . . . . . . . . . . . . . .   ",
"  . . . . . . . . . . . . . . . . . . . . . . . . . . . . . . . . . . . . . . . . . . . . . . . .   ",
"  . . . . . . . . . . . . . . . . . . . . . . . . . . . . . . . . . . . . . . . . . . . . . . . .   ",
"  . . . . . . . . . . . . . . . . . . . . . . . . . . . . . . . . . . . . . . . . . . . . . . . .   ",
"  . . . . . . . . . . . . . . . . . . . . . . . . . . . . . . . . . . . . . . . . . . . . . . . .   ",
"  . . . . . . . . . . . . . . . . . . . . . . . . . . . . . . . . . . . . . . . . . . . . . . . .   ",
"  . . . . . . . . . . . . . . . . . . . . . . . . . . . . . . . . . . . . . . . . . . . . . . . .   ",
"  . . . . . . . . . . . . . . . . . . . . . . . . . . . . . . . . . . . . . . . . . . . . . . . .   ",
"  . . . . . . . . . . . . . . . . . . . . . . . . . . . . . . . . . . . . . . . . . . . . . . . .   ",
"  . . . . . . . . . . . . . . . . . . . . . . . . . . . . . . . . . . . . . . . . . . . . . . . .   ",
"  . . . . . . . . . . . . . . . . . . . . . . . . . . . . . . . . . . . . . . . . . . . . . . . .   ",
"  . . . . . . . . . . . . . . . . . . . . . . . . . . . . . . . . . . . . . . . . . . . . . . . .   ",
"  . . . . . . . . . . . . . . . . . . . . . . . . . . . . . . . . . . . . . . . . . . . . . . . .   ",
"  . . . . . . . . . . . . . . . . . . . . . . . . . . . . . . . . . . . . . . . . . . . . . . . .   ",
"  . . . . . . . . . . . . . . . . . . . . . . . . . . . . . . . . . . . . . . . . . . . . . . . .   ",
"  . . . . . . . . . . . . . . . . . . . . . . . . . . . . . . . . . . . . . . . . . . . . . . . .   ",
"  . . . . . . . . . . . . . . . . . . . . . . . . . . . . . . . . . . . . . . . . . . . . . . . .   ",
"  . . . . . . . . . . . . . . . . . . . . . . . . . . . . . . . . . . . . . . . . . . . . . . . .   ",
"  . . . . . . . . . . . . . . . . . . . . . . . . . . . . . . . . . . . . . . . . . . . . . . . .   ",
"  . . . . . . . . . . . . . . . . . . . . . . . . . . . . . . . . . . . . . . . . . . . . . . . .   ",
"  . . . . . . . . . . . . . . . . . . . . . . . . . . . . . . . . . . . . . . . . . . . . . . . .   ",
"  . . . . . . . . . . . . . . . . . . . . . . . . . . . . . . . . . . . . . . . . . . . . . . . .   ",
"  . . . . . . . . . . . . . . . . . . . . . . . . . . . . . . . . . . . . . . . . . . . . . . . .   ",
"  . . . . . . . . . . . . . . . . . . . . . . . + @ # $ . . . . . . . . . . . . . . . . . . . . .   ",
"  . . . . . . . . . . . . . . . . . . . . . . . % & * = - . . . . . . . . . . . . . . . . . . . .   ",
"  . . . . . . . . . . . . . . . . . . . . . . . ; > , ' ) ! ~ . . . . . . . . . . . . . . . . . .   ",
"  . . . . . . . . . . . . . . . . . . . . . . { ] ^ / ( _ : < . . . . . . [ } . . . . . . . . . .   ",
"  . . . . . . . . . . . . . . . . . . . . . . | 1 2 3 4 5 6 7 8 . . . . 9 0 a b . . . . . . . . .   ",
"  . . . . . . . . . . . . . . . . . . . . c d e f g h i j k l m n o p . q r s t . . . . . . . . .   ",
"  . . . . . . . . . . . . . . . . . . . u v w x y z A B B C D E F G H I . . J K . . . . . . . . .   ",
"  . . . . . . . . . . . . . . . L M N O P Q R S T U V W X Y Z `  ...+.@.#.. . $.. . . . . . . . .   ",
"  . . . . . . . . . . . . . . . %.&.*.=.-.;.>.,.'.).).!.~.{.].^./.(._.:.<.. . . . . . . . . . . .   ",
"  . . . . . . . . . . . . . . [.}.|.1.2.3.4.5.6.7.8.9.0.a.b.c.d.e.f.g.h.i.j.$.. . . . . . . . . .   ",
"  . . . . . . . . . . . . . . k.l.m.n.o.p.q.r.s.t.u.v.w.x.y.z.A.B.T C.D.E.F.G.. . . . . . . . . .   ",
"  . . . . . . . . . . . . . . H.m.I.J.K.L.M.N.O.P.Q.R.S.T.U.V.W.X.Y.Z.`. +.+++. . . . . . . . . .   ",
"  . . . . . . . @+#+$+. . . . %+&+*+=+-+;+>+,+'+)+!+~+{+]+^+/+(+_+:+<+[+}+|+1+. . . . . . . . . .   ",
"  . . . . . . . #+2+3+. . . . 4+5+6+7+8+9+0+a+b+c+d+e+f+g+h+i+j+k+l+m+n+o+p+q+. . . . . . . . . .   ",
"  . . . . . . . $+3+. . . . . . r+s+t+=+u+v+w+x+y+z+A+A+B+C+D+E+F+G+H+I+. $.. . . . . . . . . . .   ",
"  . . . . . . . . . . . . . . . . J+K+L+M+N+O+P+Q+D R+S+T+U+V+W+X+Y+Z+. . . . . . . . . . . . . .   ",
"  . . . . . . . . . . . . . . . . . . . `+ @.@+@@@#@$@$@$@%@&@*@=@-@. . . . . . . . . . . . . . .   ",
"  . . . . . . . . . . . . . . . . . . . ;@>@,@'@)@!@~@{@]@^@/@(@_@. . . . :@<@[@. . . . . . . . .   ",
"  . . . . . . . . . . . . . . . . . . . . . . . }@|@1@2@3@4@5@6@. . . . $.7@8@9@. . . . . . . . .   ",
"  . . . . . . . . . . . . . . . . . . . . . . . . 0@a@b@c@d@e@f@. . . . . . . . . . . . . . . . .   ",
"  . . . . . . . . . . . . . . . . . . . . . . . . . g@h@i@j@k@l@. . . . . . . . . . . . . . . . .   ",
"  . . . . . . . . . . . . . . . . . . . . . . . . . m@n@o@p@q@. . . . . . . . . . . . . . . . . .   ",
"  . . . . . . . . . . . . . . . . . . . . . . . . . . . . . . . . . . . . . . . . . . . . . . . .   ",
"                                                      r@s@s@                                        "};
